M48
; DRILL file {KiCad (5.1.5)-3} date Вт 04.2.y 22:23:30
; FORMAT={-:-/ absolute / inch / decimal}
; #@! TF.CreationDate,2020-02-04T22:23:30+03:00
; #@! TF.GenerationSoftware,Kicad,Pcbnew,(5.1.5)-3
; #@! TF.FileFunction,Plated,1,2,PTH
FMAT,2
INCH
T1C0.0276
T2C0.0315
T3C0.0354
T4C0.0374
T5C0.0394
T6C0.0433
T7C0.0472
T8C0.0591
T9C0.0984
%
G90
G05
T1
X5.05Y-2.05
X5.25Y-2.05
X5.35Y-2.05
T2
X4.4Y-2.4
X4.7Y-2.4
X5.7Y-3.25
X5.8969Y-3.25
X4.9Y-2.4
X4.9Y-2.5
X4.9Y-2.6
X4.9Y-2.7
X4.9Y-2.8
X4.9Y-2.9
X4.9Y-3.0
X4.9Y-3.1
X4.9Y-3.2
X4.9Y-3.3
X4.9Y-3.4
X4.9Y-3.5
X4.9Y-3.6
X4.9Y-3.7
X4.9Y-3.8
X5.5Y-2.4
X5.5Y-2.5
X5.5Y-2.6
X5.5Y-2.7
X5.5Y-2.8
X5.5Y-2.9
X5.5Y-3.0
X5.5Y-3.1
X5.5Y-3.2
X5.5Y-3.3
X5.5Y-3.4
X5.5Y-3.5
X5.5Y-3.6
X5.5Y-3.7
X5.5Y-3.8
X4.4Y-2.65
X4.7Y-2.65
X5.7016Y-2.45
X5.8Y-2.45
X5.9Y-3.8
X5.9Y-3.9378
X5.7Y-3.5
X5.8969Y-3.5
T3
X5.7Y-2.1
X5.8Y-2.1
X6.35Y-3.885
X6.35Y-4.0425
X6.35Y-4.2
X4.7Y-2.1
X4.8Y-2.1
T4
X5.1047Y-4.5
X5.2031Y-4.5
X5.3016Y-4.5
X5.4Y-4.5
T6
X5.8661Y-2.75
X5.8661Y-2.85
X5.8661Y-2.95
X4.45Y-2.95
X4.55Y-2.95
X4.65Y-2.95
X4.45Y-3.3
X4.55Y-3.3
X4.65Y-3.3
X4.45Y-3.65
X4.55Y-3.65
X4.65Y-3.65
T7
X6.2811Y-3.8063
X6.2811Y-4.2787
X6.5173Y-3.8063
X6.5173Y-4.2787
T8
X6.2Y-2.4996
X6.2Y-3.2004
T9
X4.45Y-2.0
X4.45Y-4.65
X6.45Y-2.0
X6.45Y-4.65
T5
G00X5.7228Y-4.5461
M15
G01X5.7228Y-4.6051
M16
G05
G00X5.8606Y-4.3
M15
G01X5.9394Y-4.3
M16
G05
G00X5.8744Y-4.5362
M15
G01X5.9256Y-4.5362
M16
G05
G00X6.0772Y-4.5461
M15
G01X6.0772Y-4.6051
M16
G05
T0
M30
