G04 #@! TF.GenerationSoftware,KiCad,Pcbnew,(5.1.5)-3*
G04 #@! TF.CreationDate,2020-02-13T17:55:15+03:00*
G04 #@! TF.ProjectId,TV_led_driver,54565f6c-6564-45f6-9472-697665722e6b,rev?*
G04 #@! TF.SameCoordinates,Original*
G04 #@! TF.FileFunction,Soldermask,Bot*
G04 #@! TF.FilePolarity,Negative*
%FSLAX46Y46*%
G04 Gerber Fmt 4.6, Leading zero omitted, Abs format (unit mm)*
G04 Created by KiCad (PCBNEW (5.1.5)-3) date 2020-02-13 17:55:15*
%MOMM*%
%LPD*%
G04 APERTURE LIST*
%ADD10C,0.100000*%
G04 APERTURE END LIST*
D10*
G36*
X164574098Y-115657033D02*
G01*
X165038350Y-115849332D01*
X165038352Y-115849333D01*
X165456168Y-116128509D01*
X165811491Y-116483832D01*
X166090667Y-116901648D01*
X166090668Y-116901650D01*
X166282967Y-117365902D01*
X166381000Y-117858747D01*
X166381000Y-118361253D01*
X166282967Y-118854098D01*
X166206670Y-119038295D01*
X166090667Y-119318352D01*
X165811491Y-119736168D01*
X165456168Y-120091491D01*
X165038352Y-120370667D01*
X165038351Y-120370668D01*
X165038350Y-120370668D01*
X164574098Y-120562967D01*
X164081253Y-120661000D01*
X163578747Y-120661000D01*
X163085902Y-120562967D01*
X162621650Y-120370668D01*
X162621649Y-120370668D01*
X162621648Y-120370667D01*
X162203832Y-120091491D01*
X161848509Y-119736168D01*
X161569333Y-119318352D01*
X161453330Y-119038295D01*
X161377033Y-118854098D01*
X161279000Y-118361253D01*
X161279000Y-117858747D01*
X161377033Y-117365902D01*
X161569332Y-116901650D01*
X161569333Y-116901648D01*
X161848509Y-116483832D01*
X162203832Y-116128509D01*
X162621648Y-115849333D01*
X162621650Y-115849332D01*
X163085902Y-115657033D01*
X163578747Y-115559000D01*
X164081253Y-115559000D01*
X164574098Y-115657033D01*
G37*
G36*
X113774098Y-115657033D02*
G01*
X114238350Y-115849332D01*
X114238352Y-115849333D01*
X114656168Y-116128509D01*
X115011491Y-116483832D01*
X115290667Y-116901648D01*
X115290668Y-116901650D01*
X115482967Y-117365902D01*
X115581000Y-117858747D01*
X115581000Y-118361253D01*
X115482967Y-118854098D01*
X115406670Y-119038295D01*
X115290667Y-119318352D01*
X115011491Y-119736168D01*
X114656168Y-120091491D01*
X114238352Y-120370667D01*
X114238351Y-120370668D01*
X114238350Y-120370668D01*
X113774098Y-120562967D01*
X113281253Y-120661000D01*
X112778747Y-120661000D01*
X112285902Y-120562967D01*
X111821650Y-120370668D01*
X111821649Y-120370668D01*
X111821648Y-120370667D01*
X111403832Y-120091491D01*
X111048509Y-119736168D01*
X110769333Y-119318352D01*
X110653330Y-119038295D01*
X110577033Y-118854098D01*
X110479000Y-118361253D01*
X110479000Y-117858747D01*
X110577033Y-117365902D01*
X110769332Y-116901650D01*
X110769333Y-116901648D01*
X111048509Y-116483832D01*
X111403832Y-116128509D01*
X111821648Y-115849333D01*
X111821650Y-115849332D01*
X112285902Y-115657033D01*
X112778747Y-115559000D01*
X113281253Y-115559000D01*
X113774098Y-115657033D01*
G37*
G36*
X150108228Y-117401703D02*
G01*
X150263100Y-117465853D01*
X150402481Y-117558985D01*
X150521015Y-117677519D01*
X150614147Y-117816900D01*
X150678297Y-117971772D01*
X150711000Y-118136184D01*
X150711000Y-118303816D01*
X150678297Y-118468228D01*
X150614147Y-118623100D01*
X150521015Y-118762481D01*
X150402481Y-118881015D01*
X150263100Y-118974147D01*
X150108228Y-119038297D01*
X149943816Y-119071000D01*
X149776184Y-119071000D01*
X149611772Y-119038297D01*
X149456900Y-118974147D01*
X149317519Y-118881015D01*
X149198985Y-118762481D01*
X149105853Y-118623100D01*
X149041703Y-118468228D01*
X149009000Y-118303816D01*
X149009000Y-118136184D01*
X149041703Y-117971772D01*
X149105853Y-117816900D01*
X149198985Y-117677519D01*
X149317519Y-117558985D01*
X149456900Y-117465853D01*
X149611772Y-117401703D01*
X149776184Y-117369000D01*
X149943816Y-117369000D01*
X150108228Y-117401703D01*
G37*
G36*
X154566031Y-114434207D02*
G01*
X154694687Y-114473235D01*
X154764148Y-114494306D01*
X154830030Y-114529521D01*
X154946729Y-114591897D01*
X155106765Y-114723235D01*
X155238103Y-114883271D01*
X155262006Y-114927991D01*
X155335694Y-115065851D01*
X155335694Y-115065852D01*
X155335695Y-115065854D01*
X155395793Y-115263968D01*
X155411000Y-115418370D01*
X155411000Y-117021630D01*
X155395793Y-117176032D01*
X155338196Y-117365901D01*
X155335694Y-117374149D01*
X155320966Y-117401703D01*
X155238103Y-117556729D01*
X155106765Y-117716765D01*
X154946729Y-117848103D01*
X154926815Y-117858747D01*
X154764149Y-117945694D01*
X154764146Y-117945695D01*
X154566032Y-118005793D01*
X154360000Y-118026085D01*
X154153969Y-118005793D01*
X153955855Y-117945695D01*
X153955852Y-117945694D01*
X153793186Y-117858747D01*
X153773272Y-117848103D01*
X153613236Y-117716765D01*
X153481898Y-117556729D01*
X153433324Y-117465853D01*
X153384305Y-117374146D01*
X153324207Y-117176033D01*
X153309000Y-117021631D01*
X153309000Y-115418370D01*
X153318098Y-115326000D01*
X153324207Y-115263969D01*
X153384305Y-115065855D01*
X153384306Y-115065852D01*
X153419521Y-114999970D01*
X153481897Y-114883271D01*
X153613235Y-114723235D01*
X153773271Y-114591897D01*
X153859025Y-114546061D01*
X153955851Y-114494306D01*
X154025312Y-114473235D01*
X154153968Y-114434207D01*
X154360000Y-114413915D01*
X154566031Y-114434207D01*
G37*
G36*
X145566031Y-114434207D02*
G01*
X145694687Y-114473235D01*
X145764148Y-114494306D01*
X145830030Y-114529521D01*
X145946729Y-114591897D01*
X146106765Y-114723235D01*
X146238103Y-114883271D01*
X146262006Y-114927991D01*
X146335694Y-115065851D01*
X146335694Y-115065852D01*
X146335695Y-115065854D01*
X146395793Y-115263968D01*
X146411000Y-115418370D01*
X146411000Y-117021630D01*
X146395793Y-117176032D01*
X146338196Y-117365901D01*
X146335694Y-117374149D01*
X146320966Y-117401703D01*
X146238103Y-117556729D01*
X146106765Y-117716765D01*
X145946729Y-117848103D01*
X145926815Y-117858747D01*
X145764149Y-117945694D01*
X145764146Y-117945695D01*
X145566032Y-118005793D01*
X145360000Y-118026085D01*
X145153969Y-118005793D01*
X144955855Y-117945695D01*
X144955852Y-117945694D01*
X144793186Y-117858747D01*
X144773272Y-117848103D01*
X144613236Y-117716765D01*
X144481898Y-117556729D01*
X144433324Y-117465853D01*
X144384305Y-117374146D01*
X144324207Y-117176033D01*
X144309000Y-117021631D01*
X144309000Y-115418370D01*
X144318098Y-115326000D01*
X144324207Y-115263969D01*
X144384305Y-115065855D01*
X144384306Y-115065852D01*
X144419521Y-114999970D01*
X144481897Y-114883271D01*
X144613235Y-114723235D01*
X144773271Y-114591897D01*
X144859025Y-114546061D01*
X144955851Y-114494306D01*
X145025312Y-114473235D01*
X145153968Y-114434207D01*
X145360000Y-114413915D01*
X145566031Y-114434207D01*
G37*
G36*
X150613097Y-114174069D02*
G01*
X150716032Y-114184207D01*
X150914146Y-114244305D01*
X150914149Y-114244306D01*
X151010975Y-114296061D01*
X151096729Y-114341897D01*
X151256765Y-114473235D01*
X151388103Y-114633271D01*
X151433939Y-114719025D01*
X151485694Y-114815851D01*
X151485695Y-114815854D01*
X151545793Y-115013968D01*
X151566085Y-115220000D01*
X151545793Y-115426032D01*
X151505457Y-115559000D01*
X151485694Y-115624149D01*
X151433939Y-115720975D01*
X151388103Y-115806729D01*
X151256765Y-115966765D01*
X151096729Y-116098103D01*
X151039843Y-116128509D01*
X150914149Y-116195694D01*
X150914146Y-116195695D01*
X150716032Y-116255793D01*
X150613097Y-116265931D01*
X150561631Y-116271000D01*
X149158369Y-116271000D01*
X149106903Y-116265931D01*
X149003968Y-116255793D01*
X148805854Y-116195695D01*
X148805851Y-116195694D01*
X148680157Y-116128509D01*
X148623271Y-116098103D01*
X148463235Y-115966765D01*
X148331897Y-115806729D01*
X148286061Y-115720975D01*
X148234306Y-115624149D01*
X148214543Y-115559000D01*
X148174207Y-115426032D01*
X148153915Y-115220000D01*
X148174207Y-115013968D01*
X148234305Y-114815854D01*
X148234306Y-114815851D01*
X148286061Y-114719025D01*
X148331897Y-114633271D01*
X148463235Y-114473235D01*
X148623271Y-114341897D01*
X148709025Y-114296061D01*
X148805851Y-114244306D01*
X148805854Y-114244305D01*
X149003968Y-114184207D01*
X149106903Y-114174069D01*
X149158369Y-114169000D01*
X150561631Y-114169000D01*
X150613097Y-114174069D01*
G37*
G36*
X134836627Y-113287037D02*
G01*
X135006466Y-113338557D01*
X135162991Y-113422222D01*
X135198729Y-113451552D01*
X135300186Y-113534814D01*
X135383448Y-113636271D01*
X135412778Y-113672009D01*
X135496443Y-113828534D01*
X135547963Y-113998374D01*
X135561000Y-114130743D01*
X135561000Y-114469258D01*
X135547963Y-114601627D01*
X135496443Y-114771466D01*
X135412778Y-114927991D01*
X135383448Y-114963729D01*
X135300186Y-115065186D01*
X135162989Y-115177779D01*
X135006467Y-115261442D01*
X135006465Y-115261443D01*
X134836626Y-115312963D01*
X134660000Y-115330359D01*
X134483373Y-115312963D01*
X134313534Y-115261443D01*
X134157009Y-115177778D01*
X134114750Y-115143097D01*
X134019814Y-115065186D01*
X133907221Y-114927989D01*
X133823558Y-114771467D01*
X133781637Y-114633272D01*
X133772037Y-114601626D01*
X133759000Y-114469257D01*
X133759000Y-114130742D01*
X133772037Y-113998373D01*
X133823557Y-113828534D01*
X133907222Y-113672009D01*
X134019815Y-113534815D01*
X134157010Y-113422222D01*
X134313535Y-113338557D01*
X134483374Y-113287037D01*
X134660000Y-113269641D01*
X134836627Y-113287037D01*
G37*
G36*
X132336627Y-113287037D02*
G01*
X132506466Y-113338557D01*
X132662991Y-113422222D01*
X132698729Y-113451552D01*
X132800186Y-113534814D01*
X132883448Y-113636271D01*
X132912778Y-113672009D01*
X132996443Y-113828534D01*
X133047963Y-113998374D01*
X133061000Y-114130743D01*
X133061000Y-114469258D01*
X133047963Y-114601627D01*
X132996443Y-114771466D01*
X132912778Y-114927991D01*
X132883448Y-114963729D01*
X132800186Y-115065186D01*
X132662989Y-115177779D01*
X132506467Y-115261442D01*
X132506465Y-115261443D01*
X132336626Y-115312963D01*
X132160000Y-115330359D01*
X131983373Y-115312963D01*
X131813534Y-115261443D01*
X131657009Y-115177778D01*
X131614750Y-115143097D01*
X131519814Y-115065186D01*
X131407221Y-114927989D01*
X131323558Y-114771467D01*
X131281637Y-114633272D01*
X131272037Y-114601626D01*
X131259000Y-114469257D01*
X131259000Y-114130742D01*
X131272037Y-113998373D01*
X131323557Y-113828534D01*
X131407222Y-113672009D01*
X131519815Y-113534815D01*
X131657010Y-113422222D01*
X131813535Y-113338557D01*
X131983374Y-113287037D01*
X132160000Y-113269641D01*
X132336627Y-113287037D01*
G37*
G36*
X129836627Y-113287037D02*
G01*
X130006466Y-113338557D01*
X130162991Y-113422222D01*
X130198729Y-113451552D01*
X130300186Y-113534814D01*
X130383448Y-113636271D01*
X130412778Y-113672009D01*
X130496443Y-113828534D01*
X130547963Y-113998374D01*
X130561000Y-114130743D01*
X130561000Y-114469258D01*
X130547963Y-114601627D01*
X130496443Y-114771466D01*
X130412778Y-114927991D01*
X130383448Y-114963729D01*
X130300186Y-115065186D01*
X130162989Y-115177779D01*
X130006467Y-115261442D01*
X130006465Y-115261443D01*
X129836626Y-115312963D01*
X129660000Y-115330359D01*
X129483373Y-115312963D01*
X129313534Y-115261443D01*
X129157009Y-115177778D01*
X129114750Y-115143097D01*
X129019814Y-115065186D01*
X128907221Y-114927989D01*
X128823558Y-114771467D01*
X128781637Y-114633272D01*
X128772037Y-114601626D01*
X128759000Y-114469257D01*
X128759000Y-114130742D01*
X128772037Y-113998373D01*
X128823557Y-113828534D01*
X128907222Y-113672009D01*
X129019815Y-113534815D01*
X129157010Y-113422222D01*
X129313535Y-113338557D01*
X129483374Y-113287037D01*
X129660000Y-113269641D01*
X129836627Y-113287037D01*
G37*
G36*
X137918600Y-113277989D02*
G01*
X137951652Y-113288015D01*
X137982103Y-113304292D01*
X138008799Y-113326201D01*
X138030708Y-113352897D01*
X138046985Y-113383348D01*
X138057011Y-113416400D01*
X138061000Y-113456903D01*
X138061000Y-115143097D01*
X138057011Y-115183600D01*
X138046985Y-115216652D01*
X138030708Y-115247103D01*
X138008799Y-115273799D01*
X137982103Y-115295708D01*
X137951652Y-115311985D01*
X137918600Y-115322011D01*
X137878097Y-115326000D01*
X136441903Y-115326000D01*
X136401400Y-115322011D01*
X136368348Y-115311985D01*
X136337897Y-115295708D01*
X136311201Y-115273799D01*
X136289292Y-115247103D01*
X136273015Y-115216652D01*
X136262989Y-115183600D01*
X136259000Y-115143097D01*
X136259000Y-113456903D01*
X136262989Y-113416400D01*
X136273015Y-113383348D01*
X136289292Y-113352897D01*
X136311201Y-113326201D01*
X136337897Y-113304292D01*
X136368348Y-113288015D01*
X136401400Y-113277989D01*
X136441903Y-113274000D01*
X137878097Y-113274000D01*
X137918600Y-113277989D01*
G37*
G36*
X165846564Y-110209389D02*
G01*
X166037833Y-110288615D01*
X166037835Y-110288616D01*
X166209973Y-110403635D01*
X166356365Y-110550027D01*
X166471385Y-110722167D01*
X166550611Y-110913436D01*
X166591000Y-111116484D01*
X166591000Y-111323516D01*
X166550611Y-111526564D01*
X166471385Y-111717833D01*
X166471384Y-111717835D01*
X166356365Y-111889973D01*
X166209973Y-112036365D01*
X166037835Y-112151384D01*
X166037834Y-112151385D01*
X166037833Y-112151385D01*
X165846564Y-112230611D01*
X165643516Y-112271000D01*
X165436484Y-112271000D01*
X165233436Y-112230611D01*
X165042167Y-112151385D01*
X165042166Y-112151385D01*
X165042165Y-112151384D01*
X164870027Y-112036365D01*
X164723635Y-111889973D01*
X164608616Y-111717835D01*
X164608615Y-111717833D01*
X164529389Y-111526564D01*
X164489000Y-111323516D01*
X164489000Y-111116484D01*
X164529389Y-110913436D01*
X164608615Y-110722167D01*
X164723635Y-110550027D01*
X164870027Y-110403635D01*
X165042165Y-110288616D01*
X165042167Y-110288615D01*
X165233436Y-110209389D01*
X165436484Y-110169000D01*
X165643516Y-110169000D01*
X165846564Y-110209389D01*
G37*
G36*
X159846564Y-110209389D02*
G01*
X160037833Y-110288615D01*
X160037835Y-110288616D01*
X160209973Y-110403635D01*
X160356365Y-110550027D01*
X160471385Y-110722167D01*
X160550611Y-110913436D01*
X160591000Y-111116484D01*
X160591000Y-111323516D01*
X160550611Y-111526564D01*
X160471385Y-111717833D01*
X160471384Y-111717835D01*
X160356365Y-111889973D01*
X160209973Y-112036365D01*
X160037835Y-112151384D01*
X160037834Y-112151385D01*
X160037833Y-112151385D01*
X159846564Y-112230611D01*
X159643516Y-112271000D01*
X159436484Y-112271000D01*
X159233436Y-112230611D01*
X159042167Y-112151385D01*
X159042166Y-112151385D01*
X159042165Y-112151384D01*
X158870027Y-112036365D01*
X158723635Y-111889973D01*
X158608616Y-111717835D01*
X158608615Y-111717833D01*
X158529389Y-111526564D01*
X158489000Y-111323516D01*
X158489000Y-111116484D01*
X158529389Y-110913436D01*
X158608615Y-110722167D01*
X158723635Y-110550027D01*
X158870027Y-110403635D01*
X159042165Y-110288616D01*
X159042167Y-110288615D01*
X159233436Y-110209389D01*
X159436484Y-110169000D01*
X159643516Y-110169000D01*
X159846564Y-110209389D01*
G37*
G36*
X151911000Y-110271000D02*
G01*
X147809000Y-110271000D01*
X147809000Y-108169000D01*
X151911000Y-108169000D01*
X151911000Y-110271000D01*
G37*
G36*
X161403512Y-108323927D02*
G01*
X161552812Y-108353624D01*
X161716784Y-108421544D01*
X161864354Y-108520147D01*
X161989853Y-108645646D01*
X162088456Y-108793216D01*
X162156376Y-108957188D01*
X162191000Y-109131259D01*
X162191000Y-109308741D01*
X162156376Y-109482812D01*
X162088456Y-109646784D01*
X161989853Y-109794354D01*
X161864354Y-109919853D01*
X161716784Y-110018456D01*
X161552812Y-110086376D01*
X161403512Y-110116073D01*
X161378742Y-110121000D01*
X161201258Y-110121000D01*
X161176488Y-110116073D01*
X161027188Y-110086376D01*
X160863216Y-110018456D01*
X160715646Y-109919853D01*
X160590147Y-109794354D01*
X160491544Y-109646784D01*
X160423624Y-109482812D01*
X160389000Y-109308741D01*
X160389000Y-109131259D01*
X160423624Y-108957188D01*
X160491544Y-108793216D01*
X160590147Y-108645646D01*
X160715646Y-108520147D01*
X160863216Y-108421544D01*
X161027188Y-108353624D01*
X161176488Y-108323927D01*
X161201258Y-108319000D01*
X161378742Y-108319000D01*
X161403512Y-108323927D01*
G37*
G36*
X161403512Y-104323927D02*
G01*
X161552812Y-104353624D01*
X161716784Y-104421544D01*
X161864354Y-104520147D01*
X161989853Y-104645646D01*
X162088456Y-104793216D01*
X162156376Y-104957188D01*
X162191000Y-105131259D01*
X162191000Y-105308741D01*
X162156376Y-105482812D01*
X162088456Y-105646784D01*
X161989853Y-105794354D01*
X161864354Y-105919853D01*
X161716784Y-106018456D01*
X161552812Y-106086376D01*
X161403512Y-106116073D01*
X161378742Y-106121000D01*
X161201258Y-106121000D01*
X161176488Y-106116073D01*
X161027188Y-106086376D01*
X160863216Y-106018456D01*
X160715646Y-105919853D01*
X160590147Y-105794354D01*
X160491544Y-105646784D01*
X160423624Y-105482812D01*
X160389000Y-105308741D01*
X160389000Y-105131259D01*
X160423624Y-104957188D01*
X160491544Y-104793216D01*
X160590147Y-104645646D01*
X160715646Y-104520147D01*
X160863216Y-104421544D01*
X161027188Y-104353624D01*
X161176488Y-104323927D01*
X161201258Y-104319000D01*
X161378742Y-104319000D01*
X161403512Y-104323927D01*
G37*
G36*
X150108228Y-101741703D02*
G01*
X150263100Y-101805853D01*
X150402481Y-101898985D01*
X150521015Y-102017519D01*
X150614147Y-102156900D01*
X150678297Y-102311772D01*
X150711000Y-102476184D01*
X150711000Y-102643816D01*
X150678297Y-102808228D01*
X150614147Y-102963100D01*
X150521015Y-103102481D01*
X150402481Y-103221015D01*
X150263100Y-103314147D01*
X150108228Y-103378297D01*
X149943816Y-103411000D01*
X149776184Y-103411000D01*
X149611772Y-103378297D01*
X149456900Y-103314147D01*
X149317519Y-103221015D01*
X149198985Y-103102481D01*
X149105853Y-102963100D01*
X149041703Y-102808228D01*
X149009000Y-102643816D01*
X149009000Y-102476184D01*
X149041703Y-102311772D01*
X149105853Y-102156900D01*
X149198985Y-102017519D01*
X149317519Y-101898985D01*
X149456900Y-101805853D01*
X149611772Y-101741703D01*
X149776184Y-101709000D01*
X149943816Y-101709000D01*
X150108228Y-101741703D01*
G37*
G36*
X161403512Y-100323927D02*
G01*
X161552812Y-100353624D01*
X161716784Y-100421544D01*
X161864354Y-100520147D01*
X161989853Y-100645646D01*
X162088456Y-100793216D01*
X162156376Y-100957188D01*
X162191000Y-101131259D01*
X162191000Y-101308741D01*
X162156376Y-101482812D01*
X162088456Y-101646784D01*
X161989853Y-101794354D01*
X161864354Y-101919853D01*
X161716784Y-102018456D01*
X161552812Y-102086376D01*
X161403512Y-102116073D01*
X161378742Y-102121000D01*
X161201258Y-102121000D01*
X161176488Y-102116073D01*
X161027188Y-102086376D01*
X160863216Y-102018456D01*
X160715646Y-101919853D01*
X160590147Y-101794354D01*
X160491544Y-101646784D01*
X160423624Y-101482812D01*
X160389000Y-101308741D01*
X160389000Y-101131259D01*
X160423624Y-100957188D01*
X160491544Y-100793216D01*
X160590147Y-100645646D01*
X160715646Y-100520147D01*
X160863216Y-100421544D01*
X161027188Y-100353624D01*
X161176488Y-100323927D01*
X161201258Y-100319000D01*
X161378742Y-100319000D01*
X161403512Y-100323927D01*
G37*
G36*
X165846564Y-98209389D02*
G01*
X166037833Y-98288615D01*
X166037835Y-98288616D01*
X166209973Y-98403635D01*
X166356365Y-98550027D01*
X166471385Y-98722167D01*
X166550611Y-98913436D01*
X166591000Y-99116484D01*
X166591000Y-99323516D01*
X166550611Y-99526564D01*
X166471385Y-99717833D01*
X166471384Y-99717835D01*
X166356365Y-99889973D01*
X166209973Y-100036365D01*
X166037835Y-100151384D01*
X166037834Y-100151385D01*
X166037833Y-100151385D01*
X165846564Y-100230611D01*
X165643516Y-100271000D01*
X165436484Y-100271000D01*
X165233436Y-100230611D01*
X165042167Y-100151385D01*
X165042166Y-100151385D01*
X165042165Y-100151384D01*
X164870027Y-100036365D01*
X164723635Y-99889973D01*
X164608616Y-99717835D01*
X164608615Y-99717833D01*
X164529389Y-99526564D01*
X164489000Y-99323516D01*
X164489000Y-99116484D01*
X164529389Y-98913436D01*
X164608615Y-98722167D01*
X164723635Y-98550027D01*
X164870027Y-98403635D01*
X165042165Y-98288616D01*
X165042167Y-98288615D01*
X165233436Y-98209389D01*
X165436484Y-98169000D01*
X165643516Y-98169000D01*
X165846564Y-98209389D01*
G37*
G36*
X159846564Y-98209389D02*
G01*
X160037833Y-98288615D01*
X160037835Y-98288616D01*
X160209973Y-98403635D01*
X160356365Y-98550027D01*
X160471385Y-98722167D01*
X160550611Y-98913436D01*
X160591000Y-99116484D01*
X160591000Y-99323516D01*
X160550611Y-99526564D01*
X160471385Y-99717833D01*
X160471384Y-99717835D01*
X160356365Y-99889973D01*
X160209973Y-100036365D01*
X160037835Y-100151384D01*
X160037834Y-100151385D01*
X160037833Y-100151385D01*
X159846564Y-100230611D01*
X159643516Y-100271000D01*
X159436484Y-100271000D01*
X159233436Y-100230611D01*
X159042167Y-100151385D01*
X159042166Y-100151385D01*
X159042165Y-100151384D01*
X158870027Y-100036365D01*
X158723635Y-99889973D01*
X158608616Y-99717835D01*
X158608615Y-99717833D01*
X158529389Y-99526564D01*
X158489000Y-99323516D01*
X158489000Y-99116484D01*
X158529389Y-98913436D01*
X158608615Y-98722167D01*
X158723635Y-98550027D01*
X158870027Y-98403635D01*
X159042165Y-98288616D01*
X159042167Y-98288615D01*
X159233436Y-98209389D01*
X159436484Y-98169000D01*
X159643516Y-98169000D01*
X159846564Y-98209389D01*
G37*
G36*
X150711000Y-99911000D02*
G01*
X149009000Y-99911000D01*
X149009000Y-98209000D01*
X150711000Y-98209000D01*
X150711000Y-99911000D01*
G37*
G36*
X120431000Y-98793500D02*
G01*
X118329000Y-98793500D01*
X118329000Y-96786500D01*
X120431000Y-96786500D01*
X120431000Y-98793500D01*
G37*
G36*
X124708228Y-95701703D02*
G01*
X124863100Y-95765853D01*
X125002481Y-95858985D01*
X125121015Y-95977519D01*
X125214147Y-96116900D01*
X125278297Y-96271772D01*
X125311000Y-96436184D01*
X125311000Y-96603816D01*
X125278297Y-96768228D01*
X125214147Y-96923100D01*
X125121015Y-97062481D01*
X125002481Y-97181015D01*
X124863100Y-97274147D01*
X124708228Y-97338297D01*
X124543816Y-97371000D01*
X124376184Y-97371000D01*
X124211772Y-97338297D01*
X124056900Y-97274147D01*
X123917519Y-97181015D01*
X123798985Y-97062481D01*
X123705853Y-96923100D01*
X123641703Y-96768228D01*
X123609000Y-96603816D01*
X123609000Y-96436184D01*
X123641703Y-96271772D01*
X123705853Y-96116900D01*
X123798985Y-95977519D01*
X123917519Y-95858985D01*
X124056900Y-95765853D01*
X124211772Y-95701703D01*
X124376184Y-95669000D01*
X124543816Y-95669000D01*
X124708228Y-95701703D01*
G37*
G36*
X139948228Y-95701703D02*
G01*
X140103100Y-95765853D01*
X140242481Y-95858985D01*
X140361015Y-95977519D01*
X140454147Y-96116900D01*
X140518297Y-96271772D01*
X140551000Y-96436184D01*
X140551000Y-96603816D01*
X140518297Y-96768228D01*
X140454147Y-96923100D01*
X140361015Y-97062481D01*
X140242481Y-97181015D01*
X140103100Y-97274147D01*
X139948228Y-97338297D01*
X139783816Y-97371000D01*
X139616184Y-97371000D01*
X139451772Y-97338297D01*
X139296900Y-97274147D01*
X139157519Y-97181015D01*
X139038985Y-97062481D01*
X138945853Y-96923100D01*
X138881703Y-96768228D01*
X138849000Y-96603816D01*
X138849000Y-96436184D01*
X138881703Y-96271772D01*
X138945853Y-96116900D01*
X139038985Y-95977519D01*
X139157519Y-95858985D01*
X139296900Y-95765853D01*
X139451772Y-95701703D01*
X139616184Y-95669000D01*
X139783816Y-95669000D01*
X139948228Y-95701703D01*
G37*
G36*
X119525936Y-94251340D02*
G01*
X119624220Y-94261020D01*
X119813381Y-94318401D01*
X119987712Y-94411583D01*
X120140515Y-94536985D01*
X120265917Y-94689788D01*
X120359099Y-94864119D01*
X120416480Y-95053280D01*
X120435855Y-95250000D01*
X120416480Y-95446720D01*
X120359099Y-95635881D01*
X120265917Y-95810212D01*
X120140515Y-95963015D01*
X119987712Y-96088417D01*
X119813381Y-96181599D01*
X119624220Y-96238980D01*
X119525936Y-96248660D01*
X119476795Y-96253500D01*
X119283205Y-96253500D01*
X119234064Y-96248660D01*
X119135780Y-96238980D01*
X118946619Y-96181599D01*
X118772288Y-96088417D01*
X118619485Y-95963015D01*
X118494083Y-95810212D01*
X118400901Y-95635881D01*
X118343520Y-95446720D01*
X118324145Y-95250000D01*
X118343520Y-95053280D01*
X118400901Y-94864119D01*
X118494083Y-94689788D01*
X118619485Y-94536985D01*
X118772288Y-94411583D01*
X118946619Y-94318401D01*
X119135780Y-94261020D01*
X119234064Y-94251340D01*
X119283205Y-94246500D01*
X119476795Y-94246500D01*
X119525936Y-94251340D01*
G37*
G36*
X124708228Y-93161703D02*
G01*
X124863100Y-93225853D01*
X125002481Y-93318985D01*
X125121015Y-93437519D01*
X125214147Y-93576900D01*
X125278297Y-93731772D01*
X125311000Y-93896184D01*
X125311000Y-94063816D01*
X125278297Y-94228228D01*
X125214147Y-94383100D01*
X125121015Y-94522481D01*
X125002481Y-94641015D01*
X124863100Y-94734147D01*
X124708228Y-94798297D01*
X124543816Y-94831000D01*
X124376184Y-94831000D01*
X124211772Y-94798297D01*
X124056900Y-94734147D01*
X123917519Y-94641015D01*
X123798985Y-94522481D01*
X123705853Y-94383100D01*
X123641703Y-94228228D01*
X123609000Y-94063816D01*
X123609000Y-93896184D01*
X123641703Y-93731772D01*
X123705853Y-93576900D01*
X123798985Y-93437519D01*
X123917519Y-93318985D01*
X124056900Y-93225853D01*
X124211772Y-93161703D01*
X124376184Y-93129000D01*
X124543816Y-93129000D01*
X124708228Y-93161703D01*
G37*
G36*
X139948228Y-93161703D02*
G01*
X140103100Y-93225853D01*
X140242481Y-93318985D01*
X140361015Y-93437519D01*
X140454147Y-93576900D01*
X140518297Y-93731772D01*
X140551000Y-93896184D01*
X140551000Y-94063816D01*
X140518297Y-94228228D01*
X140454147Y-94383100D01*
X140361015Y-94522481D01*
X140242481Y-94641015D01*
X140103100Y-94734147D01*
X139948228Y-94798297D01*
X139783816Y-94831000D01*
X139616184Y-94831000D01*
X139451772Y-94798297D01*
X139296900Y-94734147D01*
X139157519Y-94641015D01*
X139038985Y-94522481D01*
X138945853Y-94383100D01*
X138881703Y-94228228D01*
X138849000Y-94063816D01*
X138849000Y-93896184D01*
X138881703Y-93731772D01*
X138945853Y-93576900D01*
X139038985Y-93437519D01*
X139157519Y-93318985D01*
X139296900Y-93225853D01*
X139451772Y-93161703D01*
X139616184Y-93129000D01*
X139783816Y-93129000D01*
X139948228Y-93161703D01*
G37*
G36*
X119525936Y-91711340D02*
G01*
X119624220Y-91721020D01*
X119813381Y-91778401D01*
X119987712Y-91871583D01*
X120140515Y-91996985D01*
X120265917Y-92149788D01*
X120359099Y-92324119D01*
X120416480Y-92513280D01*
X120435855Y-92710000D01*
X120416480Y-92906720D01*
X120359099Y-93095881D01*
X120265917Y-93270212D01*
X120140515Y-93423015D01*
X119987712Y-93548417D01*
X119813381Y-93641599D01*
X119624220Y-93698980D01*
X119525936Y-93708660D01*
X119476795Y-93713500D01*
X119283205Y-93713500D01*
X119234064Y-93708660D01*
X119135780Y-93698980D01*
X118946619Y-93641599D01*
X118772288Y-93548417D01*
X118619485Y-93423015D01*
X118494083Y-93270212D01*
X118400901Y-93095881D01*
X118343520Y-92906720D01*
X118324145Y-92710000D01*
X118343520Y-92513280D01*
X118400901Y-92324119D01*
X118494083Y-92149788D01*
X118619485Y-91996985D01*
X118772288Y-91871583D01*
X118946619Y-91778401D01*
X119135780Y-91721020D01*
X119234064Y-91711340D01*
X119283205Y-91706500D01*
X119476795Y-91706500D01*
X119525936Y-91711340D01*
G37*
G36*
X150028228Y-90621703D02*
G01*
X150183100Y-90685853D01*
X150322481Y-90778985D01*
X150441015Y-90897519D01*
X150534147Y-91036900D01*
X150598297Y-91191772D01*
X150631000Y-91356184D01*
X150631000Y-91523816D01*
X150598297Y-91688228D01*
X150534147Y-91843100D01*
X150441015Y-91982481D01*
X150322481Y-92101015D01*
X150183100Y-92194147D01*
X150028228Y-92258297D01*
X149863816Y-92291000D01*
X149696184Y-92291000D01*
X149531772Y-92258297D01*
X149376900Y-92194147D01*
X149237519Y-92101015D01*
X149118985Y-91982481D01*
X149025853Y-91843100D01*
X148961703Y-91688228D01*
X148929000Y-91523816D01*
X148929000Y-91356184D01*
X148961703Y-91191772D01*
X149025853Y-91036900D01*
X149118985Y-90897519D01*
X149237519Y-90778985D01*
X149376900Y-90685853D01*
X149531772Y-90621703D01*
X149696184Y-90589000D01*
X149863816Y-90589000D01*
X150028228Y-90621703D01*
G37*
G36*
X145028228Y-90621703D02*
G01*
X145183100Y-90685853D01*
X145322481Y-90778985D01*
X145441015Y-90897519D01*
X145534147Y-91036900D01*
X145598297Y-91191772D01*
X145631000Y-91356184D01*
X145631000Y-91523816D01*
X145598297Y-91688228D01*
X145534147Y-91843100D01*
X145441015Y-91982481D01*
X145322481Y-92101015D01*
X145183100Y-92194147D01*
X145028228Y-92258297D01*
X144863816Y-92291000D01*
X144696184Y-92291000D01*
X144531772Y-92258297D01*
X144376900Y-92194147D01*
X144237519Y-92101015D01*
X144118985Y-91982481D01*
X144025853Y-91843100D01*
X143961703Y-91688228D01*
X143929000Y-91523816D01*
X143929000Y-91356184D01*
X143961703Y-91191772D01*
X144025853Y-91036900D01*
X144118985Y-90897519D01*
X144237519Y-90778985D01*
X144376900Y-90685853D01*
X144531772Y-90621703D01*
X144696184Y-90589000D01*
X144863816Y-90589000D01*
X145028228Y-90621703D01*
G37*
G36*
X139948228Y-90621703D02*
G01*
X140103100Y-90685853D01*
X140242481Y-90778985D01*
X140361015Y-90897519D01*
X140454147Y-91036900D01*
X140518297Y-91191772D01*
X140551000Y-91356184D01*
X140551000Y-91523816D01*
X140518297Y-91688228D01*
X140454147Y-91843100D01*
X140361015Y-91982481D01*
X140242481Y-92101015D01*
X140103100Y-92194147D01*
X139948228Y-92258297D01*
X139783816Y-92291000D01*
X139616184Y-92291000D01*
X139451772Y-92258297D01*
X139296900Y-92194147D01*
X139157519Y-92101015D01*
X139038985Y-91982481D01*
X138945853Y-91843100D01*
X138881703Y-91688228D01*
X138849000Y-91523816D01*
X138849000Y-91356184D01*
X138881703Y-91191772D01*
X138945853Y-91036900D01*
X139038985Y-90897519D01*
X139157519Y-90778985D01*
X139296900Y-90685853D01*
X139451772Y-90621703D01*
X139616184Y-90589000D01*
X139783816Y-90589000D01*
X139948228Y-90621703D01*
G37*
G36*
X124708228Y-90621703D02*
G01*
X124863100Y-90685853D01*
X125002481Y-90778985D01*
X125121015Y-90897519D01*
X125214147Y-91036900D01*
X125278297Y-91191772D01*
X125311000Y-91356184D01*
X125311000Y-91523816D01*
X125278297Y-91688228D01*
X125214147Y-91843100D01*
X125121015Y-91982481D01*
X125002481Y-92101015D01*
X124863100Y-92194147D01*
X124708228Y-92258297D01*
X124543816Y-92291000D01*
X124376184Y-92291000D01*
X124211772Y-92258297D01*
X124056900Y-92194147D01*
X123917519Y-92101015D01*
X123798985Y-91982481D01*
X123705853Y-91843100D01*
X123641703Y-91688228D01*
X123609000Y-91523816D01*
X123609000Y-91356184D01*
X123641703Y-91191772D01*
X123705853Y-91036900D01*
X123798985Y-90897519D01*
X123917519Y-90778985D01*
X124056900Y-90685853D01*
X124211772Y-90621703D01*
X124376184Y-90589000D01*
X124543816Y-90589000D01*
X124708228Y-90621703D01*
G37*
G36*
X139948228Y-88081703D02*
G01*
X140103100Y-88145853D01*
X140242481Y-88238985D01*
X140361015Y-88357519D01*
X140454147Y-88496900D01*
X140518297Y-88651772D01*
X140551000Y-88816184D01*
X140551000Y-88983816D01*
X140518297Y-89148228D01*
X140454147Y-89303100D01*
X140361015Y-89442481D01*
X140242481Y-89561015D01*
X140103100Y-89654147D01*
X139948228Y-89718297D01*
X139783816Y-89751000D01*
X139616184Y-89751000D01*
X139451772Y-89718297D01*
X139296900Y-89654147D01*
X139157519Y-89561015D01*
X139038985Y-89442481D01*
X138945853Y-89303100D01*
X138881703Y-89148228D01*
X138849000Y-88983816D01*
X138849000Y-88816184D01*
X138881703Y-88651772D01*
X138945853Y-88496900D01*
X139038985Y-88357519D01*
X139157519Y-88238985D01*
X139296900Y-88145853D01*
X139451772Y-88081703D01*
X139616184Y-88049000D01*
X139783816Y-88049000D01*
X139948228Y-88081703D01*
G37*
G36*
X124708228Y-88081703D02*
G01*
X124863100Y-88145853D01*
X125002481Y-88238985D01*
X125121015Y-88357519D01*
X125214147Y-88496900D01*
X125278297Y-88651772D01*
X125311000Y-88816184D01*
X125311000Y-88983816D01*
X125278297Y-89148228D01*
X125214147Y-89303100D01*
X125121015Y-89442481D01*
X125002481Y-89561015D01*
X124863100Y-89654147D01*
X124708228Y-89718297D01*
X124543816Y-89751000D01*
X124376184Y-89751000D01*
X124211772Y-89718297D01*
X124056900Y-89654147D01*
X123917519Y-89561015D01*
X123798985Y-89442481D01*
X123705853Y-89303100D01*
X123641703Y-89148228D01*
X123609000Y-88983816D01*
X123609000Y-88816184D01*
X123641703Y-88651772D01*
X123705853Y-88496900D01*
X123798985Y-88357519D01*
X123917519Y-88238985D01*
X124056900Y-88145853D01*
X124211772Y-88081703D01*
X124376184Y-88049000D01*
X124543816Y-88049000D01*
X124708228Y-88081703D01*
G37*
G36*
X120431000Y-87363500D02*
G01*
X118329000Y-87363500D01*
X118329000Y-85356500D01*
X120431000Y-85356500D01*
X120431000Y-87363500D01*
G37*
G36*
X139948228Y-85541703D02*
G01*
X140103100Y-85605853D01*
X140242481Y-85698985D01*
X140361015Y-85817519D01*
X140454147Y-85956900D01*
X140518297Y-86111772D01*
X140551000Y-86276184D01*
X140551000Y-86443816D01*
X140518297Y-86608228D01*
X140454147Y-86763100D01*
X140361015Y-86902481D01*
X140242481Y-87021015D01*
X140103100Y-87114147D01*
X139948228Y-87178297D01*
X139783816Y-87211000D01*
X139616184Y-87211000D01*
X139451772Y-87178297D01*
X139296900Y-87114147D01*
X139157519Y-87021015D01*
X139038985Y-86902481D01*
X138945853Y-86763100D01*
X138881703Y-86608228D01*
X138849000Y-86443816D01*
X138849000Y-86276184D01*
X138881703Y-86111772D01*
X138945853Y-85956900D01*
X139038985Y-85817519D01*
X139157519Y-85698985D01*
X139296900Y-85605853D01*
X139451772Y-85541703D01*
X139616184Y-85509000D01*
X139783816Y-85509000D01*
X139948228Y-85541703D01*
G37*
G36*
X124708228Y-85541703D02*
G01*
X124863100Y-85605853D01*
X125002481Y-85698985D01*
X125121015Y-85817519D01*
X125214147Y-85956900D01*
X125278297Y-86111772D01*
X125311000Y-86276184D01*
X125311000Y-86443816D01*
X125278297Y-86608228D01*
X125214147Y-86763100D01*
X125121015Y-86902481D01*
X125002481Y-87021015D01*
X124863100Y-87114147D01*
X124708228Y-87178297D01*
X124543816Y-87211000D01*
X124376184Y-87211000D01*
X124211772Y-87178297D01*
X124056900Y-87114147D01*
X123917519Y-87021015D01*
X123798985Y-86902481D01*
X123705853Y-86763100D01*
X123641703Y-86608228D01*
X123609000Y-86443816D01*
X123609000Y-86276184D01*
X123641703Y-86111772D01*
X123705853Y-85956900D01*
X123798985Y-85817519D01*
X123917519Y-85698985D01*
X124056900Y-85605853D01*
X124211772Y-85541703D01*
X124376184Y-85509000D01*
X124543816Y-85509000D01*
X124708228Y-85541703D01*
G37*
G36*
X157747238Y-83571771D02*
G01*
X157932410Y-83608604D01*
X158214674Y-83725521D01*
X158468705Y-83895259D01*
X158684741Y-84111295D01*
X158854479Y-84365326D01*
X158971396Y-84647590D01*
X159031000Y-84947240D01*
X159031000Y-85252760D01*
X158971396Y-85552410D01*
X158854479Y-85834674D01*
X158684741Y-86088705D01*
X158468705Y-86304741D01*
X158214674Y-86474479D01*
X157932410Y-86591396D01*
X157782585Y-86621198D01*
X157632761Y-86651000D01*
X157327239Y-86651000D01*
X157177415Y-86621198D01*
X157027590Y-86591396D01*
X156745326Y-86474479D01*
X156491295Y-86304741D01*
X156275259Y-86088705D01*
X156105521Y-85834674D01*
X155988604Y-85552410D01*
X155929000Y-85252760D01*
X155929000Y-84947240D01*
X155988604Y-84647590D01*
X156105521Y-84365326D01*
X156275259Y-84111295D01*
X156491295Y-83895259D01*
X156745326Y-83725521D01*
X157027590Y-83608604D01*
X157212762Y-83571771D01*
X157327239Y-83549000D01*
X157632761Y-83549000D01*
X157747238Y-83571771D01*
G37*
G36*
X150028228Y-84271703D02*
G01*
X150183100Y-84335853D01*
X150322481Y-84428985D01*
X150441015Y-84547519D01*
X150534147Y-84686900D01*
X150598297Y-84841772D01*
X150631000Y-85006184D01*
X150631000Y-85173816D01*
X150598297Y-85338228D01*
X150534147Y-85493100D01*
X150441015Y-85632481D01*
X150322481Y-85751015D01*
X150183100Y-85844147D01*
X150028228Y-85908297D01*
X149863816Y-85941000D01*
X149696184Y-85941000D01*
X149531772Y-85908297D01*
X149376900Y-85844147D01*
X149237519Y-85751015D01*
X149118985Y-85632481D01*
X149025853Y-85493100D01*
X148961703Y-85338228D01*
X148929000Y-85173816D01*
X148929000Y-85006184D01*
X148961703Y-84841772D01*
X149025853Y-84686900D01*
X149118985Y-84547519D01*
X149237519Y-84428985D01*
X149376900Y-84335853D01*
X149531772Y-84271703D01*
X149696184Y-84239000D01*
X149863816Y-84239000D01*
X150028228Y-84271703D01*
G37*
G36*
X145028228Y-84271703D02*
G01*
X145183100Y-84335853D01*
X145322481Y-84428985D01*
X145441015Y-84547519D01*
X145534147Y-84686900D01*
X145598297Y-84841772D01*
X145631000Y-85006184D01*
X145631000Y-85173816D01*
X145598297Y-85338228D01*
X145534147Y-85493100D01*
X145441015Y-85632481D01*
X145322481Y-85751015D01*
X145183100Y-85844147D01*
X145028228Y-85908297D01*
X144863816Y-85941000D01*
X144696184Y-85941000D01*
X144531772Y-85908297D01*
X144376900Y-85844147D01*
X144237519Y-85751015D01*
X144118985Y-85632481D01*
X144025853Y-85493100D01*
X143961703Y-85338228D01*
X143929000Y-85173816D01*
X143929000Y-85006184D01*
X143961703Y-84841772D01*
X144025853Y-84686900D01*
X144118985Y-84547519D01*
X144237519Y-84428985D01*
X144376900Y-84335853D01*
X144531772Y-84271703D01*
X144696184Y-84239000D01*
X144863816Y-84239000D01*
X145028228Y-84271703D01*
G37*
G36*
X119525936Y-82821340D02*
G01*
X119624220Y-82831020D01*
X119813381Y-82888401D01*
X119987712Y-82981583D01*
X120140515Y-83106985D01*
X120265917Y-83259788D01*
X120359099Y-83434119D01*
X120416480Y-83623280D01*
X120435855Y-83820000D01*
X120416480Y-84016720D01*
X120359099Y-84205881D01*
X120265917Y-84380212D01*
X120140515Y-84533015D01*
X119987712Y-84658417D01*
X119813381Y-84751599D01*
X119624220Y-84808980D01*
X119525936Y-84818660D01*
X119476795Y-84823500D01*
X119283205Y-84823500D01*
X119234064Y-84818660D01*
X119135780Y-84808980D01*
X118946619Y-84751599D01*
X118772288Y-84658417D01*
X118619485Y-84533015D01*
X118494083Y-84380212D01*
X118400901Y-84205881D01*
X118343520Y-84016720D01*
X118324145Y-83820000D01*
X118343520Y-83623280D01*
X118400901Y-83434119D01*
X118494083Y-83259788D01*
X118619485Y-83106985D01*
X118772288Y-82981583D01*
X118946619Y-82888401D01*
X119135780Y-82831020D01*
X119234064Y-82821340D01*
X119283205Y-82816500D01*
X119476795Y-82816500D01*
X119525936Y-82821340D01*
G37*
G36*
X124708228Y-83001703D02*
G01*
X124863100Y-83065853D01*
X125002481Y-83158985D01*
X125121015Y-83277519D01*
X125214147Y-83416900D01*
X125278297Y-83571772D01*
X125311000Y-83736184D01*
X125311000Y-83903816D01*
X125278297Y-84068228D01*
X125214147Y-84223100D01*
X125121015Y-84362481D01*
X125002481Y-84481015D01*
X124863100Y-84574147D01*
X124708228Y-84638297D01*
X124543816Y-84671000D01*
X124376184Y-84671000D01*
X124211772Y-84638297D01*
X124056900Y-84574147D01*
X123917519Y-84481015D01*
X123798985Y-84362481D01*
X123705853Y-84223100D01*
X123641703Y-84068228D01*
X123609000Y-83903816D01*
X123609000Y-83736184D01*
X123641703Y-83571772D01*
X123705853Y-83416900D01*
X123798985Y-83277519D01*
X123917519Y-83158985D01*
X124056900Y-83065853D01*
X124211772Y-83001703D01*
X124376184Y-82969000D01*
X124543816Y-82969000D01*
X124708228Y-83001703D01*
G37*
G36*
X139948228Y-83001703D02*
G01*
X140103100Y-83065853D01*
X140242481Y-83158985D01*
X140361015Y-83277519D01*
X140454147Y-83416900D01*
X140518297Y-83571772D01*
X140551000Y-83736184D01*
X140551000Y-83903816D01*
X140518297Y-84068228D01*
X140454147Y-84223100D01*
X140361015Y-84362481D01*
X140242481Y-84481015D01*
X140103100Y-84574147D01*
X139948228Y-84638297D01*
X139783816Y-84671000D01*
X139616184Y-84671000D01*
X139451772Y-84638297D01*
X139296900Y-84574147D01*
X139157519Y-84481015D01*
X139038985Y-84362481D01*
X138945853Y-84223100D01*
X138881703Y-84068228D01*
X138849000Y-83903816D01*
X138849000Y-83736184D01*
X138881703Y-83571772D01*
X138945853Y-83416900D01*
X139038985Y-83277519D01*
X139157519Y-83158985D01*
X139296900Y-83065853D01*
X139451772Y-83001703D01*
X139616184Y-82969000D01*
X139783816Y-82969000D01*
X139948228Y-83001703D01*
G37*
G36*
X119525936Y-80281340D02*
G01*
X119624220Y-80291020D01*
X119813381Y-80348401D01*
X119987712Y-80441583D01*
X120140515Y-80566985D01*
X120265917Y-80719788D01*
X120359099Y-80894119D01*
X120416480Y-81083280D01*
X120435855Y-81280000D01*
X120416480Y-81476720D01*
X120359099Y-81665881D01*
X120265917Y-81840212D01*
X120140515Y-81993015D01*
X119987712Y-82118417D01*
X119813381Y-82211599D01*
X119624220Y-82268980D01*
X119525936Y-82278660D01*
X119476795Y-82283500D01*
X119283205Y-82283500D01*
X119234064Y-82278660D01*
X119135780Y-82268980D01*
X118946619Y-82211599D01*
X118772288Y-82118417D01*
X118619485Y-81993015D01*
X118494083Y-81840212D01*
X118400901Y-81665881D01*
X118343520Y-81476720D01*
X118324145Y-81280000D01*
X118343520Y-81083280D01*
X118400901Y-80894119D01*
X118494083Y-80719788D01*
X118619485Y-80566985D01*
X118772288Y-80441583D01*
X118946619Y-80348401D01*
X119135780Y-80291020D01*
X119234064Y-80281340D01*
X119283205Y-80276500D01*
X119476795Y-80276500D01*
X119525936Y-80281340D01*
G37*
G36*
X124708228Y-80461703D02*
G01*
X124863100Y-80525853D01*
X125002481Y-80618985D01*
X125121015Y-80737519D01*
X125214147Y-80876900D01*
X125278297Y-81031772D01*
X125311000Y-81196184D01*
X125311000Y-81363816D01*
X125278297Y-81528228D01*
X125214147Y-81683100D01*
X125121015Y-81822481D01*
X125002481Y-81941015D01*
X124863100Y-82034147D01*
X124708228Y-82098297D01*
X124543816Y-82131000D01*
X124376184Y-82131000D01*
X124211772Y-82098297D01*
X124056900Y-82034147D01*
X123917519Y-81941015D01*
X123798985Y-81822481D01*
X123705853Y-81683100D01*
X123641703Y-81528228D01*
X123609000Y-81363816D01*
X123609000Y-81196184D01*
X123641703Y-81031772D01*
X123705853Y-80876900D01*
X123798985Y-80737519D01*
X123917519Y-80618985D01*
X124056900Y-80525853D01*
X124211772Y-80461703D01*
X124376184Y-80429000D01*
X124543816Y-80429000D01*
X124708228Y-80461703D01*
G37*
G36*
X139948228Y-80461703D02*
G01*
X140103100Y-80525853D01*
X140242481Y-80618985D01*
X140361015Y-80737519D01*
X140454147Y-80876900D01*
X140518297Y-81031772D01*
X140551000Y-81196184D01*
X140551000Y-81363816D01*
X140518297Y-81528228D01*
X140454147Y-81683100D01*
X140361015Y-81822481D01*
X140242481Y-81941015D01*
X140103100Y-82034147D01*
X139948228Y-82098297D01*
X139783816Y-82131000D01*
X139616184Y-82131000D01*
X139451772Y-82098297D01*
X139296900Y-82034147D01*
X139157519Y-81941015D01*
X139038985Y-81822481D01*
X138945853Y-81683100D01*
X138881703Y-81528228D01*
X138849000Y-81363816D01*
X138849000Y-81196184D01*
X138881703Y-81031772D01*
X138945853Y-80876900D01*
X139038985Y-80737519D01*
X139157519Y-80618985D01*
X139296900Y-80525853D01*
X139451772Y-80461703D01*
X139616184Y-80429000D01*
X139783816Y-80429000D01*
X139948228Y-80461703D01*
G37*
G36*
X149145936Y-77741340D02*
G01*
X149244220Y-77751020D01*
X149433381Y-77808401D01*
X149607712Y-77901583D01*
X149760515Y-78026985D01*
X149885917Y-78179788D01*
X149979099Y-78354119D01*
X150036480Y-78543280D01*
X150055855Y-78740000D01*
X150036480Y-78936720D01*
X149979099Y-79125881D01*
X149885917Y-79300212D01*
X149760515Y-79453015D01*
X149607712Y-79578417D01*
X149433381Y-79671599D01*
X149244220Y-79728980D01*
X149145936Y-79738660D01*
X149096795Y-79743500D01*
X148903205Y-79743500D01*
X148854064Y-79738660D01*
X148755780Y-79728980D01*
X148566619Y-79671599D01*
X148392288Y-79578417D01*
X148239485Y-79453015D01*
X148114083Y-79300212D01*
X148020901Y-79125881D01*
X147963520Y-78936720D01*
X147944145Y-78740000D01*
X147963520Y-78543280D01*
X148020901Y-78354119D01*
X148114083Y-78179788D01*
X148239485Y-78026985D01*
X148392288Y-77901583D01*
X148566619Y-77808401D01*
X148755780Y-77751020D01*
X148854064Y-77741340D01*
X148903205Y-77736500D01*
X149096795Y-77736500D01*
X149145936Y-77741340D01*
G37*
G36*
X139948228Y-77921703D02*
G01*
X140103100Y-77985853D01*
X140242481Y-78078985D01*
X140361015Y-78197519D01*
X140454147Y-78336900D01*
X140518297Y-78491772D01*
X140551000Y-78656184D01*
X140551000Y-78823816D01*
X140518297Y-78988228D01*
X140454147Y-79143100D01*
X140361015Y-79282481D01*
X140242481Y-79401015D01*
X140103100Y-79494147D01*
X139948228Y-79558297D01*
X139783816Y-79591000D01*
X139616184Y-79591000D01*
X139451772Y-79558297D01*
X139296900Y-79494147D01*
X139157519Y-79401015D01*
X139038985Y-79282481D01*
X138945853Y-79143100D01*
X138881703Y-78988228D01*
X138849000Y-78823816D01*
X138849000Y-78656184D01*
X138881703Y-78491772D01*
X138945853Y-78336900D01*
X139038985Y-78197519D01*
X139157519Y-78078985D01*
X139296900Y-77985853D01*
X139451772Y-77921703D01*
X139616184Y-77889000D01*
X139783816Y-77889000D01*
X139948228Y-77921703D01*
G37*
G36*
X124708228Y-77921703D02*
G01*
X124863100Y-77985853D01*
X125002481Y-78078985D01*
X125121015Y-78197519D01*
X125214147Y-78336900D01*
X125278297Y-78491772D01*
X125311000Y-78656184D01*
X125311000Y-78823816D01*
X125278297Y-78988228D01*
X125214147Y-79143100D01*
X125121015Y-79282481D01*
X125002481Y-79401015D01*
X124863100Y-79494147D01*
X124708228Y-79558297D01*
X124543816Y-79591000D01*
X124376184Y-79591000D01*
X124211772Y-79558297D01*
X124056900Y-79494147D01*
X123917519Y-79401015D01*
X123798985Y-79282481D01*
X123705853Y-79143100D01*
X123641703Y-78988228D01*
X123609000Y-78823816D01*
X123609000Y-78656184D01*
X123641703Y-78491772D01*
X123705853Y-78336900D01*
X123798985Y-78197519D01*
X123917519Y-78078985D01*
X124056900Y-77985853D01*
X124211772Y-77921703D01*
X124376184Y-77889000D01*
X124543816Y-77889000D01*
X124708228Y-77921703D01*
G37*
G36*
X149145936Y-75201340D02*
G01*
X149244220Y-75211020D01*
X149433381Y-75268401D01*
X149607712Y-75361583D01*
X149760515Y-75486985D01*
X149885917Y-75639788D01*
X149979099Y-75814119D01*
X150036480Y-76003280D01*
X150055855Y-76200000D01*
X150036480Y-76396720D01*
X149979099Y-76585881D01*
X149885917Y-76760212D01*
X149760515Y-76913015D01*
X149607712Y-77038417D01*
X149433381Y-77131599D01*
X149244220Y-77188980D01*
X149145936Y-77198660D01*
X149096795Y-77203500D01*
X148903205Y-77203500D01*
X148854064Y-77198660D01*
X148755780Y-77188980D01*
X148566619Y-77131599D01*
X148392288Y-77038417D01*
X148239485Y-76913015D01*
X148114083Y-76760212D01*
X148020901Y-76585881D01*
X147963520Y-76396720D01*
X147944145Y-76200000D01*
X147963520Y-76003280D01*
X148020901Y-75814119D01*
X148114083Y-75639788D01*
X148239485Y-75486985D01*
X148392288Y-75361583D01*
X148566619Y-75268401D01*
X148755780Y-75211020D01*
X148854064Y-75201340D01*
X148903205Y-75196500D01*
X149096795Y-75196500D01*
X149145936Y-75201340D01*
G37*
G36*
X124708228Y-75381703D02*
G01*
X124863100Y-75445853D01*
X125002481Y-75538985D01*
X125121015Y-75657519D01*
X125214147Y-75796900D01*
X125278297Y-75951772D01*
X125311000Y-76116184D01*
X125311000Y-76283816D01*
X125278297Y-76448228D01*
X125214147Y-76603100D01*
X125121015Y-76742481D01*
X125002481Y-76861015D01*
X124863100Y-76954147D01*
X124708228Y-77018297D01*
X124543816Y-77051000D01*
X124376184Y-77051000D01*
X124211772Y-77018297D01*
X124056900Y-76954147D01*
X123917519Y-76861015D01*
X123798985Y-76742481D01*
X123705853Y-76603100D01*
X123641703Y-76448228D01*
X123609000Y-76283816D01*
X123609000Y-76116184D01*
X123641703Y-75951772D01*
X123705853Y-75796900D01*
X123798985Y-75657519D01*
X123917519Y-75538985D01*
X124056900Y-75445853D01*
X124211772Y-75381703D01*
X124376184Y-75349000D01*
X124543816Y-75349000D01*
X124708228Y-75381703D01*
G37*
G36*
X139948228Y-75381703D02*
G01*
X140103100Y-75445853D01*
X140242481Y-75538985D01*
X140361015Y-75657519D01*
X140454147Y-75796900D01*
X140518297Y-75951772D01*
X140551000Y-76116184D01*
X140551000Y-76283816D01*
X140518297Y-76448228D01*
X140454147Y-76603100D01*
X140361015Y-76742481D01*
X140242481Y-76861015D01*
X140103100Y-76954147D01*
X139948228Y-77018297D01*
X139783816Y-77051000D01*
X139616184Y-77051000D01*
X139451772Y-77018297D01*
X139296900Y-76954147D01*
X139157519Y-76861015D01*
X139038985Y-76742481D01*
X138945853Y-76603100D01*
X138881703Y-76448228D01*
X138849000Y-76283816D01*
X138849000Y-76116184D01*
X138881703Y-75951772D01*
X138945853Y-75796900D01*
X139038985Y-75657519D01*
X139157519Y-75538985D01*
X139296900Y-75445853D01*
X139451772Y-75381703D01*
X139616184Y-75349000D01*
X139783816Y-75349000D01*
X139948228Y-75381703D01*
G37*
G36*
X120431000Y-75933500D02*
G01*
X118329000Y-75933500D01*
X118329000Y-73926500D01*
X120431000Y-73926500D01*
X120431000Y-75933500D01*
G37*
G36*
X150051000Y-74663500D02*
G01*
X147949000Y-74663500D01*
X147949000Y-72656500D01*
X150051000Y-72656500D01*
X150051000Y-74663500D01*
G37*
G36*
X124708228Y-72841703D02*
G01*
X124863100Y-72905853D01*
X125002481Y-72998985D01*
X125121015Y-73117519D01*
X125214147Y-73256900D01*
X125278297Y-73411772D01*
X125311000Y-73576184D01*
X125311000Y-73743816D01*
X125278297Y-73908228D01*
X125214147Y-74063100D01*
X125121015Y-74202481D01*
X125002481Y-74321015D01*
X124863100Y-74414147D01*
X124708228Y-74478297D01*
X124543816Y-74511000D01*
X124376184Y-74511000D01*
X124211772Y-74478297D01*
X124056900Y-74414147D01*
X123917519Y-74321015D01*
X123798985Y-74202481D01*
X123705853Y-74063100D01*
X123641703Y-73908228D01*
X123609000Y-73743816D01*
X123609000Y-73576184D01*
X123641703Y-73411772D01*
X123705853Y-73256900D01*
X123798985Y-73117519D01*
X123917519Y-72998985D01*
X124056900Y-72905853D01*
X124211772Y-72841703D01*
X124376184Y-72809000D01*
X124543816Y-72809000D01*
X124708228Y-72841703D01*
G37*
G36*
X139948228Y-72841703D02*
G01*
X140103100Y-72905853D01*
X140242481Y-72998985D01*
X140361015Y-73117519D01*
X140454147Y-73256900D01*
X140518297Y-73411772D01*
X140551000Y-73576184D01*
X140551000Y-73743816D01*
X140518297Y-73908228D01*
X140454147Y-74063100D01*
X140361015Y-74202481D01*
X140242481Y-74321015D01*
X140103100Y-74414147D01*
X139948228Y-74478297D01*
X139783816Y-74511000D01*
X139616184Y-74511000D01*
X139451772Y-74478297D01*
X139296900Y-74414147D01*
X139157519Y-74321015D01*
X139038985Y-74202481D01*
X138945853Y-74063100D01*
X138881703Y-73908228D01*
X138849000Y-73743816D01*
X138849000Y-73576184D01*
X138881703Y-73411772D01*
X138945853Y-73256900D01*
X139038985Y-73117519D01*
X139157519Y-72998985D01*
X139296900Y-72905853D01*
X139451772Y-72841703D01*
X139616184Y-72809000D01*
X139783816Y-72809000D01*
X139948228Y-72841703D01*
G37*
G36*
X119525936Y-71391340D02*
G01*
X119624220Y-71401020D01*
X119813381Y-71458401D01*
X119987712Y-71551583D01*
X120140515Y-71676985D01*
X120265917Y-71829788D01*
X120359099Y-72004119D01*
X120416480Y-72193280D01*
X120435855Y-72390000D01*
X120416480Y-72586720D01*
X120359099Y-72775881D01*
X120265917Y-72950212D01*
X120140515Y-73103015D01*
X119987712Y-73228417D01*
X119813381Y-73321599D01*
X119624220Y-73378980D01*
X119525936Y-73388660D01*
X119476795Y-73393500D01*
X119283205Y-73393500D01*
X119234064Y-73388660D01*
X119135780Y-73378980D01*
X118946619Y-73321599D01*
X118772288Y-73228417D01*
X118619485Y-73103015D01*
X118494083Y-72950212D01*
X118400901Y-72775881D01*
X118343520Y-72586720D01*
X118324145Y-72390000D01*
X118343520Y-72193280D01*
X118400901Y-72004119D01*
X118494083Y-71829788D01*
X118619485Y-71676985D01*
X118772288Y-71551583D01*
X118946619Y-71458401D01*
X119135780Y-71401020D01*
X119234064Y-71391340D01*
X119283205Y-71386500D01*
X119476795Y-71386500D01*
X119525936Y-71391340D01*
G37*
G36*
X124708228Y-70301703D02*
G01*
X124863100Y-70365853D01*
X125002481Y-70458985D01*
X125121015Y-70577519D01*
X125214147Y-70716900D01*
X125278297Y-70871772D01*
X125311000Y-71036184D01*
X125311000Y-71203816D01*
X125278297Y-71368228D01*
X125214147Y-71523100D01*
X125121015Y-71662481D01*
X125002481Y-71781015D01*
X124863100Y-71874147D01*
X124708228Y-71938297D01*
X124543816Y-71971000D01*
X124376184Y-71971000D01*
X124211772Y-71938297D01*
X124056900Y-71874147D01*
X123917519Y-71781015D01*
X123798985Y-71662481D01*
X123705853Y-71523100D01*
X123641703Y-71368228D01*
X123609000Y-71203816D01*
X123609000Y-71036184D01*
X123641703Y-70871772D01*
X123705853Y-70716900D01*
X123798985Y-70577519D01*
X123917519Y-70458985D01*
X124056900Y-70365853D01*
X124211772Y-70301703D01*
X124376184Y-70269000D01*
X124543816Y-70269000D01*
X124708228Y-70301703D01*
G37*
G36*
X139948228Y-70301703D02*
G01*
X140103100Y-70365853D01*
X140242481Y-70458985D01*
X140361015Y-70577519D01*
X140454147Y-70716900D01*
X140518297Y-70871772D01*
X140551000Y-71036184D01*
X140551000Y-71203816D01*
X140518297Y-71368228D01*
X140454147Y-71523100D01*
X140361015Y-71662481D01*
X140242481Y-71781015D01*
X140103100Y-71874147D01*
X139948228Y-71938297D01*
X139783816Y-71971000D01*
X139616184Y-71971000D01*
X139451772Y-71938297D01*
X139296900Y-71874147D01*
X139157519Y-71781015D01*
X139038985Y-71662481D01*
X138945853Y-71523100D01*
X138881703Y-71368228D01*
X138849000Y-71203816D01*
X138849000Y-71036184D01*
X138881703Y-70871772D01*
X138945853Y-70716900D01*
X139038985Y-70577519D01*
X139157519Y-70458985D01*
X139296900Y-70365853D01*
X139451772Y-70301703D01*
X139616184Y-70269000D01*
X139783816Y-70269000D01*
X139948228Y-70301703D01*
G37*
G36*
X119522484Y-68851000D02*
G01*
X119624220Y-68861020D01*
X119813381Y-68918401D01*
X119987712Y-69011583D01*
X120140515Y-69136985D01*
X120265917Y-69289788D01*
X120359099Y-69464119D01*
X120416480Y-69653280D01*
X120435855Y-69850000D01*
X120416480Y-70046720D01*
X120359099Y-70235881D01*
X120265917Y-70410212D01*
X120140515Y-70563015D01*
X119987712Y-70688417D01*
X119813381Y-70781599D01*
X119624220Y-70838980D01*
X119525936Y-70848660D01*
X119476795Y-70853500D01*
X119283205Y-70853500D01*
X119234064Y-70848660D01*
X119135780Y-70838980D01*
X118946619Y-70781599D01*
X118772288Y-70688417D01*
X118619485Y-70563015D01*
X118494083Y-70410212D01*
X118400901Y-70235881D01*
X118343520Y-70046720D01*
X118324145Y-69850000D01*
X118343520Y-69653280D01*
X118400901Y-69464119D01*
X118494083Y-69289788D01*
X118619485Y-69136985D01*
X118772288Y-69011583D01*
X118946619Y-68918401D01*
X119135780Y-68861020D01*
X119237516Y-68851000D01*
X119283205Y-68846500D01*
X119476795Y-68846500D01*
X119522484Y-68851000D01*
G37*
G36*
X139948228Y-67761703D02*
G01*
X140103100Y-67825853D01*
X140242481Y-67918985D01*
X140361015Y-68037519D01*
X140454147Y-68176900D01*
X140518297Y-68331772D01*
X140551000Y-68496184D01*
X140551000Y-68663816D01*
X140518297Y-68828228D01*
X140454147Y-68983100D01*
X140361015Y-69122481D01*
X140242481Y-69241015D01*
X140103100Y-69334147D01*
X139948228Y-69398297D01*
X139783816Y-69431000D01*
X139616184Y-69431000D01*
X139451772Y-69398297D01*
X139296900Y-69334147D01*
X139157519Y-69241015D01*
X139038985Y-69122481D01*
X138945853Y-68983100D01*
X138881703Y-68828228D01*
X138849000Y-68663816D01*
X138849000Y-68496184D01*
X138881703Y-68331772D01*
X138945853Y-68176900D01*
X139038985Y-68037519D01*
X139157519Y-67918985D01*
X139296900Y-67825853D01*
X139451772Y-67761703D01*
X139616184Y-67729000D01*
X139783816Y-67729000D01*
X139948228Y-67761703D01*
G37*
G36*
X124708228Y-67761703D02*
G01*
X124863100Y-67825853D01*
X125002481Y-67918985D01*
X125121015Y-68037519D01*
X125214147Y-68176900D01*
X125278297Y-68331772D01*
X125311000Y-68496184D01*
X125311000Y-68663816D01*
X125278297Y-68828228D01*
X125214147Y-68983100D01*
X125121015Y-69122481D01*
X125002481Y-69241015D01*
X124863100Y-69334147D01*
X124708228Y-69398297D01*
X124543816Y-69431000D01*
X124376184Y-69431000D01*
X124211772Y-69398297D01*
X124056900Y-69334147D01*
X123917519Y-69241015D01*
X123798985Y-69122481D01*
X123705853Y-68983100D01*
X123641703Y-68828228D01*
X123609000Y-68663816D01*
X123609000Y-68496184D01*
X123641703Y-68331772D01*
X123705853Y-68176900D01*
X123798985Y-68037519D01*
X123917519Y-67918985D01*
X124056900Y-67825853D01*
X124211772Y-67761703D01*
X124376184Y-67729000D01*
X124543816Y-67729000D01*
X124708228Y-67761703D01*
G37*
G36*
X157782585Y-65778802D02*
G01*
X157932410Y-65808604D01*
X158214674Y-65925521D01*
X158468705Y-66095259D01*
X158684741Y-66311295D01*
X158854479Y-66565326D01*
X158971396Y-66847590D01*
X159031000Y-67147240D01*
X159031000Y-67452760D01*
X158971396Y-67752410D01*
X158854479Y-68034674D01*
X158684741Y-68288705D01*
X158468705Y-68504741D01*
X158214674Y-68674479D01*
X157932410Y-68791396D01*
X157782585Y-68821198D01*
X157632761Y-68851000D01*
X157327239Y-68851000D01*
X157177415Y-68821198D01*
X157027590Y-68791396D01*
X156745326Y-68674479D01*
X156491295Y-68504741D01*
X156275259Y-68288705D01*
X156105521Y-68034674D01*
X155988604Y-67752410D01*
X155929000Y-67452760D01*
X155929000Y-67147240D01*
X155988604Y-66847590D01*
X156105521Y-66565326D01*
X156275259Y-66311295D01*
X156491295Y-66095259D01*
X156745326Y-65925521D01*
X157027590Y-65808604D01*
X157177415Y-65778802D01*
X157327239Y-65749000D01*
X157632761Y-65749000D01*
X157782585Y-65778802D01*
G37*
G36*
X139948228Y-65221703D02*
G01*
X140103100Y-65285853D01*
X140242481Y-65378985D01*
X140361015Y-65497519D01*
X140454147Y-65636900D01*
X140518297Y-65791772D01*
X140551000Y-65956184D01*
X140551000Y-66123816D01*
X140518297Y-66288228D01*
X140454147Y-66443100D01*
X140361015Y-66582481D01*
X140242481Y-66701015D01*
X140103100Y-66794147D01*
X139948228Y-66858297D01*
X139783816Y-66891000D01*
X139616184Y-66891000D01*
X139451772Y-66858297D01*
X139296900Y-66794147D01*
X139157519Y-66701015D01*
X139038985Y-66582481D01*
X138945853Y-66443100D01*
X138881703Y-66288228D01*
X138849000Y-66123816D01*
X138849000Y-65956184D01*
X138881703Y-65791772D01*
X138945853Y-65636900D01*
X139038985Y-65497519D01*
X139157519Y-65378985D01*
X139296900Y-65285853D01*
X139451772Y-65221703D01*
X139616184Y-65189000D01*
X139783816Y-65189000D01*
X139948228Y-65221703D01*
G37*
G36*
X124708228Y-65221703D02*
G01*
X124863100Y-65285853D01*
X125002481Y-65378985D01*
X125121015Y-65497519D01*
X125214147Y-65636900D01*
X125278297Y-65791772D01*
X125311000Y-65956184D01*
X125311000Y-66123816D01*
X125278297Y-66288228D01*
X125214147Y-66443100D01*
X125121015Y-66582481D01*
X125002481Y-66701015D01*
X124863100Y-66794147D01*
X124708228Y-66858297D01*
X124543816Y-66891000D01*
X124376184Y-66891000D01*
X124211772Y-66858297D01*
X124056900Y-66794147D01*
X123917519Y-66701015D01*
X123798985Y-66582481D01*
X123705853Y-66443100D01*
X123641703Y-66288228D01*
X123609000Y-66123816D01*
X123609000Y-65956184D01*
X123641703Y-65791772D01*
X123705853Y-65636900D01*
X123798985Y-65497519D01*
X123917519Y-65378985D01*
X124056900Y-65285853D01*
X124211772Y-65221703D01*
X124376184Y-65189000D01*
X124543816Y-65189000D01*
X124708228Y-65221703D01*
G37*
G36*
X147528228Y-63951703D02*
G01*
X147683100Y-64015853D01*
X147822481Y-64108985D01*
X147941015Y-64227519D01*
X148034147Y-64366900D01*
X148098297Y-64521772D01*
X148131000Y-64686184D01*
X148131000Y-64853816D01*
X148098297Y-65018228D01*
X148034147Y-65173100D01*
X147941015Y-65312481D01*
X147822481Y-65431015D01*
X147683100Y-65524147D01*
X147528228Y-65588297D01*
X147363816Y-65621000D01*
X147196184Y-65621000D01*
X147031772Y-65588297D01*
X146876900Y-65524147D01*
X146737519Y-65431015D01*
X146618985Y-65312481D01*
X146525853Y-65173100D01*
X146461703Y-65018228D01*
X146429000Y-64853816D01*
X146429000Y-64686184D01*
X146461703Y-64521772D01*
X146525853Y-64366900D01*
X146618985Y-64227519D01*
X146737519Y-64108985D01*
X146876900Y-64015853D01*
X147031772Y-63951703D01*
X147196184Y-63919000D01*
X147363816Y-63919000D01*
X147528228Y-63951703D01*
G37*
G36*
X145631000Y-65621000D02*
G01*
X143929000Y-65621000D01*
X143929000Y-63919000D01*
X145631000Y-63919000D01*
X145631000Y-65621000D01*
G37*
G36*
X139948228Y-62681703D02*
G01*
X140103100Y-62745853D01*
X140242481Y-62838985D01*
X140361015Y-62957519D01*
X140454147Y-63096900D01*
X140518297Y-63251772D01*
X140551000Y-63416184D01*
X140551000Y-63583816D01*
X140518297Y-63748228D01*
X140454147Y-63903100D01*
X140361015Y-64042481D01*
X140242481Y-64161015D01*
X140103100Y-64254147D01*
X139948228Y-64318297D01*
X139783816Y-64351000D01*
X139616184Y-64351000D01*
X139451772Y-64318297D01*
X139296900Y-64254147D01*
X139157519Y-64161015D01*
X139038985Y-64042481D01*
X138945853Y-63903100D01*
X138881703Y-63748228D01*
X138849000Y-63583816D01*
X138849000Y-63416184D01*
X138881703Y-63251772D01*
X138945853Y-63096900D01*
X139038985Y-62957519D01*
X139157519Y-62838985D01*
X139296900Y-62745853D01*
X139451772Y-62681703D01*
X139616184Y-62649000D01*
X139783816Y-62649000D01*
X139948228Y-62681703D01*
G37*
G36*
X124708228Y-62681703D02*
G01*
X124863100Y-62745853D01*
X125002481Y-62838985D01*
X125121015Y-62957519D01*
X125214147Y-63096900D01*
X125278297Y-63251772D01*
X125311000Y-63416184D01*
X125311000Y-63583816D01*
X125278297Y-63748228D01*
X125214147Y-63903100D01*
X125121015Y-64042481D01*
X125002481Y-64161015D01*
X124863100Y-64254147D01*
X124708228Y-64318297D01*
X124543816Y-64351000D01*
X124376184Y-64351000D01*
X124211772Y-64318297D01*
X124056900Y-64254147D01*
X123917519Y-64161015D01*
X123798985Y-64042481D01*
X123705853Y-63903100D01*
X123641703Y-63748228D01*
X123609000Y-63583816D01*
X123609000Y-63416184D01*
X123641703Y-63251772D01*
X123705853Y-63096900D01*
X123798985Y-62957519D01*
X123917519Y-62838985D01*
X124056900Y-62745853D01*
X124211772Y-62681703D01*
X124376184Y-62649000D01*
X124543816Y-62649000D01*
X124708228Y-62681703D01*
G37*
G36*
X120898228Y-61411703D02*
G01*
X121053100Y-61475853D01*
X121192481Y-61568985D01*
X121311015Y-61687519D01*
X121404147Y-61826900D01*
X121468297Y-61981772D01*
X121501000Y-62146184D01*
X121501000Y-62313816D01*
X121468297Y-62478228D01*
X121404147Y-62633100D01*
X121311015Y-62772481D01*
X121192481Y-62891015D01*
X121053100Y-62984147D01*
X120898228Y-63048297D01*
X120733816Y-63081000D01*
X120566184Y-63081000D01*
X120401772Y-63048297D01*
X120246900Y-62984147D01*
X120107519Y-62891015D01*
X119988985Y-62772481D01*
X119895853Y-62633100D01*
X119831703Y-62478228D01*
X119799000Y-62313816D01*
X119799000Y-62146184D01*
X119831703Y-61981772D01*
X119895853Y-61826900D01*
X119988985Y-61687519D01*
X120107519Y-61568985D01*
X120246900Y-61475853D01*
X120401772Y-61411703D01*
X120566184Y-61379000D01*
X120733816Y-61379000D01*
X120898228Y-61411703D01*
G37*
G36*
X113278228Y-61411703D02*
G01*
X113433100Y-61475853D01*
X113572481Y-61568985D01*
X113691015Y-61687519D01*
X113784147Y-61826900D01*
X113848297Y-61981772D01*
X113881000Y-62146184D01*
X113881000Y-62313816D01*
X113848297Y-62478228D01*
X113784147Y-62633100D01*
X113691015Y-62772481D01*
X113572481Y-62891015D01*
X113433100Y-62984147D01*
X113278228Y-63048297D01*
X113113816Y-63081000D01*
X112946184Y-63081000D01*
X112781772Y-63048297D01*
X112626900Y-62984147D01*
X112487519Y-62891015D01*
X112368985Y-62772481D01*
X112275853Y-62633100D01*
X112211703Y-62478228D01*
X112179000Y-62313816D01*
X112179000Y-62146184D01*
X112211703Y-61981772D01*
X112275853Y-61826900D01*
X112368985Y-61687519D01*
X112487519Y-61568985D01*
X112626900Y-61475853D01*
X112781772Y-61411703D01*
X112946184Y-61379000D01*
X113113816Y-61379000D01*
X113278228Y-61411703D01*
G37*
G36*
X139948228Y-60141703D02*
G01*
X140103100Y-60205853D01*
X140242481Y-60298985D01*
X140361015Y-60417519D01*
X140454147Y-60556900D01*
X140518297Y-60711772D01*
X140551000Y-60876184D01*
X140551000Y-61043816D01*
X140518297Y-61208228D01*
X140454147Y-61363100D01*
X140361015Y-61502481D01*
X140242481Y-61621015D01*
X140103100Y-61714147D01*
X139948228Y-61778297D01*
X139783816Y-61811000D01*
X139616184Y-61811000D01*
X139451772Y-61778297D01*
X139296900Y-61714147D01*
X139157519Y-61621015D01*
X139038985Y-61502481D01*
X138945853Y-61363100D01*
X138881703Y-61208228D01*
X138849000Y-61043816D01*
X138849000Y-60876184D01*
X138881703Y-60711772D01*
X138945853Y-60556900D01*
X139038985Y-60417519D01*
X139157519Y-60298985D01*
X139296900Y-60205853D01*
X139451772Y-60141703D01*
X139616184Y-60109000D01*
X139783816Y-60109000D01*
X139948228Y-60141703D01*
G37*
G36*
X125311000Y-61811000D02*
G01*
X123609000Y-61811000D01*
X123609000Y-60109000D01*
X125311000Y-60109000D01*
X125311000Y-61811000D01*
G37*
G36*
X164574098Y-50887033D02*
G01*
X165038350Y-51079332D01*
X165038352Y-51079333D01*
X165456168Y-51358509D01*
X165811491Y-51713832D01*
X166090667Y-52131648D01*
X166090668Y-52131650D01*
X166282967Y-52595902D01*
X166381000Y-53088747D01*
X166381000Y-53591253D01*
X166282967Y-54084098D01*
X166167951Y-54361771D01*
X166090667Y-54548352D01*
X165811491Y-54966168D01*
X165456168Y-55321491D01*
X165038352Y-55600667D01*
X165038351Y-55600668D01*
X165038350Y-55600668D01*
X164574098Y-55792967D01*
X164081253Y-55891000D01*
X163578747Y-55891000D01*
X163085902Y-55792967D01*
X162621650Y-55600668D01*
X162621649Y-55600668D01*
X162621648Y-55600667D01*
X162203832Y-55321491D01*
X161848509Y-54966168D01*
X161569333Y-54548352D01*
X161492049Y-54361771D01*
X161377033Y-54084098D01*
X161279000Y-53591253D01*
X161279000Y-53088747D01*
X161377033Y-52595902D01*
X161569332Y-52131650D01*
X161569333Y-52131648D01*
X161848509Y-51713832D01*
X162203832Y-51358509D01*
X162621648Y-51079333D01*
X162621650Y-51079332D01*
X163085902Y-50887033D01*
X163578747Y-50789000D01*
X164081253Y-50789000D01*
X164574098Y-50887033D01*
G37*
G36*
X113774098Y-50887033D02*
G01*
X114238350Y-51079332D01*
X114238352Y-51079333D01*
X114656168Y-51358509D01*
X115011491Y-51713832D01*
X115290667Y-52131648D01*
X115290668Y-52131650D01*
X115482967Y-52595902D01*
X115581000Y-53088747D01*
X115581000Y-53591253D01*
X115482967Y-54084098D01*
X115367951Y-54361771D01*
X115290667Y-54548352D01*
X115011491Y-54966168D01*
X114656168Y-55321491D01*
X114238352Y-55600667D01*
X114238351Y-55600668D01*
X114238350Y-55600668D01*
X113774098Y-55792967D01*
X113281253Y-55891000D01*
X112778747Y-55891000D01*
X112285902Y-55792967D01*
X111821650Y-55600668D01*
X111821649Y-55600668D01*
X111821648Y-55600667D01*
X111403832Y-55321491D01*
X111048509Y-54966168D01*
X110769333Y-54548352D01*
X110692049Y-54361771D01*
X110577033Y-54084098D01*
X110479000Y-53591253D01*
X110479000Y-53088747D01*
X110577033Y-52595902D01*
X110769332Y-52131650D01*
X110769333Y-52131648D01*
X111048509Y-51713832D01*
X111403832Y-51358509D01*
X111821648Y-51079333D01*
X111821650Y-51079332D01*
X112285902Y-50887033D01*
X112778747Y-50789000D01*
X113281253Y-50789000D01*
X113774098Y-50887033D01*
G37*
G36*
X125978228Y-53791703D02*
G01*
X126133100Y-53855853D01*
X126272481Y-53948985D01*
X126391015Y-54067519D01*
X126484147Y-54206900D01*
X126548297Y-54361772D01*
X126581000Y-54526184D01*
X126581000Y-54693816D01*
X126548297Y-54858228D01*
X126484147Y-55013100D01*
X126391015Y-55152481D01*
X126272481Y-55271015D01*
X126133100Y-55364147D01*
X125978228Y-55428297D01*
X125813816Y-55461000D01*
X125646184Y-55461000D01*
X125481772Y-55428297D01*
X125326900Y-55364147D01*
X125187519Y-55271015D01*
X125068985Y-55152481D01*
X124975853Y-55013100D01*
X124911703Y-54858228D01*
X124879000Y-54693816D01*
X124879000Y-54526184D01*
X124911703Y-54361772D01*
X124975853Y-54206900D01*
X125068985Y-54067519D01*
X125187519Y-53948985D01*
X125326900Y-53855853D01*
X125481772Y-53791703D01*
X125646184Y-53759000D01*
X125813816Y-53759000D01*
X125978228Y-53791703D01*
G37*
G36*
X118358228Y-53791703D02*
G01*
X118513100Y-53855853D01*
X118652481Y-53948985D01*
X118771015Y-54067519D01*
X118864147Y-54206900D01*
X118928297Y-54361772D01*
X118961000Y-54526184D01*
X118961000Y-54693816D01*
X118928297Y-54858228D01*
X118864147Y-55013100D01*
X118771015Y-55152481D01*
X118652481Y-55271015D01*
X118513100Y-55364147D01*
X118358228Y-55428297D01*
X118193816Y-55461000D01*
X118026184Y-55461000D01*
X117861772Y-55428297D01*
X117706900Y-55364147D01*
X117567519Y-55271015D01*
X117448985Y-55152481D01*
X117355853Y-55013100D01*
X117291703Y-54858228D01*
X117259000Y-54693816D01*
X117259000Y-54526184D01*
X117291703Y-54361772D01*
X117355853Y-54206900D01*
X117448985Y-54067519D01*
X117567519Y-53948985D01*
X117706900Y-53855853D01*
X117861772Y-53791703D01*
X118026184Y-53759000D01*
X118193816Y-53759000D01*
X118358228Y-53791703D01*
G37*
G36*
X145057395Y-52425546D02*
G01*
X145230466Y-52497234D01*
X145230467Y-52497235D01*
X145386227Y-52601310D01*
X145518690Y-52733773D01*
X145524650Y-52742693D01*
X145622766Y-52889534D01*
X145694454Y-53062605D01*
X145731000Y-53246333D01*
X145731000Y-53433667D01*
X145694454Y-53617395D01*
X145622766Y-53790466D01*
X145622765Y-53790467D01*
X145518690Y-53946227D01*
X145386227Y-54078690D01*
X145307818Y-54131081D01*
X145230466Y-54182766D01*
X145057395Y-54254454D01*
X144873667Y-54291000D01*
X144686333Y-54291000D01*
X144502605Y-54254454D01*
X144329534Y-54182766D01*
X144252182Y-54131081D01*
X144173773Y-54078690D01*
X144041310Y-53946227D01*
X143937235Y-53790467D01*
X143937234Y-53790466D01*
X143865546Y-53617395D01*
X143829000Y-53433667D01*
X143829000Y-53246333D01*
X143865546Y-53062605D01*
X143937234Y-52889534D01*
X144035350Y-52742693D01*
X144041310Y-52733773D01*
X144173773Y-52601310D01*
X144329533Y-52497235D01*
X144329534Y-52497234D01*
X144502605Y-52425546D01*
X144686333Y-52389000D01*
X144873667Y-52389000D01*
X145057395Y-52425546D01*
G37*
G36*
X148271000Y-54291000D02*
G01*
X146369000Y-54291000D01*
X146369000Y-52389000D01*
X148271000Y-52389000D01*
X148271000Y-54291000D01*
G37*
G36*
X153947395Y-52425546D02*
G01*
X154120466Y-52497234D01*
X154120467Y-52497235D01*
X154276227Y-52601310D01*
X154408690Y-52733773D01*
X154414650Y-52742693D01*
X154512766Y-52889534D01*
X154584454Y-53062605D01*
X154621000Y-53246333D01*
X154621000Y-53433667D01*
X154584454Y-53617395D01*
X154512766Y-53790466D01*
X154512765Y-53790467D01*
X154408690Y-53946227D01*
X154276227Y-54078690D01*
X154197818Y-54131081D01*
X154120466Y-54182766D01*
X153947395Y-54254454D01*
X153763667Y-54291000D01*
X153576333Y-54291000D01*
X153392605Y-54254454D01*
X153219534Y-54182766D01*
X153142182Y-54131081D01*
X153063773Y-54078690D01*
X152931310Y-53946227D01*
X152827235Y-53790467D01*
X152827234Y-53790466D01*
X152755546Y-53617395D01*
X152719000Y-53433667D01*
X152719000Y-53246333D01*
X152755546Y-53062605D01*
X152827234Y-52889534D01*
X152925350Y-52742693D01*
X152931310Y-52733773D01*
X153063773Y-52601310D01*
X153219533Y-52497235D01*
X153219534Y-52497234D01*
X153392605Y-52425546D01*
X153576333Y-52389000D01*
X153763667Y-52389000D01*
X153947395Y-52425546D01*
G37*
G36*
X157161000Y-54291000D02*
G01*
X155259000Y-54291000D01*
X155259000Y-52389000D01*
X157161000Y-52389000D01*
X157161000Y-54291000D01*
G37*
G36*
X139030481Y-51323183D02*
G01*
X139065419Y-51333782D01*
X139097619Y-51350993D01*
X139125844Y-51374156D01*
X139149007Y-51402381D01*
X139166218Y-51434581D01*
X139176817Y-51469519D01*
X139181000Y-51511996D01*
X139181000Y-52628004D01*
X139176817Y-52670481D01*
X139166218Y-52705419D01*
X139149007Y-52737619D01*
X139125844Y-52765844D01*
X139097619Y-52789007D01*
X139065419Y-52806218D01*
X139030481Y-52816817D01*
X138988004Y-52821000D01*
X137871996Y-52821000D01*
X137829519Y-52816817D01*
X137794581Y-52806218D01*
X137762381Y-52789007D01*
X137734156Y-52765844D01*
X137710993Y-52737619D01*
X137693782Y-52705419D01*
X137683183Y-52670481D01*
X137679000Y-52628004D01*
X137679000Y-51511996D01*
X137683183Y-51469519D01*
X137693782Y-51434581D01*
X137710993Y-51402381D01*
X137734156Y-51374156D01*
X137762381Y-51350993D01*
X137794581Y-51333782D01*
X137829519Y-51323183D01*
X137871996Y-51319000D01*
X138988004Y-51319000D01*
X139030481Y-51323183D01*
G37*
G36*
X131029059Y-51347860D02*
G01*
X131148435Y-51397307D01*
X131165732Y-51404472D01*
X131288735Y-51486660D01*
X131393340Y-51591265D01*
X131475528Y-51714268D01*
X131532140Y-51850941D01*
X131561000Y-51996033D01*
X131561000Y-52143967D01*
X131532140Y-52289059D01*
X131475528Y-52425732D01*
X131393340Y-52548735D01*
X131288735Y-52653340D01*
X131165732Y-52735528D01*
X131165731Y-52735529D01*
X131165730Y-52735529D01*
X131029059Y-52792140D01*
X130883968Y-52821000D01*
X130736032Y-52821000D01*
X130590941Y-52792140D01*
X130454270Y-52735529D01*
X130454269Y-52735529D01*
X130454268Y-52735528D01*
X130331265Y-52653340D01*
X130226660Y-52548735D01*
X130144472Y-52425732D01*
X130087860Y-52289059D01*
X130059000Y-52143967D01*
X130059000Y-51996033D01*
X130087860Y-51850941D01*
X130144472Y-51714268D01*
X130226660Y-51591265D01*
X130331265Y-51486660D01*
X130454268Y-51404472D01*
X130471566Y-51397307D01*
X130590941Y-51347860D01*
X130736032Y-51319000D01*
X130883968Y-51319000D01*
X131029059Y-51347860D01*
G37*
G36*
X136109059Y-51347860D02*
G01*
X136228435Y-51397307D01*
X136245732Y-51404472D01*
X136368735Y-51486660D01*
X136473340Y-51591265D01*
X136555528Y-51714268D01*
X136612140Y-51850941D01*
X136641000Y-51996033D01*
X136641000Y-52143967D01*
X136612140Y-52289059D01*
X136555528Y-52425732D01*
X136473340Y-52548735D01*
X136368735Y-52653340D01*
X136245732Y-52735528D01*
X136245731Y-52735529D01*
X136245730Y-52735529D01*
X136109059Y-52792140D01*
X135963968Y-52821000D01*
X135816032Y-52821000D01*
X135670941Y-52792140D01*
X135534270Y-52735529D01*
X135534269Y-52735529D01*
X135534268Y-52735528D01*
X135411265Y-52653340D01*
X135306660Y-52548735D01*
X135224472Y-52425732D01*
X135167860Y-52289059D01*
X135139000Y-52143967D01*
X135139000Y-51996033D01*
X135167860Y-51850941D01*
X135224472Y-51714268D01*
X135306660Y-51591265D01*
X135411265Y-51486660D01*
X135534268Y-51404472D01*
X135551566Y-51397307D01*
X135670941Y-51347860D01*
X135816032Y-51319000D01*
X135963968Y-51319000D01*
X136109059Y-51347860D01*
G37*
M02*
