G04 #@! TF.GenerationSoftware,KiCad,Pcbnew,(5.1.5)-3*
G04 #@! TF.CreationDate,2020-02-13T17:55:15+03:00*
G04 #@! TF.ProjectId,TV_led_driver,54565f6c-6564-45f6-9472-697665722e6b,rev?*
G04 #@! TF.SameCoordinates,Original*
G04 #@! TF.FileFunction,Legend,Bot*
G04 #@! TF.FilePolarity,Positive*
%FSLAX46Y46*%
G04 Gerber Fmt 4.6, Leading zero omitted, Abs format (unit mm)*
G04 Created by KiCad (PCBNEW (5.1.5)-3) date 2020-02-13 17:55:15*
%MOMM*%
%LPD*%
G04 APERTURE LIST*
%ADD10C,0.120000*%
%ADD11C,0.150000*%
G04 APERTURE END LIST*
D10*
X115570000Y-67310000D02*
X120650000Y-67310000D01*
X115570000Y-77470000D02*
X115570000Y-67310000D01*
X120650000Y-77470000D02*
X115570000Y-77470000D01*
X120650000Y-67310000D02*
X120650000Y-77470000D01*
X115570000Y-78740000D02*
X120650000Y-78740000D01*
X115570000Y-88900000D02*
X115570000Y-78740000D01*
X120650000Y-100330000D02*
X120650000Y-95250000D01*
X120650000Y-78740000D02*
X120650000Y-88900000D01*
X115570000Y-90170000D02*
X120650000Y-90170000D01*
X115570000Y-100330000D02*
X115570000Y-90170000D01*
X120650000Y-100330000D02*
X115570000Y-100330000D01*
X120650000Y-90170000D02*
X120650000Y-100330000D01*
X153884973Y-100809433D02*
G75*
G03X153884973Y-100809433I-4016093J0D01*
G01*
X143510000Y-92710000D02*
X143510000Y-90170000D01*
X151130000Y-92710000D02*
X143510000Y-92710000D01*
X151130000Y-90170000D02*
X151130000Y-92710000D01*
X143510000Y-90170000D02*
X151130000Y-90170000D01*
X143510000Y-86360000D02*
X143510000Y-83820000D01*
X151130000Y-86360000D02*
X143510000Y-86360000D01*
X151130000Y-83820000D02*
X151130000Y-86360000D01*
X143510000Y-83820000D02*
X151130000Y-83820000D01*
X147320000Y-81280000D02*
X152400000Y-81280000D01*
X147320000Y-71120000D02*
X147320000Y-81280000D01*
X152400000Y-71120000D02*
X147320000Y-71120000D01*
X166370000Y-92710000D02*
X152400000Y-92710000D01*
X166370000Y-59690000D02*
X166370000Y-92710000D01*
X152400000Y-59690000D02*
X166370000Y-59690000D01*
X152400000Y-92710000D02*
X152400000Y-59690000D01*
X140970000Y-111760000D02*
X140970000Y-119380000D01*
X125730000Y-111760000D02*
X140970000Y-111760000D01*
X125730000Y-119380000D02*
X125730000Y-111760000D01*
X156210000Y-107950000D02*
X156210000Y-119380000D01*
X143510000Y-107950000D02*
X156210000Y-107950000D01*
X143510000Y-119380000D02*
X143510000Y-107950000D01*
X167640000Y-97790000D02*
X166370000Y-97790000D01*
X157480000Y-113030000D02*
X167640000Y-113030000D01*
X157480000Y-97790000D02*
X157480000Y-113030000D01*
X166370000Y-97790000D02*
X157480000Y-97790000D01*
X148796092Y-64770000D02*
G75*
G03X148796092Y-64770000I-2746092J0D01*
G01*
X123190000Y-102870000D02*
X123190000Y-57150000D01*
X140970000Y-102870000D02*
X123190000Y-102870000D01*
X140970000Y-57150000D02*
X140970000Y-102870000D01*
X123190000Y-57150000D02*
X140970000Y-57150000D01*
D11*
X165552380Y-60676190D02*
X164552380Y-60676190D01*
X165028571Y-60676190D02*
X165028571Y-61247619D01*
X165552380Y-61247619D02*
X164552380Y-61247619D01*
X165504761Y-62104761D02*
X165552380Y-62009523D01*
X165552380Y-61819047D01*
X165504761Y-61723809D01*
X165409523Y-61676190D01*
X165028571Y-61676190D01*
X164933333Y-61723809D01*
X164885714Y-61819047D01*
X164885714Y-62009523D01*
X164933333Y-62104761D01*
X165028571Y-62152380D01*
X165123809Y-62152380D01*
X165219047Y-61676190D01*
X165552380Y-63009523D02*
X165028571Y-63009523D01*
X164933333Y-62961904D01*
X164885714Y-62866666D01*
X164885714Y-62676190D01*
X164933333Y-62580952D01*
X165504761Y-63009523D02*
X165552380Y-62914285D01*
X165552380Y-62676190D01*
X165504761Y-62580952D01*
X165409523Y-62533333D01*
X165314285Y-62533333D01*
X165219047Y-62580952D01*
X165171428Y-62676190D01*
X165171428Y-62914285D01*
X165123809Y-63009523D01*
X164885714Y-63342857D02*
X164885714Y-63723809D01*
X164552380Y-63485714D02*
X165409523Y-63485714D01*
X165504761Y-63533333D01*
X165552380Y-63628571D01*
X165552380Y-63723809D01*
X165504761Y-64009523D02*
X165552380Y-64104761D01*
X165552380Y-64295238D01*
X165504761Y-64390476D01*
X165409523Y-64438095D01*
X165361904Y-64438095D01*
X165266666Y-64390476D01*
X165219047Y-64295238D01*
X165219047Y-64152380D01*
X165171428Y-64057142D01*
X165076190Y-64009523D01*
X165028571Y-64009523D01*
X164933333Y-64057142D01*
X164885714Y-64152380D01*
X164885714Y-64295238D01*
X164933333Y-64390476D01*
X165552380Y-64866666D02*
X164885714Y-64866666D01*
X164552380Y-64866666D02*
X164600000Y-64819047D01*
X164647619Y-64866666D01*
X164600000Y-64914285D01*
X164552380Y-64866666D01*
X164647619Y-64866666D01*
X164885714Y-65342857D02*
X165552380Y-65342857D01*
X164980952Y-65342857D02*
X164933333Y-65390476D01*
X164885714Y-65485714D01*
X164885714Y-65628571D01*
X164933333Y-65723809D01*
X165028571Y-65771428D01*
X165552380Y-65771428D01*
X165552380Y-66247619D02*
X164552380Y-66247619D01*
X165171428Y-66342857D02*
X165552380Y-66628571D01*
X164885714Y-66628571D02*
X165266666Y-66247619D01*
X165647619Y-66819047D02*
X165647619Y-67580952D01*
X165552380Y-68342857D02*
X165552380Y-67771428D01*
X165552380Y-68057142D02*
X164552380Y-68057142D01*
X164695238Y-67961904D01*
X164790476Y-67866666D01*
X164838095Y-67771428D01*
X164552380Y-68676190D02*
X164552380Y-69295238D01*
X164933333Y-68961904D01*
X164933333Y-69104761D01*
X164980952Y-69200000D01*
X165028571Y-69247619D01*
X165123809Y-69295238D01*
X165361904Y-69295238D01*
X165457142Y-69247619D01*
X165504761Y-69200000D01*
X165552380Y-69104761D01*
X165552380Y-68819047D01*
X165504761Y-68723809D01*
X165457142Y-68676190D01*
X164647619Y-69676190D02*
X164600000Y-69723809D01*
X164552380Y-69819047D01*
X164552380Y-70057142D01*
X164600000Y-70152380D01*
X164647619Y-70200000D01*
X164742857Y-70247619D01*
X164838095Y-70247619D01*
X164980952Y-70200000D01*
X165552380Y-69628571D01*
X165552380Y-70247619D01*
X165647619Y-70438095D02*
X165647619Y-71200000D01*
X164552380Y-71342857D02*
X164552380Y-71961904D01*
X164933333Y-71628571D01*
X164933333Y-71771428D01*
X164980952Y-71866666D01*
X165028571Y-71914285D01*
X165123809Y-71961904D01*
X165361904Y-71961904D01*
X165457142Y-71914285D01*
X165504761Y-71866666D01*
X165552380Y-71771428D01*
X165552380Y-71485714D01*
X165504761Y-71390476D01*
X165457142Y-71342857D01*
X164647619Y-72342857D02*
X164600000Y-72390476D01*
X164552380Y-72485714D01*
X164552380Y-72723809D01*
X164600000Y-72819047D01*
X164647619Y-72866666D01*
X164742857Y-72914285D01*
X164838095Y-72914285D01*
X164980952Y-72866666D01*
X165552380Y-72295238D01*
X165552380Y-72914285D01*
X165552380Y-73247619D02*
X164885714Y-73771428D01*
X164885714Y-73247619D02*
X165552380Y-73771428D01*
X165552380Y-74676190D02*
X165552380Y-74104761D01*
X165552380Y-74390476D02*
X164552380Y-74390476D01*
X164695238Y-74295238D01*
X164790476Y-74200000D01*
X164838095Y-74104761D01*
X164885714Y-75533333D02*
X165552380Y-75533333D01*
X164504761Y-75295238D02*
X165219047Y-75057142D01*
X165219047Y-75676190D01*
X165552380Y-76057142D02*
X164885714Y-76057142D01*
X164980952Y-76057142D02*
X164933333Y-76104761D01*
X164885714Y-76200000D01*
X164885714Y-76342857D01*
X164933333Y-76438095D01*
X165028571Y-76485714D01*
X165552380Y-76485714D01*
X165028571Y-76485714D02*
X164933333Y-76533333D01*
X164885714Y-76628571D01*
X164885714Y-76771428D01*
X164933333Y-76866666D01*
X165028571Y-76914285D01*
X165552380Y-76914285D01*
X165552380Y-77390476D02*
X164885714Y-77390476D01*
X164980952Y-77390476D02*
X164933333Y-77438095D01*
X164885714Y-77533333D01*
X164885714Y-77676190D01*
X164933333Y-77771428D01*
X165028571Y-77819047D01*
X165552380Y-77819047D01*
X165028571Y-77819047D02*
X164933333Y-77866666D01*
X164885714Y-77961904D01*
X164885714Y-78104761D01*
X164933333Y-78200000D01*
X165028571Y-78247619D01*
X165552380Y-78247619D01*
X165647619Y-78485714D02*
X165647619Y-79247619D01*
X164647619Y-79438095D02*
X164600000Y-79485714D01*
X164552380Y-79580952D01*
X164552380Y-79819047D01*
X164600000Y-79914285D01*
X164647619Y-79961904D01*
X164742857Y-80009523D01*
X164838095Y-80009523D01*
X164980952Y-79961904D01*
X165552380Y-79390476D01*
X165552380Y-80009523D01*
X165552380Y-80342857D02*
X164885714Y-80866666D01*
X164885714Y-80342857D02*
X165552380Y-80866666D01*
X165028571Y-81580952D02*
X165028571Y-81247619D01*
X165552380Y-81247619D02*
X164552380Y-81247619D01*
X164552380Y-81723809D01*
X165552380Y-82104761D02*
X164885714Y-82104761D01*
X164552380Y-82104761D02*
X164600000Y-82057142D01*
X164647619Y-82104761D01*
X164600000Y-82152380D01*
X164552380Y-82104761D01*
X164647619Y-82104761D01*
X165552380Y-82485714D02*
X164885714Y-83009523D01*
X164885714Y-82485714D02*
X165552380Y-83009523D01*
X165552380Y-83819047D02*
X165028571Y-83819047D01*
X164933333Y-83771428D01*
X164885714Y-83676190D01*
X164885714Y-83485714D01*
X164933333Y-83390476D01*
X165504761Y-83819047D02*
X165552380Y-83723809D01*
X165552380Y-83485714D01*
X165504761Y-83390476D01*
X165409523Y-83342857D01*
X165314285Y-83342857D01*
X165219047Y-83390476D01*
X165171428Y-83485714D01*
X165171428Y-83723809D01*
X165123809Y-83819047D01*
X164885714Y-84152380D02*
X164885714Y-84533333D01*
X164552380Y-84295238D02*
X165409523Y-84295238D01*
X165504761Y-84342857D01*
X165552380Y-84438095D01*
X165552380Y-84533333D01*
X165552380Y-84866666D02*
X164885714Y-84866666D01*
X164552380Y-84866666D02*
X164600000Y-84819047D01*
X164647619Y-84866666D01*
X164600000Y-84914285D01*
X164552380Y-84866666D01*
X164647619Y-84866666D01*
X165552380Y-85485714D02*
X165504761Y-85390476D01*
X165457142Y-85342857D01*
X165361904Y-85295238D01*
X165076190Y-85295238D01*
X164980952Y-85342857D01*
X164933333Y-85390476D01*
X164885714Y-85485714D01*
X164885714Y-85628571D01*
X164933333Y-85723809D01*
X164980952Y-85771428D01*
X165076190Y-85819047D01*
X165361904Y-85819047D01*
X165457142Y-85771428D01*
X165504761Y-85723809D01*
X165552380Y-85628571D01*
X165552380Y-85485714D01*
X164885714Y-86247619D02*
X165552380Y-86247619D01*
X164980952Y-86247619D02*
X164933333Y-86295238D01*
X164885714Y-86390476D01*
X164885714Y-86533333D01*
X164933333Y-86628571D01*
X165028571Y-86676190D01*
X165552380Y-86676190D01*
X165552380Y-87676190D02*
X165552380Y-87104761D01*
X165552380Y-87390476D02*
X164552380Y-87390476D01*
X164695238Y-87295238D01*
X164790476Y-87200000D01*
X164838095Y-87104761D01*
X165457142Y-88104761D02*
X165504761Y-88152380D01*
X165552380Y-88104761D01*
X165504761Y-88057142D01*
X165457142Y-88104761D01*
X165552380Y-88104761D01*
X164552380Y-89057142D02*
X164552380Y-88580952D01*
X165028571Y-88533333D01*
X164980952Y-88580952D01*
X164933333Y-88676190D01*
X164933333Y-88914285D01*
X164980952Y-89009523D01*
X165028571Y-89057142D01*
X165123809Y-89104761D01*
X165361904Y-89104761D01*
X165457142Y-89057142D01*
X165504761Y-89009523D01*
X165552380Y-88914285D01*
X165552380Y-88676190D01*
X165504761Y-88580952D01*
X165457142Y-88533333D01*
X165552380Y-89533333D02*
X164885714Y-89533333D01*
X164980952Y-89533333D02*
X164933333Y-89580952D01*
X164885714Y-89676190D01*
X164885714Y-89819047D01*
X164933333Y-89914285D01*
X165028571Y-89961904D01*
X165552380Y-89961904D01*
X165028571Y-89961904D02*
X164933333Y-90009523D01*
X164885714Y-90104761D01*
X164885714Y-90247619D01*
X164933333Y-90342857D01*
X165028571Y-90390476D01*
X165552380Y-90390476D01*
X165552380Y-90866666D02*
X164885714Y-90866666D01*
X164980952Y-90866666D02*
X164933333Y-90914285D01*
X164885714Y-91009523D01*
X164885714Y-91152380D01*
X164933333Y-91247619D01*
X165028571Y-91295238D01*
X165552380Y-91295238D01*
X165028571Y-91295238D02*
X164933333Y-91342857D01*
X164885714Y-91438095D01*
X164885714Y-91580952D01*
X164933333Y-91676190D01*
X165028571Y-91723809D01*
X165552380Y-91723809D01*
X139243333Y-110847142D02*
X139290952Y-110894761D01*
X139433809Y-110942380D01*
X139529047Y-110942380D01*
X139671904Y-110894761D01*
X139767142Y-110799523D01*
X139814761Y-110704285D01*
X139862380Y-110513809D01*
X139862380Y-110370952D01*
X139814761Y-110180476D01*
X139767142Y-110085238D01*
X139671904Y-109990000D01*
X139529047Y-109942380D01*
X139433809Y-109942380D01*
X139290952Y-109990000D01*
X139243333Y-110037619D01*
X138671904Y-110942380D02*
X138767142Y-110894761D01*
X138814761Y-110847142D01*
X138862380Y-110751904D01*
X138862380Y-110466190D01*
X138814761Y-110370952D01*
X138767142Y-110323333D01*
X138671904Y-110275714D01*
X138529047Y-110275714D01*
X138433809Y-110323333D01*
X138386190Y-110370952D01*
X138338571Y-110466190D01*
X138338571Y-110751904D01*
X138386190Y-110847142D01*
X138433809Y-110894761D01*
X138529047Y-110942380D01*
X138671904Y-110942380D01*
X137910000Y-110275714D02*
X137910000Y-110942380D01*
X137910000Y-110370952D02*
X137862380Y-110323333D01*
X137767142Y-110275714D01*
X137624285Y-110275714D01*
X137529047Y-110323333D01*
X137481428Y-110418571D01*
X137481428Y-110942380D01*
X137005238Y-110275714D02*
X137005238Y-110942380D01*
X137005238Y-110370952D02*
X136957619Y-110323333D01*
X136862380Y-110275714D01*
X136719523Y-110275714D01*
X136624285Y-110323333D01*
X136576666Y-110418571D01*
X136576666Y-110942380D01*
X136338571Y-111037619D02*
X135576666Y-111037619D01*
X135148095Y-109942380D02*
X135052857Y-109942380D01*
X134957619Y-109990000D01*
X134910000Y-110037619D01*
X134862380Y-110132857D01*
X134814761Y-110323333D01*
X134814761Y-110561428D01*
X134862380Y-110751904D01*
X134910000Y-110847142D01*
X134957619Y-110894761D01*
X135052857Y-110942380D01*
X135148095Y-110942380D01*
X135243333Y-110894761D01*
X135290952Y-110847142D01*
X135338571Y-110751904D01*
X135386190Y-110561428D01*
X135386190Y-110323333D01*
X135338571Y-110132857D01*
X135290952Y-110037619D01*
X135243333Y-109990000D01*
X135148095Y-109942380D01*
X133862380Y-110942380D02*
X134433809Y-110942380D01*
X134148095Y-110942380D02*
X134148095Y-109942380D01*
X134243333Y-110085238D01*
X134338571Y-110180476D01*
X134433809Y-110228095D01*
X133529047Y-110942380D02*
X133005238Y-110275714D01*
X133529047Y-110275714D02*
X133005238Y-110942380D01*
X132433809Y-109942380D02*
X132338571Y-109942380D01*
X132243333Y-109990000D01*
X132195714Y-110037619D01*
X132148095Y-110132857D01*
X132100476Y-110323333D01*
X132100476Y-110561428D01*
X132148095Y-110751904D01*
X132195714Y-110847142D01*
X132243333Y-110894761D01*
X132338571Y-110942380D01*
X132433809Y-110942380D01*
X132529047Y-110894761D01*
X132576666Y-110847142D01*
X132624285Y-110751904D01*
X132671904Y-110561428D01*
X132671904Y-110323333D01*
X132624285Y-110132857D01*
X132576666Y-110037619D01*
X132529047Y-109990000D01*
X132433809Y-109942380D01*
X131243333Y-110275714D02*
X131243333Y-110942380D01*
X131481428Y-109894761D02*
X131719523Y-110609047D01*
X131100476Y-110609047D01*
X130957619Y-111037619D02*
X130195714Y-111037619D01*
X129957619Y-110942380D02*
X129957619Y-109942380D01*
X129624285Y-110656666D01*
X129290952Y-109942380D01*
X129290952Y-110942380D01*
X128386190Y-110942380D02*
X128386190Y-110418571D01*
X128433809Y-110323333D01*
X128529047Y-110275714D01*
X128719523Y-110275714D01*
X128814761Y-110323333D01*
X128386190Y-110894761D02*
X128481428Y-110942380D01*
X128719523Y-110942380D01*
X128814761Y-110894761D01*
X128862380Y-110799523D01*
X128862380Y-110704285D01*
X128814761Y-110609047D01*
X128719523Y-110561428D01*
X128481428Y-110561428D01*
X128386190Y-110513809D01*
X127767142Y-110942380D02*
X127862380Y-110894761D01*
X127910000Y-110799523D01*
X127910000Y-109942380D01*
X127005238Y-110894761D02*
X127100476Y-110942380D01*
X127290952Y-110942380D01*
X127386190Y-110894761D01*
X127433809Y-110799523D01*
X127433809Y-110418571D01*
X127386190Y-110323333D01*
X127290952Y-110275714D01*
X127100476Y-110275714D01*
X127005238Y-110323333D01*
X126957619Y-110418571D01*
X126957619Y-110513809D01*
X127433809Y-110609047D01*
X133743333Y-116352380D02*
X133743333Y-117066666D01*
X133790952Y-117209523D01*
X133886190Y-117304761D01*
X134029047Y-117352380D01*
X134124285Y-117352380D01*
X133314761Y-116447619D02*
X133267142Y-116400000D01*
X133171904Y-116352380D01*
X132933809Y-116352380D01*
X132838571Y-116400000D01*
X132790952Y-116447619D01*
X132743333Y-116542857D01*
X132743333Y-116638095D01*
X132790952Y-116780952D01*
X133362380Y-117352380D01*
X132743333Y-117352380D01*
X130976666Y-79295714D02*
X130976666Y-79771904D01*
X131262380Y-79200476D02*
X130262380Y-79533809D01*
X131262380Y-79867142D01*
X131262380Y-80724285D02*
X131262380Y-80152857D01*
X131262380Y-80438571D02*
X130262380Y-80438571D01*
X130405238Y-80343333D01*
X130500476Y-80248095D01*
X130548095Y-80152857D01*
M02*
