G04 #@! TF.GenerationSoftware,KiCad,Pcbnew,(5.1.5)-3*
G04 #@! TF.CreationDate,2020-02-13T17:55:15+03:00*
G04 #@! TF.ProjectId,TV_led_driver,54565f6c-6564-45f6-9472-697665722e6b,rev?*
G04 #@! TF.SameCoordinates,Original*
G04 #@! TF.FileFunction,Copper,L1,Top*
G04 #@! TF.FilePolarity,Positive*
%FSLAX46Y46*%
G04 Gerber Fmt 4.6, Leading zero omitted, Abs format (unit mm)*
G04 Created by KiCad (PCBNEW (5.1.5)-3) date 2020-02-13 17:55:15*
%MOMM*%
%LPD*%
G04 APERTURE LIST*
%ADD10C,5.000000*%
%ADD11C,3.000000*%
%ADD12C,1.700000*%
%ADD13C,2.000000*%
%ADD14O,2.000000X1.905000*%
%ADD15R,2.000000X1.905000*%
%ADD16O,1.700000X1.950000*%
%ADD17C,0.100000*%
%ADD18O,2.000000X3.500000*%
%ADD19O,3.300000X2.000000*%
%ADD20R,4.000000X2.000000*%
%ADD21C,1.600000*%
%ADD22R,1.600000X1.600000*%
%ADD23O,1.600000X1.600000*%
%ADD24C,1.800000*%
%ADD25R,1.800000X1.800000*%
%ADD26C,1.400000*%
%ADD27C,0.250000*%
%ADD28C,0.254000*%
G04 APERTURE END LIST*
D10*
X113030000Y-118110000D03*
X163830000Y-118110000D03*
X163830000Y-53340000D03*
X113030000Y-53340000D03*
D11*
X157480000Y-67300000D03*
X157480000Y-85100000D03*
D12*
X161290000Y-101220000D03*
X161290000Y-105220000D03*
X161290000Y-109220000D03*
D13*
X165540000Y-111220000D03*
X165540000Y-99220000D03*
X159540000Y-99220000D03*
X159540000Y-111220000D03*
D14*
X149000000Y-78740000D03*
X149000000Y-76200000D03*
D15*
X149000000Y-73660000D03*
D14*
X119380000Y-92710000D03*
X119380000Y-95250000D03*
D15*
X119380000Y-97790000D03*
D14*
X119380000Y-81280000D03*
X119380000Y-83820000D03*
D15*
X119380000Y-86360000D03*
D14*
X119380000Y-69850000D03*
X119380000Y-72390000D03*
D15*
X119380000Y-74930000D03*
D16*
X129660000Y-114300000D03*
X132160000Y-114300000D03*
X134660000Y-114300000D03*
G04 #@! TA.AperFunction,ComponentPad*
D17*
G36*
X137784504Y-113326204D02*
G01*
X137808773Y-113329804D01*
X137832571Y-113335765D01*
X137855671Y-113344030D01*
X137877849Y-113354520D01*
X137898893Y-113367133D01*
X137918598Y-113381747D01*
X137936777Y-113398223D01*
X137953253Y-113416402D01*
X137967867Y-113436107D01*
X137980480Y-113457151D01*
X137990970Y-113479329D01*
X137999235Y-113502429D01*
X138005196Y-113526227D01*
X138008796Y-113550496D01*
X138010000Y-113575000D01*
X138010000Y-115025000D01*
X138008796Y-115049504D01*
X138005196Y-115073773D01*
X137999235Y-115097571D01*
X137990970Y-115120671D01*
X137980480Y-115142849D01*
X137967867Y-115163893D01*
X137953253Y-115183598D01*
X137936777Y-115201777D01*
X137918598Y-115218253D01*
X137898893Y-115232867D01*
X137877849Y-115245480D01*
X137855671Y-115255970D01*
X137832571Y-115264235D01*
X137808773Y-115270196D01*
X137784504Y-115273796D01*
X137760000Y-115275000D01*
X136560000Y-115275000D01*
X136535496Y-115273796D01*
X136511227Y-115270196D01*
X136487429Y-115264235D01*
X136464329Y-115255970D01*
X136442151Y-115245480D01*
X136421107Y-115232867D01*
X136401402Y-115218253D01*
X136383223Y-115201777D01*
X136366747Y-115183598D01*
X136352133Y-115163893D01*
X136339520Y-115142849D01*
X136329030Y-115120671D01*
X136320765Y-115097571D01*
X136314804Y-115073773D01*
X136311204Y-115049504D01*
X136310000Y-115025000D01*
X136310000Y-113575000D01*
X136311204Y-113550496D01*
X136314804Y-113526227D01*
X136320765Y-113502429D01*
X136329030Y-113479329D01*
X136339520Y-113457151D01*
X136352133Y-113436107D01*
X136366747Y-113416402D01*
X136383223Y-113398223D01*
X136401402Y-113381747D01*
X136421107Y-113367133D01*
X136442151Y-113354520D01*
X136464329Y-113344030D01*
X136487429Y-113335765D01*
X136511227Y-113329804D01*
X136535496Y-113326204D01*
X136560000Y-113325000D01*
X137760000Y-113325000D01*
X137784504Y-113326204D01*
G37*
G04 #@! TD.AperFunction*
D18*
X154360000Y-116220000D03*
X145360000Y-116220000D03*
D19*
X149860000Y-115220000D03*
D20*
X149860000Y-109220000D03*
D21*
X147280000Y-64770000D03*
D22*
X144780000Y-64770000D03*
D21*
X149780000Y-91440000D03*
X144780000Y-91440000D03*
X149780000Y-85090000D03*
X144780000Y-85090000D03*
X149860000Y-102560000D03*
D22*
X149860000Y-99060000D03*
D23*
X113030000Y-62230000D03*
D21*
X120650000Y-62230000D03*
D23*
X118110000Y-54610000D03*
D21*
X125730000Y-54610000D03*
D24*
X153670000Y-53340000D03*
D25*
X156210000Y-53340000D03*
D24*
X144780000Y-53340000D03*
D25*
X147320000Y-53340000D03*
D26*
X130810000Y-52070000D03*
X135890000Y-52070000D03*
G04 #@! TA.AperFunction,ComponentPad*
D17*
G36*
X138905226Y-51371200D02*
G01*
X138929417Y-51374788D01*
X138953139Y-51380730D01*
X138976165Y-51388969D01*
X138998272Y-51399425D01*
X139019248Y-51411998D01*
X139038891Y-51426566D01*
X139057011Y-51442989D01*
X139073434Y-51461109D01*
X139088002Y-51480752D01*
X139100575Y-51501728D01*
X139111031Y-51523835D01*
X139119270Y-51546861D01*
X139125212Y-51570583D01*
X139128800Y-51594774D01*
X139130000Y-51619200D01*
X139130000Y-52520800D01*
X139128800Y-52545226D01*
X139125212Y-52569417D01*
X139119270Y-52593139D01*
X139111031Y-52616165D01*
X139100575Y-52638272D01*
X139088002Y-52659248D01*
X139073434Y-52678891D01*
X139057011Y-52697011D01*
X139038891Y-52713434D01*
X139019248Y-52728002D01*
X138998272Y-52740575D01*
X138976165Y-52751031D01*
X138953139Y-52759270D01*
X138929417Y-52765212D01*
X138905226Y-52768800D01*
X138880800Y-52770000D01*
X137979200Y-52770000D01*
X137954774Y-52768800D01*
X137930583Y-52765212D01*
X137906861Y-52759270D01*
X137883835Y-52751031D01*
X137861728Y-52740575D01*
X137840752Y-52728002D01*
X137821109Y-52713434D01*
X137802989Y-52697011D01*
X137786566Y-52678891D01*
X137771998Y-52659248D01*
X137759425Y-52638272D01*
X137748969Y-52616165D01*
X137740730Y-52593139D01*
X137734788Y-52569417D01*
X137731200Y-52545226D01*
X137730000Y-52520800D01*
X137730000Y-51619200D01*
X137731200Y-51594774D01*
X137734788Y-51570583D01*
X137740730Y-51546861D01*
X137748969Y-51523835D01*
X137759425Y-51501728D01*
X137771998Y-51480752D01*
X137786566Y-51461109D01*
X137802989Y-51442989D01*
X137821109Y-51426566D01*
X137840752Y-51411998D01*
X137861728Y-51399425D01*
X137883835Y-51388969D01*
X137906861Y-51380730D01*
X137930583Y-51374788D01*
X137954774Y-51371200D01*
X137979200Y-51370000D01*
X138880800Y-51370000D01*
X138905226Y-51371200D01*
G37*
G04 #@! TD.AperFunction*
D22*
X124460000Y-60960000D03*
D23*
X139700000Y-93980000D03*
X124460000Y-63500000D03*
X139700000Y-91440000D03*
X124460000Y-66040000D03*
X139700000Y-88900000D03*
X124460000Y-68580000D03*
X139700000Y-86360000D03*
X124460000Y-71120000D03*
X139700000Y-83820000D03*
X124460000Y-73660000D03*
X139700000Y-81280000D03*
X124460000Y-76200000D03*
X139700000Y-78740000D03*
X124460000Y-78740000D03*
X139700000Y-76200000D03*
X124460000Y-81280000D03*
X139700000Y-73660000D03*
X124460000Y-83820000D03*
X139700000Y-71120000D03*
X124460000Y-86360000D03*
X139700000Y-68580000D03*
X124460000Y-88900000D03*
X139700000Y-66040000D03*
X124460000Y-91440000D03*
X139700000Y-63500000D03*
X124460000Y-93980000D03*
X139700000Y-60960000D03*
X124460000Y-96520000D03*
X139700000Y-96520000D03*
D27*
X148918600Y-97930300D02*
X148734600Y-98114300D01*
X148734600Y-98114300D02*
X148734600Y-101434600D01*
X148734600Y-101434600D02*
X149860000Y-102560000D01*
X150905200Y-92565400D02*
X162515200Y-104175400D01*
X162515200Y-104175400D02*
X162515200Y-105688600D01*
X162515200Y-105688600D02*
X161749500Y-106454300D01*
X161749500Y-106454300D02*
X160471200Y-106454300D01*
X160471200Y-106454300D02*
X151947200Y-97930300D01*
X151947200Y-97930300D02*
X148918600Y-97930300D01*
X148918600Y-97930300D02*
X144780000Y-93791700D01*
X144780000Y-93791700D02*
X144780000Y-91440000D01*
X150905200Y-92565400D02*
X150914000Y-92556600D01*
X150914000Y-92556600D02*
X150914000Y-90301300D01*
X150914000Y-90301300D02*
X148623800Y-88011100D01*
X148623800Y-88011100D02*
X148623800Y-81677700D01*
X148623800Y-81677700D02*
X150364700Y-79936800D01*
X150364700Y-79936800D02*
X150364700Y-77564700D01*
X150364700Y-77564700D02*
X149000000Y-76200000D01*
X119380000Y-92710000D02*
X119380000Y-93049000D01*
X119380000Y-93049000D02*
X124008400Y-97677400D01*
X124008400Y-97677400D02*
X124985300Y-97677400D01*
X124985300Y-97677400D02*
X137806000Y-84856700D01*
X137806000Y-84856700D02*
X137806000Y-61261100D01*
X137806000Y-61261100D02*
X139264100Y-59803000D01*
X139264100Y-59803000D02*
X140159200Y-59803000D01*
X140159200Y-59803000D02*
X143654600Y-63298400D01*
X143654600Y-63298400D02*
X143654600Y-79877100D01*
X143654600Y-79877100D02*
X147723100Y-83945600D01*
X147723100Y-83945600D02*
X147723100Y-90974600D01*
X147723100Y-90974600D02*
X149313900Y-92565400D01*
X149313900Y-92565400D02*
X150905200Y-92565400D01*
X148697400Y-109220000D02*
X149860000Y-108057400D01*
X149860000Y-108057400D02*
X149860000Y-102560000D01*
X148697400Y-109220000D02*
X147534700Y-109220000D01*
X149860000Y-109220000D02*
X148697400Y-109220000D01*
X149000000Y-76200000D02*
X147280000Y-74480000D01*
X147280000Y-74480000D02*
X147280000Y-64770000D01*
X119546700Y-70353900D02*
X116649400Y-73251200D01*
X116649400Y-73251200D02*
X116649400Y-104449300D01*
X116649400Y-104449300D02*
X129258100Y-117058000D01*
X129258100Y-117058000D02*
X139696700Y-117058000D01*
X139696700Y-117058000D02*
X147534700Y-109220000D01*
X119546700Y-70353900D02*
X119380000Y-70187200D01*
X119380000Y-70187200D02*
X119380000Y-69850000D01*
X124460000Y-68580000D02*
X125585300Y-69705300D01*
X125585300Y-69705300D02*
X125585300Y-74141200D01*
X125585300Y-74141200D02*
X124931300Y-74795200D01*
X124931300Y-74795200D02*
X123988000Y-74795200D01*
X123988000Y-74795200D02*
X119546700Y-70353900D01*
X146094700Y-53340000D02*
X146094700Y-52880500D01*
X146094700Y-52880500D02*
X145284200Y-52070000D01*
X145284200Y-52070000D02*
X138430000Y-52070000D01*
X144780000Y-91440000D02*
X144780000Y-85090000D01*
X147280000Y-64770000D02*
X154984700Y-57065300D01*
X154984700Y-57065300D02*
X154984700Y-53340000D01*
X147320000Y-53340000D02*
X146094700Y-53340000D01*
X119380000Y-81280000D02*
X118018400Y-82641600D01*
X118018400Y-82641600D02*
X118018400Y-90070600D01*
X118018400Y-90070600D02*
X119380000Y-91432200D01*
X119380000Y-92710000D02*
X119380000Y-91432200D01*
X147320000Y-53340000D02*
X148545300Y-53340000D01*
X156210000Y-53340000D02*
X154984700Y-53340000D01*
X154984700Y-53340000D02*
X154984700Y-52880500D01*
X154984700Y-52880500D02*
X154218900Y-52114700D01*
X154218900Y-52114700D02*
X149770600Y-52114700D01*
X149770600Y-52114700D02*
X148545300Y-53340000D01*
X124460000Y-71120000D02*
X124460000Y-69994700D01*
X124460000Y-69994700D02*
X124178700Y-69994700D01*
X124178700Y-69994700D02*
X118110000Y-63926000D01*
X118110000Y-63926000D02*
X118110000Y-54610000D01*
X113030000Y-62230000D02*
X114155300Y-62230000D01*
X124460000Y-73660000D02*
X124460000Y-72534700D01*
X124460000Y-72534700D02*
X124208900Y-72534700D01*
X124208900Y-72534700D02*
X114155300Y-62481100D01*
X114155300Y-62481100D02*
X114155300Y-62230000D01*
X130810000Y-52070000D02*
X125985600Y-52070000D01*
X125985600Y-52070000D02*
X119022000Y-59033600D01*
X119022000Y-59033600D02*
X119022000Y-62930200D01*
X119022000Y-62930200D02*
X123401800Y-67310000D01*
X123401800Y-67310000D02*
X124783700Y-67310000D01*
X124783700Y-67310000D02*
X126054600Y-68580900D01*
X126054600Y-68580900D02*
X126054600Y-89001400D01*
X126054600Y-89001400D02*
X124741300Y-90314700D01*
X124741300Y-90314700D02*
X124460000Y-90314700D01*
X124460000Y-91440000D02*
X124460000Y-90314700D01*
X124460000Y-93980000D02*
X124460000Y-92854700D01*
X119380000Y-74930000D02*
X119380000Y-76207800D01*
X119380000Y-76207800D02*
X123334700Y-80162500D01*
X123334700Y-80162500D02*
X123334700Y-92010800D01*
X123334700Y-92010800D02*
X124178600Y-92854700D01*
X124178600Y-92854700D02*
X124460000Y-92854700D01*
X144362800Y-83910100D02*
X145249100Y-83910100D01*
X145249100Y-83910100D02*
X146825500Y-85486500D01*
X146825500Y-85486500D02*
X146825500Y-90755600D01*
X146825500Y-90755600D02*
X146825600Y-90755600D01*
X146825600Y-90755600D02*
X161290000Y-105220000D01*
X144362800Y-83910100D02*
X142422600Y-85850300D01*
X142422600Y-85850300D02*
X142422600Y-103593400D01*
X142422600Y-103593400D02*
X133410000Y-112606000D01*
X133410000Y-112606000D02*
X133410000Y-114913100D01*
X133410000Y-114913100D02*
X132669300Y-115653800D01*
X132669300Y-115653800D02*
X131013800Y-115653800D01*
X131013800Y-115653800D02*
X129660000Y-114300000D01*
X144362800Y-83910100D02*
X140825300Y-80372600D01*
X140825300Y-80372600D02*
X140825300Y-62929200D01*
X140825300Y-62929200D02*
X139981400Y-62085300D01*
X139981400Y-62085300D02*
X139700000Y-62085300D01*
X139700000Y-60960000D02*
X139700000Y-62085300D01*
X119380000Y-86360000D02*
X119380000Y-87637800D01*
X124460000Y-95394700D02*
X124178600Y-95394700D01*
X124178600Y-95394700D02*
X119380000Y-90596100D01*
X119380000Y-90596100D02*
X119380000Y-87637800D01*
X124460000Y-96520000D02*
X124460000Y-95394700D01*
X119380000Y-97790000D02*
X120705300Y-97790000D01*
X139700000Y-96520000D02*
X138574700Y-96520000D01*
X138574700Y-96520000D02*
X136951500Y-98143200D01*
X136951500Y-98143200D02*
X121058500Y-98143200D01*
X121058500Y-98143200D02*
X120705300Y-97790000D01*
X132160000Y-114300000D02*
X130984700Y-114300000D01*
X130984700Y-114300000D02*
X130984700Y-113124700D01*
X130984700Y-113124700D02*
X118054600Y-100194600D01*
X118054600Y-100194600D02*
X118054600Y-96575400D01*
X118054600Y-96575400D02*
X119380000Y-95250000D01*
X134660000Y-114300000D02*
X132855800Y-116104200D01*
X132855800Y-116104200D02*
X129625800Y-116104200D01*
X129625800Y-116104200D02*
X117550200Y-104028600D01*
X117550200Y-104028600D02*
X117550200Y-81197300D01*
X117550200Y-81197300D02*
X118751600Y-79995900D01*
X118751600Y-79995900D02*
X119965200Y-79995900D01*
X119965200Y-79995900D02*
X120747700Y-80778400D01*
X120747700Y-80778400D02*
X120747700Y-82452300D01*
X120747700Y-82452300D02*
X119380000Y-83820000D01*
X137160000Y-114300000D02*
X134905400Y-116554600D01*
X134905400Y-116554600D02*
X129439300Y-116554600D01*
X129439300Y-116554600D02*
X117099800Y-104215100D01*
X117099800Y-104215100D02*
X117099800Y-74670200D01*
X117099800Y-74670200D02*
X119380000Y-72390000D01*
X156029900Y-109220000D02*
X156029900Y-111025400D01*
X156029900Y-111025400D02*
X151835300Y-115220000D01*
X150985300Y-99060000D02*
X156029900Y-104104600D01*
X156029900Y-104104600D02*
X156029900Y-109220000D01*
X156029900Y-109220000D02*
X161290000Y-109220000D01*
X149860000Y-115220000D02*
X151835300Y-115220000D01*
X149860000Y-99060000D02*
X150985300Y-99060000D01*
X149780000Y-85090000D02*
X150815000Y-84055000D01*
X150815000Y-84055000D02*
X150815000Y-75475000D01*
X150815000Y-75475000D02*
X149000000Y-73660000D01*
X161290000Y-109220000D02*
X162965600Y-107544400D01*
X162965600Y-107544400D02*
X162965600Y-98275600D01*
X162965600Y-98275600D02*
X149780000Y-85090000D01*
X144780000Y-64770000D02*
X144780000Y-63644700D01*
X144780000Y-63644700D02*
X140487900Y-59352600D01*
X140487900Y-59352600D02*
X129561800Y-59352600D01*
X129561800Y-59352600D02*
X126829000Y-62085400D01*
X126829000Y-62085400D02*
X123561400Y-62085400D01*
X123561400Y-62085400D02*
X122282300Y-63364500D01*
X122282300Y-63364500D02*
X120175900Y-63364500D01*
X120175900Y-63364500D02*
X119472400Y-62661000D01*
X119472400Y-62661000D02*
X119472400Y-59220100D01*
X119472400Y-59220100D02*
X125264400Y-53428100D01*
X125264400Y-53428100D02*
X134531900Y-53428100D01*
X134531900Y-53428100D02*
X135890000Y-52070000D01*
X149000000Y-78740000D02*
X144780000Y-74520000D01*
X144780000Y-74520000D02*
X144780000Y-64770000D01*
X149000000Y-78740000D02*
X149000000Y-80017800D01*
X149780000Y-91440000D02*
X148173500Y-89833500D01*
X148173500Y-89833500D02*
X148173500Y-80844300D01*
X148173500Y-80844300D02*
X149000000Y-80017800D01*
X144780000Y-53340000D02*
X143510000Y-54610000D01*
X143510000Y-54610000D02*
X125730000Y-54610000D01*
X153670000Y-53340000D02*
X151274600Y-55735400D01*
X151274600Y-55735400D02*
X127144600Y-55735400D01*
X127144600Y-55735400D02*
X120650000Y-62230000D01*
D28*
G36*
X165464545Y-50228909D02*
G01*
X165815208Y-50334780D01*
X166138625Y-50506744D01*
X166422484Y-50738254D01*
X166655965Y-51020486D01*
X166830183Y-51342695D01*
X166938502Y-51692614D01*
X166980000Y-52087443D01*
X166980001Y-98432191D01*
X166809987Y-98177748D01*
X166582252Y-97950013D01*
X166314463Y-97771082D01*
X166016912Y-97647832D01*
X165701033Y-97585000D01*
X165378967Y-97585000D01*
X165063088Y-97647832D01*
X164765537Y-97771082D01*
X164497748Y-97950013D01*
X164270013Y-98177748D01*
X164091082Y-98445537D01*
X163967832Y-98743088D01*
X163905000Y-99058967D01*
X163905000Y-99381033D01*
X163967832Y-99696912D01*
X164091082Y-99994463D01*
X164270013Y-100262252D01*
X164497748Y-100489987D01*
X164765537Y-100668918D01*
X165063088Y-100792168D01*
X165378967Y-100855000D01*
X165701033Y-100855000D01*
X166016912Y-100792168D01*
X166314463Y-100668918D01*
X166582252Y-100489987D01*
X166809987Y-100262252D01*
X166980001Y-100007809D01*
X166980001Y-110432192D01*
X166809987Y-110177748D01*
X166582252Y-109950013D01*
X166314463Y-109771082D01*
X166016912Y-109647832D01*
X165701033Y-109585000D01*
X165378967Y-109585000D01*
X165063088Y-109647832D01*
X164765537Y-109771082D01*
X164497748Y-109950013D01*
X164270013Y-110177748D01*
X164091082Y-110445537D01*
X163967832Y-110743088D01*
X163905000Y-111058967D01*
X163905000Y-111381033D01*
X163967832Y-111696912D01*
X164091082Y-111994463D01*
X164270013Y-112262252D01*
X164497748Y-112489987D01*
X164765537Y-112668918D01*
X165063088Y-112792168D01*
X165378967Y-112855000D01*
X165701033Y-112855000D01*
X166016912Y-112792168D01*
X166314463Y-112668918D01*
X166582252Y-112489987D01*
X166809987Y-112262252D01*
X166980001Y-112007808D01*
X166980001Y-119347711D01*
X166941091Y-119744545D01*
X166835220Y-120095206D01*
X166663257Y-120418623D01*
X166431748Y-120702482D01*
X166149514Y-120935965D01*
X165827304Y-121110184D01*
X165477385Y-121218502D01*
X165082557Y-121260000D01*
X158140000Y-121260000D01*
X158140000Y-119412418D01*
X158143193Y-119380000D01*
X158130450Y-119250617D01*
X158092710Y-119126207D01*
X158031425Y-119011550D01*
X157948948Y-118911052D01*
X157848450Y-118828575D01*
X157733793Y-118767290D01*
X157609383Y-118729550D01*
X157549123Y-118723615D01*
X157480000Y-118716807D01*
X157447581Y-118720000D01*
X151206125Y-118720000D01*
X151239853Y-118638574D01*
X151295000Y-118361335D01*
X151295000Y-118078665D01*
X151239853Y-117801426D01*
X151131680Y-117540273D01*
X150974637Y-117305241D01*
X150774759Y-117105363D01*
X150539727Y-116948320D01*
X150314432Y-116855000D01*
X150590322Y-116855000D01*
X150830516Y-116831343D01*
X151138715Y-116737852D01*
X151422752Y-116586031D01*
X151671714Y-116381714D01*
X151876031Y-116132752D01*
X151962405Y-115971158D01*
X151984286Y-115969003D01*
X152127547Y-115925546D01*
X152259576Y-115854974D01*
X152375301Y-115760001D01*
X152399104Y-115730997D01*
X152725000Y-115405101D01*
X152725000Y-117050322D01*
X152748657Y-117290516D01*
X152842149Y-117598715D01*
X152993970Y-117882752D01*
X153198287Y-118131714D01*
X153447249Y-118336031D01*
X153731286Y-118487852D01*
X154039485Y-118581343D01*
X154360000Y-118612911D01*
X154680516Y-118581343D01*
X154988715Y-118487852D01*
X155272752Y-118336031D01*
X155521714Y-118131714D01*
X155726031Y-117882752D01*
X155769605Y-117801229D01*
X160695000Y-117801229D01*
X160695000Y-118418771D01*
X160815476Y-119024446D01*
X161051799Y-119594979D01*
X161394886Y-120108446D01*
X161831554Y-120545114D01*
X162345021Y-120888201D01*
X162915554Y-121124524D01*
X163521229Y-121245000D01*
X164138771Y-121245000D01*
X164744446Y-121124524D01*
X165314979Y-120888201D01*
X165828446Y-120545114D01*
X166265114Y-120108446D01*
X166608201Y-119594979D01*
X166844524Y-119024446D01*
X166965000Y-118418771D01*
X166965000Y-117801229D01*
X166844524Y-117195554D01*
X166608201Y-116625021D01*
X166265114Y-116111554D01*
X165828446Y-115674886D01*
X165314979Y-115331799D01*
X164744446Y-115095476D01*
X164138771Y-114975000D01*
X163521229Y-114975000D01*
X162915554Y-115095476D01*
X162345021Y-115331799D01*
X161831554Y-115674886D01*
X161394886Y-116111554D01*
X161051799Y-116625021D01*
X160815476Y-117195554D01*
X160695000Y-117801229D01*
X155769605Y-117801229D01*
X155877852Y-117598715D01*
X155971343Y-117290516D01*
X155995000Y-117050322D01*
X155995000Y-115389678D01*
X155971343Y-115149484D01*
X155877852Y-114841285D01*
X155726031Y-114557248D01*
X155521714Y-114308286D01*
X155272751Y-114103969D01*
X154988714Y-113952148D01*
X154680515Y-113858657D01*
X154360000Y-113827089D01*
X154296786Y-113833315D01*
X156540903Y-111589199D01*
X156569901Y-111565401D01*
X156664874Y-111449676D01*
X156735446Y-111317647D01*
X156778903Y-111174386D01*
X156789900Y-111062733D01*
X156789900Y-111062724D01*
X156793576Y-111025401D01*
X156789900Y-110988078D01*
X156789900Y-109980000D01*
X158467761Y-109980000D01*
X158270013Y-110177748D01*
X158091082Y-110445537D01*
X157967832Y-110743088D01*
X157905000Y-111058967D01*
X157905000Y-111381033D01*
X157967832Y-111696912D01*
X158091082Y-111994463D01*
X158270013Y-112262252D01*
X158497748Y-112489987D01*
X158765537Y-112668918D01*
X159063088Y-112792168D01*
X159378967Y-112855000D01*
X159701033Y-112855000D01*
X160016912Y-112792168D01*
X160314463Y-112668918D01*
X160582252Y-112489987D01*
X160809987Y-112262252D01*
X160988918Y-111994463D01*
X161112168Y-111696912D01*
X161175000Y-111381033D01*
X161175000Y-111058967D01*
X161112168Y-110743088D01*
X161092140Y-110694736D01*
X161143740Y-110705000D01*
X161436260Y-110705000D01*
X161723158Y-110647932D01*
X161993411Y-110535990D01*
X162236632Y-110373475D01*
X162443475Y-110166632D01*
X162605990Y-109923411D01*
X162717932Y-109653158D01*
X162775000Y-109366260D01*
X162775000Y-109073740D01*
X162731210Y-108853592D01*
X163476604Y-108108198D01*
X163505601Y-108084401D01*
X163600574Y-107968676D01*
X163671146Y-107836647D01*
X163714603Y-107693386D01*
X163725600Y-107581733D01*
X163725600Y-107581724D01*
X163729276Y-107544401D01*
X163725600Y-107507078D01*
X163725600Y-98312922D01*
X163729276Y-98275599D01*
X163725600Y-98238276D01*
X163725600Y-98238267D01*
X163714603Y-98126614D01*
X163671146Y-97983353D01*
X163600574Y-97851324D01*
X163505601Y-97735599D01*
X163476603Y-97711801D01*
X151178688Y-85413887D01*
X151215000Y-85231335D01*
X151215000Y-84948665D01*
X151203276Y-84889721D01*
X155345000Y-84889721D01*
X155345000Y-85310279D01*
X155427047Y-85722756D01*
X155587988Y-86111302D01*
X155821637Y-86460983D01*
X156119017Y-86758363D01*
X156468698Y-86992012D01*
X156857244Y-87152953D01*
X157269721Y-87235000D01*
X157690279Y-87235000D01*
X158102756Y-87152953D01*
X158491302Y-86992012D01*
X158840983Y-86758363D01*
X159138363Y-86460983D01*
X159372012Y-86111302D01*
X159532953Y-85722756D01*
X159615000Y-85310279D01*
X159615000Y-84889721D01*
X159532953Y-84477244D01*
X159372012Y-84088698D01*
X159138363Y-83739017D01*
X158840983Y-83441637D01*
X158491302Y-83207988D01*
X158102756Y-83047047D01*
X157690279Y-82965000D01*
X157269721Y-82965000D01*
X156857244Y-83047047D01*
X156468698Y-83207988D01*
X156119017Y-83441637D01*
X155821637Y-83739017D01*
X155587988Y-84088698D01*
X155427047Y-84477244D01*
X155345000Y-84889721D01*
X151203276Y-84889721D01*
X151178688Y-84766114D01*
X151326004Y-84618798D01*
X151355001Y-84595001D01*
X151411464Y-84526201D01*
X151449974Y-84479277D01*
X151520546Y-84347247D01*
X151551781Y-84244276D01*
X151564003Y-84203986D01*
X151575000Y-84092333D01*
X151575000Y-84092324D01*
X151578676Y-84055001D01*
X151575000Y-84017678D01*
X151575000Y-75512333D01*
X151578677Y-75475000D01*
X151564003Y-75326014D01*
X151520546Y-75182753D01*
X151449974Y-75050724D01*
X151378799Y-74963997D01*
X151355001Y-74934999D01*
X151326003Y-74911201D01*
X150638072Y-74223270D01*
X150638072Y-72707500D01*
X150625812Y-72583018D01*
X150589502Y-72463320D01*
X150530537Y-72353006D01*
X150451185Y-72256315D01*
X150354494Y-72176963D01*
X150244180Y-72117998D01*
X150124482Y-72081688D01*
X150000000Y-72069428D01*
X148040000Y-72069428D01*
X148040000Y-67089721D01*
X155345000Y-67089721D01*
X155345000Y-67510279D01*
X155427047Y-67922756D01*
X155587988Y-68311302D01*
X155821637Y-68660983D01*
X156119017Y-68958363D01*
X156468698Y-69192012D01*
X156857244Y-69352953D01*
X157269721Y-69435000D01*
X157690279Y-69435000D01*
X158102756Y-69352953D01*
X158491302Y-69192012D01*
X158840983Y-68958363D01*
X159138363Y-68660983D01*
X159372012Y-68311302D01*
X159532953Y-67922756D01*
X159615000Y-67510279D01*
X159615000Y-67089721D01*
X159532953Y-66677244D01*
X159372012Y-66288698D01*
X159138363Y-65939017D01*
X158840983Y-65641637D01*
X158491302Y-65407988D01*
X158102756Y-65247047D01*
X157690279Y-65165000D01*
X157269721Y-65165000D01*
X156857244Y-65247047D01*
X156468698Y-65407988D01*
X156119017Y-65641637D01*
X155821637Y-65939017D01*
X155587988Y-66288698D01*
X155427047Y-66677244D01*
X155345000Y-67089721D01*
X148040000Y-67089721D01*
X148040000Y-65988043D01*
X148194759Y-65884637D01*
X148394637Y-65684759D01*
X148551680Y-65449727D01*
X148659853Y-65188574D01*
X148715000Y-64911335D01*
X148715000Y-64628665D01*
X148678688Y-64446113D01*
X155495704Y-57629098D01*
X155524701Y-57605301D01*
X155619674Y-57489576D01*
X155690246Y-57357547D01*
X155733703Y-57214286D01*
X155744700Y-57102633D01*
X155744700Y-57102624D01*
X155748376Y-57065301D01*
X155744700Y-57027978D01*
X155744700Y-54878072D01*
X157110000Y-54878072D01*
X157234482Y-54865812D01*
X157354180Y-54829502D01*
X157464494Y-54770537D01*
X157561185Y-54691185D01*
X157640537Y-54594494D01*
X157699502Y-54484180D01*
X157735812Y-54364482D01*
X157748072Y-54240000D01*
X157748072Y-53031229D01*
X160695000Y-53031229D01*
X160695000Y-53648771D01*
X160815476Y-54254446D01*
X161051799Y-54824979D01*
X161394886Y-55338446D01*
X161831554Y-55775114D01*
X162345021Y-56118201D01*
X162915554Y-56354524D01*
X163521229Y-56475000D01*
X164138771Y-56475000D01*
X164744446Y-56354524D01*
X165314979Y-56118201D01*
X165828446Y-55775114D01*
X166265114Y-55338446D01*
X166608201Y-54824979D01*
X166844524Y-54254446D01*
X166965000Y-53648771D01*
X166965000Y-53031229D01*
X166844524Y-52425554D01*
X166608201Y-51855021D01*
X166265114Y-51341554D01*
X165828446Y-50904886D01*
X165314979Y-50561799D01*
X164744446Y-50325476D01*
X164138771Y-50205000D01*
X163521229Y-50205000D01*
X162915554Y-50325476D01*
X162345021Y-50561799D01*
X161831554Y-50904886D01*
X161394886Y-51341554D01*
X161051799Y-51855021D01*
X160815476Y-52425554D01*
X160695000Y-53031229D01*
X157748072Y-53031229D01*
X157748072Y-52440000D01*
X157735812Y-52315518D01*
X157699502Y-52195820D01*
X157640537Y-52085506D01*
X157561185Y-51988815D01*
X157464494Y-51909463D01*
X157354180Y-51850498D01*
X157234482Y-51814188D01*
X157110000Y-51801928D01*
X155310000Y-51801928D01*
X155185518Y-51814188D01*
X155065820Y-51850498D01*
X155042151Y-51863150D01*
X154782703Y-51603702D01*
X154758901Y-51574699D01*
X154643176Y-51479726D01*
X154511147Y-51409154D01*
X154367886Y-51365697D01*
X154256233Y-51354700D01*
X154256222Y-51354700D01*
X154218900Y-51351024D01*
X154181578Y-51354700D01*
X149807923Y-51354700D01*
X149770600Y-51351024D01*
X149733277Y-51354700D01*
X149733267Y-51354700D01*
X149621614Y-51365697D01*
X149494045Y-51404394D01*
X149478353Y-51409154D01*
X149346323Y-51479726D01*
X149285066Y-51529999D01*
X149230599Y-51574699D01*
X149206801Y-51603697D01*
X148739023Y-52071476D01*
X148671185Y-51988815D01*
X148574494Y-51909463D01*
X148464180Y-51850498D01*
X148344482Y-51814188D01*
X148220000Y-51801928D01*
X146420000Y-51801928D01*
X146295518Y-51814188D01*
X146175820Y-51850498D01*
X146152151Y-51863150D01*
X145848003Y-51559002D01*
X145824201Y-51529999D01*
X145708476Y-51435026D01*
X145576447Y-51364454D01*
X145433186Y-51320997D01*
X145321533Y-51310000D01*
X145321522Y-51310000D01*
X145284200Y-51306324D01*
X145246878Y-51310000D01*
X139709737Y-51310000D01*
X139700532Y-51279656D01*
X139618540Y-51126258D01*
X139508196Y-50991804D01*
X139373742Y-50881460D01*
X139220344Y-50799468D01*
X139053898Y-50748977D01*
X138880800Y-50731928D01*
X137979200Y-50731928D01*
X137806102Y-50748977D01*
X137639656Y-50799468D01*
X137486258Y-50881460D01*
X137351804Y-50991804D01*
X137241460Y-51126258D01*
X137159468Y-51279656D01*
X137108977Y-51446102D01*
X137102751Y-51509318D01*
X137073061Y-51437641D01*
X136926962Y-51218987D01*
X136741013Y-51033038D01*
X136522359Y-50886939D01*
X136279405Y-50786304D01*
X136021486Y-50735000D01*
X135758514Y-50735000D01*
X135500595Y-50786304D01*
X135257641Y-50886939D01*
X135038987Y-51033038D01*
X134853038Y-51218987D01*
X134706939Y-51437641D01*
X134606304Y-51680595D01*
X134555000Y-51938514D01*
X134555000Y-52201486D01*
X134576355Y-52308843D01*
X134217099Y-52668100D01*
X132007252Y-52668100D01*
X132093696Y-52459405D01*
X132145000Y-52201486D01*
X132145000Y-51938514D01*
X132093696Y-51680595D01*
X131993061Y-51437641D01*
X131846962Y-51218987D01*
X131661013Y-51033038D01*
X131442359Y-50886939D01*
X131199405Y-50786304D01*
X130941486Y-50735000D01*
X130678514Y-50735000D01*
X130420595Y-50786304D01*
X130177641Y-50886939D01*
X129958987Y-51033038D01*
X129773038Y-51218987D01*
X129712225Y-51310000D01*
X126022933Y-51310000D01*
X125985600Y-51306323D01*
X125948267Y-51310000D01*
X125836614Y-51320997D01*
X125693353Y-51364454D01*
X125561324Y-51435026D01*
X125445599Y-51529999D01*
X125421801Y-51558997D01*
X118870000Y-58110799D01*
X118870000Y-55828043D01*
X119024759Y-55724637D01*
X119224637Y-55524759D01*
X119381680Y-55289727D01*
X119489853Y-55028574D01*
X119545000Y-54751335D01*
X119545000Y-54468665D01*
X119489853Y-54191426D01*
X119381680Y-53930273D01*
X119224637Y-53695241D01*
X119024759Y-53495363D01*
X118789727Y-53338320D01*
X118528574Y-53230147D01*
X118251335Y-53175000D01*
X117968665Y-53175000D01*
X117691426Y-53230147D01*
X117430273Y-53338320D01*
X117195241Y-53495363D01*
X116995363Y-53695241D01*
X116838320Y-53930273D01*
X116730147Y-54191426D01*
X116675000Y-54468665D01*
X116675000Y-54751335D01*
X116730147Y-55028574D01*
X116838320Y-55289727D01*
X116995363Y-55524759D01*
X117195241Y-55724637D01*
X117350001Y-55828044D01*
X117350000Y-63888678D01*
X117346324Y-63926000D01*
X117350000Y-63963322D01*
X117350000Y-63963332D01*
X117360997Y-64074985D01*
X117401497Y-64208499D01*
X117404454Y-64218246D01*
X117475026Y-64350276D01*
X117510665Y-64393702D01*
X117569999Y-64466001D01*
X117599003Y-64489804D01*
X123332977Y-70223779D01*
X123188703Y-70439700D01*
X114912419Y-62163418D01*
X114904303Y-62081014D01*
X114860846Y-61937753D01*
X114790274Y-61805724D01*
X114695301Y-61689999D01*
X114579576Y-61595026D01*
X114447547Y-61524454D01*
X114304286Y-61480997D01*
X114251947Y-61475842D01*
X114144637Y-61315241D01*
X113944759Y-61115363D01*
X113709727Y-60958320D01*
X113448574Y-60850147D01*
X113171335Y-60795000D01*
X112888665Y-60795000D01*
X112611426Y-60850147D01*
X112350273Y-60958320D01*
X112115241Y-61115363D01*
X111915363Y-61315241D01*
X111758320Y-61550273D01*
X111650147Y-61811426D01*
X111595000Y-62088665D01*
X111595000Y-62371335D01*
X111650147Y-62648574D01*
X111758320Y-62909727D01*
X111915363Y-63144759D01*
X112115241Y-63344637D01*
X112350273Y-63501680D01*
X112611426Y-63609853D01*
X112888665Y-63665000D01*
X113171335Y-63665000D01*
X113448574Y-63609853D01*
X113709727Y-63501680D01*
X113944326Y-63344927D01*
X118916621Y-68317223D01*
X118722051Y-68376245D01*
X118446265Y-68523655D01*
X118204537Y-68722037D01*
X118006155Y-68963765D01*
X117858745Y-69239551D01*
X117767970Y-69538796D01*
X117737319Y-69850000D01*
X117767970Y-70161204D01*
X117858745Y-70460449D01*
X118006155Y-70736235D01*
X118043752Y-70782047D01*
X116138403Y-72687396D01*
X116109399Y-72711199D01*
X116081462Y-72745241D01*
X116014426Y-72826924D01*
X116014414Y-72826947D01*
X115943854Y-72958954D01*
X115900397Y-73102215D01*
X115889400Y-73213868D01*
X115889400Y-73213878D01*
X115885724Y-73251200D01*
X115889400Y-73288522D01*
X115889401Y-104411967D01*
X115885724Y-104449300D01*
X115889401Y-104486633D01*
X115900398Y-104598286D01*
X115912862Y-104639375D01*
X115943854Y-104741546D01*
X116014426Y-104873576D01*
X116085601Y-104960302D01*
X116109400Y-104989301D01*
X116138398Y-105013099D01*
X128694301Y-117569003D01*
X128718099Y-117598001D01*
X128747097Y-117621799D01*
X128833824Y-117692974D01*
X128965853Y-117763546D01*
X129109114Y-117807003D01*
X129258100Y-117821677D01*
X129295433Y-117818000D01*
X139659378Y-117818000D01*
X139696700Y-117821676D01*
X139734022Y-117818000D01*
X139734033Y-117818000D01*
X139845686Y-117807003D01*
X139988947Y-117763546D01*
X140120976Y-117692974D01*
X140236701Y-117598001D01*
X140260504Y-117568997D01*
X142439822Y-115389679D01*
X143725000Y-115389679D01*
X143725000Y-117050322D01*
X143748657Y-117290516D01*
X143842149Y-117598715D01*
X143993970Y-117882752D01*
X144198287Y-118131714D01*
X144447249Y-118336031D01*
X144731286Y-118487852D01*
X145039485Y-118581343D01*
X145360000Y-118612911D01*
X145680516Y-118581343D01*
X145988715Y-118487852D01*
X146272752Y-118336031D01*
X146521714Y-118131714D01*
X146726031Y-117882752D01*
X146877852Y-117598715D01*
X146971343Y-117290516D01*
X146995000Y-117050322D01*
X146995000Y-115389678D01*
X146971343Y-115149484D01*
X146877852Y-114841285D01*
X146726031Y-114557248D01*
X146521714Y-114308286D01*
X146272751Y-114103969D01*
X145988714Y-113952148D01*
X145680515Y-113858657D01*
X145360000Y-113827089D01*
X145039484Y-113858657D01*
X144731285Y-113952148D01*
X144447248Y-114103969D01*
X144198286Y-114308286D01*
X143993969Y-114557249D01*
X143842148Y-114841286D01*
X143748657Y-115149485D01*
X143725000Y-115389679D01*
X142439822Y-115389679D01*
X147303528Y-110525974D01*
X147329463Y-110574494D01*
X147408815Y-110671185D01*
X147505506Y-110750537D01*
X147615820Y-110809502D01*
X147735518Y-110845812D01*
X147860000Y-110858072D01*
X151860000Y-110858072D01*
X151984482Y-110845812D01*
X152104180Y-110809502D01*
X152214494Y-110750537D01*
X152311185Y-110671185D01*
X152390537Y-110574494D01*
X152449502Y-110464180D01*
X152485812Y-110344482D01*
X152498072Y-110220000D01*
X152498072Y-108220000D01*
X152485812Y-108095518D01*
X152449502Y-107975820D01*
X152390537Y-107865506D01*
X152311185Y-107768815D01*
X152214494Y-107689463D01*
X152104180Y-107630498D01*
X151984482Y-107594188D01*
X151860000Y-107581928D01*
X150620000Y-107581928D01*
X150620000Y-103778043D01*
X150774759Y-103674637D01*
X150974637Y-103474759D01*
X151131680Y-103239727D01*
X151239853Y-102978574D01*
X151295000Y-102701335D01*
X151295000Y-102418665D01*
X151239853Y-102141426D01*
X151131680Y-101880273D01*
X150974637Y-101645241D01*
X150774759Y-101445363D01*
X150539727Y-101288320D01*
X150278574Y-101180147D01*
X150001335Y-101125000D01*
X149718665Y-101125000D01*
X149536113Y-101161312D01*
X149494600Y-101119799D01*
X149494600Y-100498072D01*
X150660000Y-100498072D01*
X150784482Y-100485812D01*
X150904180Y-100449502D01*
X151014494Y-100390537D01*
X151111185Y-100311185D01*
X151133948Y-100283449D01*
X155269900Y-104419402D01*
X155269901Y-109182657D01*
X155266223Y-109220000D01*
X155269900Y-109257333D01*
X155269901Y-110710597D01*
X151784627Y-114195872D01*
X151671714Y-114058286D01*
X151422752Y-113853969D01*
X151138715Y-113702148D01*
X150830516Y-113608657D01*
X150590322Y-113585000D01*
X149129678Y-113585000D01*
X148889484Y-113608657D01*
X148581285Y-113702148D01*
X148297248Y-113853969D01*
X148048286Y-114058286D01*
X147843969Y-114307248D01*
X147692148Y-114591285D01*
X147598657Y-114899484D01*
X147567089Y-115220000D01*
X147598657Y-115540516D01*
X147692148Y-115848715D01*
X147843969Y-116132752D01*
X148048286Y-116381714D01*
X148297248Y-116586031D01*
X148581285Y-116737852D01*
X148889484Y-116831343D01*
X149129678Y-116855000D01*
X149405568Y-116855000D01*
X149180273Y-116948320D01*
X148945241Y-117105363D01*
X148745363Y-117305241D01*
X148588320Y-117540273D01*
X148480147Y-117801426D01*
X148425000Y-118078665D01*
X148425000Y-118361335D01*
X148480147Y-118638574D01*
X148513875Y-118720000D01*
X124492419Y-118720000D01*
X124460000Y-118716807D01*
X124390877Y-118723615D01*
X124330617Y-118729550D01*
X124206207Y-118767290D01*
X124091550Y-118828575D01*
X123991052Y-118911052D01*
X123908575Y-119011550D01*
X123847290Y-119126207D01*
X123809550Y-119250617D01*
X123796807Y-119380000D01*
X123800000Y-119412418D01*
X123800001Y-121260000D01*
X111792279Y-121260000D01*
X111395455Y-121221091D01*
X111044794Y-121115220D01*
X110721377Y-120943257D01*
X110437518Y-120711748D01*
X110204035Y-120429514D01*
X110029816Y-120107304D01*
X109921498Y-119757385D01*
X109880000Y-119362557D01*
X109880000Y-117801229D01*
X109895000Y-117801229D01*
X109895000Y-118418771D01*
X110015476Y-119024446D01*
X110251799Y-119594979D01*
X110594886Y-120108446D01*
X111031554Y-120545114D01*
X111545021Y-120888201D01*
X112115554Y-121124524D01*
X112721229Y-121245000D01*
X113338771Y-121245000D01*
X113944446Y-121124524D01*
X114514979Y-120888201D01*
X115028446Y-120545114D01*
X115465114Y-120108446D01*
X115808201Y-119594979D01*
X116044524Y-119024446D01*
X116165000Y-118418771D01*
X116165000Y-117801229D01*
X116044524Y-117195554D01*
X115808201Y-116625021D01*
X115465114Y-116111554D01*
X115028446Y-115674886D01*
X114514979Y-115331799D01*
X113944446Y-115095476D01*
X113338771Y-114975000D01*
X112721229Y-114975000D01*
X112115554Y-115095476D01*
X111545021Y-115331799D01*
X111031554Y-115674886D01*
X110594886Y-116111554D01*
X110251799Y-116625021D01*
X110015476Y-117195554D01*
X109895000Y-117801229D01*
X109880000Y-117801229D01*
X109880000Y-53031229D01*
X109895000Y-53031229D01*
X109895000Y-53648771D01*
X110015476Y-54254446D01*
X110251799Y-54824979D01*
X110594886Y-55338446D01*
X111031554Y-55775114D01*
X111545021Y-56118201D01*
X112115554Y-56354524D01*
X112721229Y-56475000D01*
X113338771Y-56475000D01*
X113944446Y-56354524D01*
X114514979Y-56118201D01*
X115028446Y-55775114D01*
X115465114Y-55338446D01*
X115808201Y-54824979D01*
X116044524Y-54254446D01*
X116165000Y-53648771D01*
X116165000Y-53031229D01*
X116044524Y-52425554D01*
X115808201Y-51855021D01*
X115465114Y-51341554D01*
X115028446Y-50904886D01*
X114514979Y-50561799D01*
X113944446Y-50325476D01*
X113338771Y-50205000D01*
X112721229Y-50205000D01*
X112115554Y-50325476D01*
X111545021Y-50561799D01*
X111031554Y-50904886D01*
X110594886Y-51341554D01*
X110251799Y-51855021D01*
X110015476Y-52425554D01*
X109895000Y-53031229D01*
X109880000Y-53031229D01*
X109880000Y-52102279D01*
X109918909Y-51705455D01*
X110024780Y-51354792D01*
X110196744Y-51031375D01*
X110428254Y-50747516D01*
X110710486Y-50514035D01*
X111032695Y-50339817D01*
X111382614Y-50231498D01*
X111777443Y-50190000D01*
X165067721Y-50190000D01*
X165464545Y-50228909D01*
G37*
X165464545Y-50228909D02*
X165815208Y-50334780D01*
X166138625Y-50506744D01*
X166422484Y-50738254D01*
X166655965Y-51020486D01*
X166830183Y-51342695D01*
X166938502Y-51692614D01*
X166980000Y-52087443D01*
X166980001Y-98432191D01*
X166809987Y-98177748D01*
X166582252Y-97950013D01*
X166314463Y-97771082D01*
X166016912Y-97647832D01*
X165701033Y-97585000D01*
X165378967Y-97585000D01*
X165063088Y-97647832D01*
X164765537Y-97771082D01*
X164497748Y-97950013D01*
X164270013Y-98177748D01*
X164091082Y-98445537D01*
X163967832Y-98743088D01*
X163905000Y-99058967D01*
X163905000Y-99381033D01*
X163967832Y-99696912D01*
X164091082Y-99994463D01*
X164270013Y-100262252D01*
X164497748Y-100489987D01*
X164765537Y-100668918D01*
X165063088Y-100792168D01*
X165378967Y-100855000D01*
X165701033Y-100855000D01*
X166016912Y-100792168D01*
X166314463Y-100668918D01*
X166582252Y-100489987D01*
X166809987Y-100262252D01*
X166980001Y-100007809D01*
X166980001Y-110432192D01*
X166809987Y-110177748D01*
X166582252Y-109950013D01*
X166314463Y-109771082D01*
X166016912Y-109647832D01*
X165701033Y-109585000D01*
X165378967Y-109585000D01*
X165063088Y-109647832D01*
X164765537Y-109771082D01*
X164497748Y-109950013D01*
X164270013Y-110177748D01*
X164091082Y-110445537D01*
X163967832Y-110743088D01*
X163905000Y-111058967D01*
X163905000Y-111381033D01*
X163967832Y-111696912D01*
X164091082Y-111994463D01*
X164270013Y-112262252D01*
X164497748Y-112489987D01*
X164765537Y-112668918D01*
X165063088Y-112792168D01*
X165378967Y-112855000D01*
X165701033Y-112855000D01*
X166016912Y-112792168D01*
X166314463Y-112668918D01*
X166582252Y-112489987D01*
X166809987Y-112262252D01*
X166980001Y-112007808D01*
X166980001Y-119347711D01*
X166941091Y-119744545D01*
X166835220Y-120095206D01*
X166663257Y-120418623D01*
X166431748Y-120702482D01*
X166149514Y-120935965D01*
X165827304Y-121110184D01*
X165477385Y-121218502D01*
X165082557Y-121260000D01*
X158140000Y-121260000D01*
X158140000Y-119412418D01*
X158143193Y-119380000D01*
X158130450Y-119250617D01*
X158092710Y-119126207D01*
X158031425Y-119011550D01*
X157948948Y-118911052D01*
X157848450Y-118828575D01*
X157733793Y-118767290D01*
X157609383Y-118729550D01*
X157549123Y-118723615D01*
X157480000Y-118716807D01*
X157447581Y-118720000D01*
X151206125Y-118720000D01*
X151239853Y-118638574D01*
X151295000Y-118361335D01*
X151295000Y-118078665D01*
X151239853Y-117801426D01*
X151131680Y-117540273D01*
X150974637Y-117305241D01*
X150774759Y-117105363D01*
X150539727Y-116948320D01*
X150314432Y-116855000D01*
X150590322Y-116855000D01*
X150830516Y-116831343D01*
X151138715Y-116737852D01*
X151422752Y-116586031D01*
X151671714Y-116381714D01*
X151876031Y-116132752D01*
X151962405Y-115971158D01*
X151984286Y-115969003D01*
X152127547Y-115925546D01*
X152259576Y-115854974D01*
X152375301Y-115760001D01*
X152399104Y-115730997D01*
X152725000Y-115405101D01*
X152725000Y-117050322D01*
X152748657Y-117290516D01*
X152842149Y-117598715D01*
X152993970Y-117882752D01*
X153198287Y-118131714D01*
X153447249Y-118336031D01*
X153731286Y-118487852D01*
X154039485Y-118581343D01*
X154360000Y-118612911D01*
X154680516Y-118581343D01*
X154988715Y-118487852D01*
X155272752Y-118336031D01*
X155521714Y-118131714D01*
X155726031Y-117882752D01*
X155769605Y-117801229D01*
X160695000Y-117801229D01*
X160695000Y-118418771D01*
X160815476Y-119024446D01*
X161051799Y-119594979D01*
X161394886Y-120108446D01*
X161831554Y-120545114D01*
X162345021Y-120888201D01*
X162915554Y-121124524D01*
X163521229Y-121245000D01*
X164138771Y-121245000D01*
X164744446Y-121124524D01*
X165314979Y-120888201D01*
X165828446Y-120545114D01*
X166265114Y-120108446D01*
X166608201Y-119594979D01*
X166844524Y-119024446D01*
X166965000Y-118418771D01*
X166965000Y-117801229D01*
X166844524Y-117195554D01*
X166608201Y-116625021D01*
X166265114Y-116111554D01*
X165828446Y-115674886D01*
X165314979Y-115331799D01*
X164744446Y-115095476D01*
X164138771Y-114975000D01*
X163521229Y-114975000D01*
X162915554Y-115095476D01*
X162345021Y-115331799D01*
X161831554Y-115674886D01*
X161394886Y-116111554D01*
X161051799Y-116625021D01*
X160815476Y-117195554D01*
X160695000Y-117801229D01*
X155769605Y-117801229D01*
X155877852Y-117598715D01*
X155971343Y-117290516D01*
X155995000Y-117050322D01*
X155995000Y-115389678D01*
X155971343Y-115149484D01*
X155877852Y-114841285D01*
X155726031Y-114557248D01*
X155521714Y-114308286D01*
X155272751Y-114103969D01*
X154988714Y-113952148D01*
X154680515Y-113858657D01*
X154360000Y-113827089D01*
X154296786Y-113833315D01*
X156540903Y-111589199D01*
X156569901Y-111565401D01*
X156664874Y-111449676D01*
X156735446Y-111317647D01*
X156778903Y-111174386D01*
X156789900Y-111062733D01*
X156789900Y-111062724D01*
X156793576Y-111025401D01*
X156789900Y-110988078D01*
X156789900Y-109980000D01*
X158467761Y-109980000D01*
X158270013Y-110177748D01*
X158091082Y-110445537D01*
X157967832Y-110743088D01*
X157905000Y-111058967D01*
X157905000Y-111381033D01*
X157967832Y-111696912D01*
X158091082Y-111994463D01*
X158270013Y-112262252D01*
X158497748Y-112489987D01*
X158765537Y-112668918D01*
X159063088Y-112792168D01*
X159378967Y-112855000D01*
X159701033Y-112855000D01*
X160016912Y-112792168D01*
X160314463Y-112668918D01*
X160582252Y-112489987D01*
X160809987Y-112262252D01*
X160988918Y-111994463D01*
X161112168Y-111696912D01*
X161175000Y-111381033D01*
X161175000Y-111058967D01*
X161112168Y-110743088D01*
X161092140Y-110694736D01*
X161143740Y-110705000D01*
X161436260Y-110705000D01*
X161723158Y-110647932D01*
X161993411Y-110535990D01*
X162236632Y-110373475D01*
X162443475Y-110166632D01*
X162605990Y-109923411D01*
X162717932Y-109653158D01*
X162775000Y-109366260D01*
X162775000Y-109073740D01*
X162731210Y-108853592D01*
X163476604Y-108108198D01*
X163505601Y-108084401D01*
X163600574Y-107968676D01*
X163671146Y-107836647D01*
X163714603Y-107693386D01*
X163725600Y-107581733D01*
X163725600Y-107581724D01*
X163729276Y-107544401D01*
X163725600Y-107507078D01*
X163725600Y-98312922D01*
X163729276Y-98275599D01*
X163725600Y-98238276D01*
X163725600Y-98238267D01*
X163714603Y-98126614D01*
X163671146Y-97983353D01*
X163600574Y-97851324D01*
X163505601Y-97735599D01*
X163476603Y-97711801D01*
X151178688Y-85413887D01*
X151215000Y-85231335D01*
X151215000Y-84948665D01*
X151203276Y-84889721D01*
X155345000Y-84889721D01*
X155345000Y-85310279D01*
X155427047Y-85722756D01*
X155587988Y-86111302D01*
X155821637Y-86460983D01*
X156119017Y-86758363D01*
X156468698Y-86992012D01*
X156857244Y-87152953D01*
X157269721Y-87235000D01*
X157690279Y-87235000D01*
X158102756Y-87152953D01*
X158491302Y-86992012D01*
X158840983Y-86758363D01*
X159138363Y-86460983D01*
X159372012Y-86111302D01*
X159532953Y-85722756D01*
X159615000Y-85310279D01*
X159615000Y-84889721D01*
X159532953Y-84477244D01*
X159372012Y-84088698D01*
X159138363Y-83739017D01*
X158840983Y-83441637D01*
X158491302Y-83207988D01*
X158102756Y-83047047D01*
X157690279Y-82965000D01*
X157269721Y-82965000D01*
X156857244Y-83047047D01*
X156468698Y-83207988D01*
X156119017Y-83441637D01*
X155821637Y-83739017D01*
X155587988Y-84088698D01*
X155427047Y-84477244D01*
X155345000Y-84889721D01*
X151203276Y-84889721D01*
X151178688Y-84766114D01*
X151326004Y-84618798D01*
X151355001Y-84595001D01*
X151411464Y-84526201D01*
X151449974Y-84479277D01*
X151520546Y-84347247D01*
X151551781Y-84244276D01*
X151564003Y-84203986D01*
X151575000Y-84092333D01*
X151575000Y-84092324D01*
X151578676Y-84055001D01*
X151575000Y-84017678D01*
X151575000Y-75512333D01*
X151578677Y-75475000D01*
X151564003Y-75326014D01*
X151520546Y-75182753D01*
X151449974Y-75050724D01*
X151378799Y-74963997D01*
X151355001Y-74934999D01*
X151326003Y-74911201D01*
X150638072Y-74223270D01*
X150638072Y-72707500D01*
X150625812Y-72583018D01*
X150589502Y-72463320D01*
X150530537Y-72353006D01*
X150451185Y-72256315D01*
X150354494Y-72176963D01*
X150244180Y-72117998D01*
X150124482Y-72081688D01*
X150000000Y-72069428D01*
X148040000Y-72069428D01*
X148040000Y-67089721D01*
X155345000Y-67089721D01*
X155345000Y-67510279D01*
X155427047Y-67922756D01*
X155587988Y-68311302D01*
X155821637Y-68660983D01*
X156119017Y-68958363D01*
X156468698Y-69192012D01*
X156857244Y-69352953D01*
X157269721Y-69435000D01*
X157690279Y-69435000D01*
X158102756Y-69352953D01*
X158491302Y-69192012D01*
X158840983Y-68958363D01*
X159138363Y-68660983D01*
X159372012Y-68311302D01*
X159532953Y-67922756D01*
X159615000Y-67510279D01*
X159615000Y-67089721D01*
X159532953Y-66677244D01*
X159372012Y-66288698D01*
X159138363Y-65939017D01*
X158840983Y-65641637D01*
X158491302Y-65407988D01*
X158102756Y-65247047D01*
X157690279Y-65165000D01*
X157269721Y-65165000D01*
X156857244Y-65247047D01*
X156468698Y-65407988D01*
X156119017Y-65641637D01*
X155821637Y-65939017D01*
X155587988Y-66288698D01*
X155427047Y-66677244D01*
X155345000Y-67089721D01*
X148040000Y-67089721D01*
X148040000Y-65988043D01*
X148194759Y-65884637D01*
X148394637Y-65684759D01*
X148551680Y-65449727D01*
X148659853Y-65188574D01*
X148715000Y-64911335D01*
X148715000Y-64628665D01*
X148678688Y-64446113D01*
X155495704Y-57629098D01*
X155524701Y-57605301D01*
X155619674Y-57489576D01*
X155690246Y-57357547D01*
X155733703Y-57214286D01*
X155744700Y-57102633D01*
X155744700Y-57102624D01*
X155748376Y-57065301D01*
X155744700Y-57027978D01*
X155744700Y-54878072D01*
X157110000Y-54878072D01*
X157234482Y-54865812D01*
X157354180Y-54829502D01*
X157464494Y-54770537D01*
X157561185Y-54691185D01*
X157640537Y-54594494D01*
X157699502Y-54484180D01*
X157735812Y-54364482D01*
X157748072Y-54240000D01*
X157748072Y-53031229D01*
X160695000Y-53031229D01*
X160695000Y-53648771D01*
X160815476Y-54254446D01*
X161051799Y-54824979D01*
X161394886Y-55338446D01*
X161831554Y-55775114D01*
X162345021Y-56118201D01*
X162915554Y-56354524D01*
X163521229Y-56475000D01*
X164138771Y-56475000D01*
X164744446Y-56354524D01*
X165314979Y-56118201D01*
X165828446Y-55775114D01*
X166265114Y-55338446D01*
X166608201Y-54824979D01*
X166844524Y-54254446D01*
X166965000Y-53648771D01*
X166965000Y-53031229D01*
X166844524Y-52425554D01*
X166608201Y-51855021D01*
X166265114Y-51341554D01*
X165828446Y-50904886D01*
X165314979Y-50561799D01*
X164744446Y-50325476D01*
X164138771Y-50205000D01*
X163521229Y-50205000D01*
X162915554Y-50325476D01*
X162345021Y-50561799D01*
X161831554Y-50904886D01*
X161394886Y-51341554D01*
X161051799Y-51855021D01*
X160815476Y-52425554D01*
X160695000Y-53031229D01*
X157748072Y-53031229D01*
X157748072Y-52440000D01*
X157735812Y-52315518D01*
X157699502Y-52195820D01*
X157640537Y-52085506D01*
X157561185Y-51988815D01*
X157464494Y-51909463D01*
X157354180Y-51850498D01*
X157234482Y-51814188D01*
X157110000Y-51801928D01*
X155310000Y-51801928D01*
X155185518Y-51814188D01*
X155065820Y-51850498D01*
X155042151Y-51863150D01*
X154782703Y-51603702D01*
X154758901Y-51574699D01*
X154643176Y-51479726D01*
X154511147Y-51409154D01*
X154367886Y-51365697D01*
X154256233Y-51354700D01*
X154256222Y-51354700D01*
X154218900Y-51351024D01*
X154181578Y-51354700D01*
X149807923Y-51354700D01*
X149770600Y-51351024D01*
X149733277Y-51354700D01*
X149733267Y-51354700D01*
X149621614Y-51365697D01*
X149494045Y-51404394D01*
X149478353Y-51409154D01*
X149346323Y-51479726D01*
X149285066Y-51529999D01*
X149230599Y-51574699D01*
X149206801Y-51603697D01*
X148739023Y-52071476D01*
X148671185Y-51988815D01*
X148574494Y-51909463D01*
X148464180Y-51850498D01*
X148344482Y-51814188D01*
X148220000Y-51801928D01*
X146420000Y-51801928D01*
X146295518Y-51814188D01*
X146175820Y-51850498D01*
X146152151Y-51863150D01*
X145848003Y-51559002D01*
X145824201Y-51529999D01*
X145708476Y-51435026D01*
X145576447Y-51364454D01*
X145433186Y-51320997D01*
X145321533Y-51310000D01*
X145321522Y-51310000D01*
X145284200Y-51306324D01*
X145246878Y-51310000D01*
X139709737Y-51310000D01*
X139700532Y-51279656D01*
X139618540Y-51126258D01*
X139508196Y-50991804D01*
X139373742Y-50881460D01*
X139220344Y-50799468D01*
X139053898Y-50748977D01*
X138880800Y-50731928D01*
X137979200Y-50731928D01*
X137806102Y-50748977D01*
X137639656Y-50799468D01*
X137486258Y-50881460D01*
X137351804Y-50991804D01*
X137241460Y-51126258D01*
X137159468Y-51279656D01*
X137108977Y-51446102D01*
X137102751Y-51509318D01*
X137073061Y-51437641D01*
X136926962Y-51218987D01*
X136741013Y-51033038D01*
X136522359Y-50886939D01*
X136279405Y-50786304D01*
X136021486Y-50735000D01*
X135758514Y-50735000D01*
X135500595Y-50786304D01*
X135257641Y-50886939D01*
X135038987Y-51033038D01*
X134853038Y-51218987D01*
X134706939Y-51437641D01*
X134606304Y-51680595D01*
X134555000Y-51938514D01*
X134555000Y-52201486D01*
X134576355Y-52308843D01*
X134217099Y-52668100D01*
X132007252Y-52668100D01*
X132093696Y-52459405D01*
X132145000Y-52201486D01*
X132145000Y-51938514D01*
X132093696Y-51680595D01*
X131993061Y-51437641D01*
X131846962Y-51218987D01*
X131661013Y-51033038D01*
X131442359Y-50886939D01*
X131199405Y-50786304D01*
X130941486Y-50735000D01*
X130678514Y-50735000D01*
X130420595Y-50786304D01*
X130177641Y-50886939D01*
X129958987Y-51033038D01*
X129773038Y-51218987D01*
X129712225Y-51310000D01*
X126022933Y-51310000D01*
X125985600Y-51306323D01*
X125948267Y-51310000D01*
X125836614Y-51320997D01*
X125693353Y-51364454D01*
X125561324Y-51435026D01*
X125445599Y-51529999D01*
X125421801Y-51558997D01*
X118870000Y-58110799D01*
X118870000Y-55828043D01*
X119024759Y-55724637D01*
X119224637Y-55524759D01*
X119381680Y-55289727D01*
X119489853Y-55028574D01*
X119545000Y-54751335D01*
X119545000Y-54468665D01*
X119489853Y-54191426D01*
X119381680Y-53930273D01*
X119224637Y-53695241D01*
X119024759Y-53495363D01*
X118789727Y-53338320D01*
X118528574Y-53230147D01*
X118251335Y-53175000D01*
X117968665Y-53175000D01*
X117691426Y-53230147D01*
X117430273Y-53338320D01*
X117195241Y-53495363D01*
X116995363Y-53695241D01*
X116838320Y-53930273D01*
X116730147Y-54191426D01*
X116675000Y-54468665D01*
X116675000Y-54751335D01*
X116730147Y-55028574D01*
X116838320Y-55289727D01*
X116995363Y-55524759D01*
X117195241Y-55724637D01*
X117350001Y-55828044D01*
X117350000Y-63888678D01*
X117346324Y-63926000D01*
X117350000Y-63963322D01*
X117350000Y-63963332D01*
X117360997Y-64074985D01*
X117401497Y-64208499D01*
X117404454Y-64218246D01*
X117475026Y-64350276D01*
X117510665Y-64393702D01*
X117569999Y-64466001D01*
X117599003Y-64489804D01*
X123332977Y-70223779D01*
X123188703Y-70439700D01*
X114912419Y-62163418D01*
X114904303Y-62081014D01*
X114860846Y-61937753D01*
X114790274Y-61805724D01*
X114695301Y-61689999D01*
X114579576Y-61595026D01*
X114447547Y-61524454D01*
X114304286Y-61480997D01*
X114251947Y-61475842D01*
X114144637Y-61315241D01*
X113944759Y-61115363D01*
X113709727Y-60958320D01*
X113448574Y-60850147D01*
X113171335Y-60795000D01*
X112888665Y-60795000D01*
X112611426Y-60850147D01*
X112350273Y-60958320D01*
X112115241Y-61115363D01*
X111915363Y-61315241D01*
X111758320Y-61550273D01*
X111650147Y-61811426D01*
X111595000Y-62088665D01*
X111595000Y-62371335D01*
X111650147Y-62648574D01*
X111758320Y-62909727D01*
X111915363Y-63144759D01*
X112115241Y-63344637D01*
X112350273Y-63501680D01*
X112611426Y-63609853D01*
X112888665Y-63665000D01*
X113171335Y-63665000D01*
X113448574Y-63609853D01*
X113709727Y-63501680D01*
X113944326Y-63344927D01*
X118916621Y-68317223D01*
X118722051Y-68376245D01*
X118446265Y-68523655D01*
X118204537Y-68722037D01*
X118006155Y-68963765D01*
X117858745Y-69239551D01*
X117767970Y-69538796D01*
X117737319Y-69850000D01*
X117767970Y-70161204D01*
X117858745Y-70460449D01*
X118006155Y-70736235D01*
X118043752Y-70782047D01*
X116138403Y-72687396D01*
X116109399Y-72711199D01*
X116081462Y-72745241D01*
X116014426Y-72826924D01*
X116014414Y-72826947D01*
X115943854Y-72958954D01*
X115900397Y-73102215D01*
X115889400Y-73213868D01*
X115889400Y-73213878D01*
X115885724Y-73251200D01*
X115889400Y-73288522D01*
X115889401Y-104411967D01*
X115885724Y-104449300D01*
X115889401Y-104486633D01*
X115900398Y-104598286D01*
X115912862Y-104639375D01*
X115943854Y-104741546D01*
X116014426Y-104873576D01*
X116085601Y-104960302D01*
X116109400Y-104989301D01*
X116138398Y-105013099D01*
X128694301Y-117569003D01*
X128718099Y-117598001D01*
X128747097Y-117621799D01*
X128833824Y-117692974D01*
X128965853Y-117763546D01*
X129109114Y-117807003D01*
X129258100Y-117821677D01*
X129295433Y-117818000D01*
X139659378Y-117818000D01*
X139696700Y-117821676D01*
X139734022Y-117818000D01*
X139734033Y-117818000D01*
X139845686Y-117807003D01*
X139988947Y-117763546D01*
X140120976Y-117692974D01*
X140236701Y-117598001D01*
X140260504Y-117568997D01*
X142439822Y-115389679D01*
X143725000Y-115389679D01*
X143725000Y-117050322D01*
X143748657Y-117290516D01*
X143842149Y-117598715D01*
X143993970Y-117882752D01*
X144198287Y-118131714D01*
X144447249Y-118336031D01*
X144731286Y-118487852D01*
X145039485Y-118581343D01*
X145360000Y-118612911D01*
X145680516Y-118581343D01*
X145988715Y-118487852D01*
X146272752Y-118336031D01*
X146521714Y-118131714D01*
X146726031Y-117882752D01*
X146877852Y-117598715D01*
X146971343Y-117290516D01*
X146995000Y-117050322D01*
X146995000Y-115389678D01*
X146971343Y-115149484D01*
X146877852Y-114841285D01*
X146726031Y-114557248D01*
X146521714Y-114308286D01*
X146272751Y-114103969D01*
X145988714Y-113952148D01*
X145680515Y-113858657D01*
X145360000Y-113827089D01*
X145039484Y-113858657D01*
X144731285Y-113952148D01*
X144447248Y-114103969D01*
X144198286Y-114308286D01*
X143993969Y-114557249D01*
X143842148Y-114841286D01*
X143748657Y-115149485D01*
X143725000Y-115389679D01*
X142439822Y-115389679D01*
X147303528Y-110525974D01*
X147329463Y-110574494D01*
X147408815Y-110671185D01*
X147505506Y-110750537D01*
X147615820Y-110809502D01*
X147735518Y-110845812D01*
X147860000Y-110858072D01*
X151860000Y-110858072D01*
X151984482Y-110845812D01*
X152104180Y-110809502D01*
X152214494Y-110750537D01*
X152311185Y-110671185D01*
X152390537Y-110574494D01*
X152449502Y-110464180D01*
X152485812Y-110344482D01*
X152498072Y-110220000D01*
X152498072Y-108220000D01*
X152485812Y-108095518D01*
X152449502Y-107975820D01*
X152390537Y-107865506D01*
X152311185Y-107768815D01*
X152214494Y-107689463D01*
X152104180Y-107630498D01*
X151984482Y-107594188D01*
X151860000Y-107581928D01*
X150620000Y-107581928D01*
X150620000Y-103778043D01*
X150774759Y-103674637D01*
X150974637Y-103474759D01*
X151131680Y-103239727D01*
X151239853Y-102978574D01*
X151295000Y-102701335D01*
X151295000Y-102418665D01*
X151239853Y-102141426D01*
X151131680Y-101880273D01*
X150974637Y-101645241D01*
X150774759Y-101445363D01*
X150539727Y-101288320D01*
X150278574Y-101180147D01*
X150001335Y-101125000D01*
X149718665Y-101125000D01*
X149536113Y-101161312D01*
X149494600Y-101119799D01*
X149494600Y-100498072D01*
X150660000Y-100498072D01*
X150784482Y-100485812D01*
X150904180Y-100449502D01*
X151014494Y-100390537D01*
X151111185Y-100311185D01*
X151133948Y-100283449D01*
X155269900Y-104419402D01*
X155269901Y-109182657D01*
X155266223Y-109220000D01*
X155269900Y-109257333D01*
X155269901Y-110710597D01*
X151784627Y-114195872D01*
X151671714Y-114058286D01*
X151422752Y-113853969D01*
X151138715Y-113702148D01*
X150830516Y-113608657D01*
X150590322Y-113585000D01*
X149129678Y-113585000D01*
X148889484Y-113608657D01*
X148581285Y-113702148D01*
X148297248Y-113853969D01*
X148048286Y-114058286D01*
X147843969Y-114307248D01*
X147692148Y-114591285D01*
X147598657Y-114899484D01*
X147567089Y-115220000D01*
X147598657Y-115540516D01*
X147692148Y-115848715D01*
X147843969Y-116132752D01*
X148048286Y-116381714D01*
X148297248Y-116586031D01*
X148581285Y-116737852D01*
X148889484Y-116831343D01*
X149129678Y-116855000D01*
X149405568Y-116855000D01*
X149180273Y-116948320D01*
X148945241Y-117105363D01*
X148745363Y-117305241D01*
X148588320Y-117540273D01*
X148480147Y-117801426D01*
X148425000Y-118078665D01*
X148425000Y-118361335D01*
X148480147Y-118638574D01*
X148513875Y-118720000D01*
X124492419Y-118720000D01*
X124460000Y-118716807D01*
X124390877Y-118723615D01*
X124330617Y-118729550D01*
X124206207Y-118767290D01*
X124091550Y-118828575D01*
X123991052Y-118911052D01*
X123908575Y-119011550D01*
X123847290Y-119126207D01*
X123809550Y-119250617D01*
X123796807Y-119380000D01*
X123800000Y-119412418D01*
X123800001Y-121260000D01*
X111792279Y-121260000D01*
X111395455Y-121221091D01*
X111044794Y-121115220D01*
X110721377Y-120943257D01*
X110437518Y-120711748D01*
X110204035Y-120429514D01*
X110029816Y-120107304D01*
X109921498Y-119757385D01*
X109880000Y-119362557D01*
X109880000Y-117801229D01*
X109895000Y-117801229D01*
X109895000Y-118418771D01*
X110015476Y-119024446D01*
X110251799Y-119594979D01*
X110594886Y-120108446D01*
X111031554Y-120545114D01*
X111545021Y-120888201D01*
X112115554Y-121124524D01*
X112721229Y-121245000D01*
X113338771Y-121245000D01*
X113944446Y-121124524D01*
X114514979Y-120888201D01*
X115028446Y-120545114D01*
X115465114Y-120108446D01*
X115808201Y-119594979D01*
X116044524Y-119024446D01*
X116165000Y-118418771D01*
X116165000Y-117801229D01*
X116044524Y-117195554D01*
X115808201Y-116625021D01*
X115465114Y-116111554D01*
X115028446Y-115674886D01*
X114514979Y-115331799D01*
X113944446Y-115095476D01*
X113338771Y-114975000D01*
X112721229Y-114975000D01*
X112115554Y-115095476D01*
X111545021Y-115331799D01*
X111031554Y-115674886D01*
X110594886Y-116111554D01*
X110251799Y-116625021D01*
X110015476Y-117195554D01*
X109895000Y-117801229D01*
X109880000Y-117801229D01*
X109880000Y-53031229D01*
X109895000Y-53031229D01*
X109895000Y-53648771D01*
X110015476Y-54254446D01*
X110251799Y-54824979D01*
X110594886Y-55338446D01*
X111031554Y-55775114D01*
X111545021Y-56118201D01*
X112115554Y-56354524D01*
X112721229Y-56475000D01*
X113338771Y-56475000D01*
X113944446Y-56354524D01*
X114514979Y-56118201D01*
X115028446Y-55775114D01*
X115465114Y-55338446D01*
X115808201Y-54824979D01*
X116044524Y-54254446D01*
X116165000Y-53648771D01*
X116165000Y-53031229D01*
X116044524Y-52425554D01*
X115808201Y-51855021D01*
X115465114Y-51341554D01*
X115028446Y-50904886D01*
X114514979Y-50561799D01*
X113944446Y-50325476D01*
X113338771Y-50205000D01*
X112721229Y-50205000D01*
X112115554Y-50325476D01*
X111545021Y-50561799D01*
X111031554Y-50904886D01*
X110594886Y-51341554D01*
X110251799Y-51855021D01*
X110015476Y-52425554D01*
X109895000Y-53031229D01*
X109880000Y-53031229D01*
X109880000Y-52102279D01*
X109918909Y-51705455D01*
X110024780Y-51354792D01*
X110196744Y-51031375D01*
X110428254Y-50747516D01*
X110710486Y-50514035D01*
X111032695Y-50339817D01*
X111382614Y-50231498D01*
X111777443Y-50190000D01*
X165067721Y-50190000D01*
X165464545Y-50228909D01*
G36*
X143665363Y-86004759D02*
G01*
X143865241Y-86204637D01*
X144020001Y-86308044D01*
X144020000Y-90221956D01*
X143865241Y-90325363D01*
X143665363Y-90525241D01*
X143508320Y-90760273D01*
X143400147Y-91021426D01*
X143345000Y-91298665D01*
X143345000Y-91581335D01*
X143400147Y-91858574D01*
X143508320Y-92119727D01*
X143665363Y-92354759D01*
X143865241Y-92554637D01*
X144020000Y-92658044D01*
X144020000Y-93754377D01*
X144016324Y-93791700D01*
X144020000Y-93829022D01*
X144020000Y-93829032D01*
X144030997Y-93940685D01*
X144054248Y-94017333D01*
X144074454Y-94083946D01*
X144145026Y-94215976D01*
X144184871Y-94264526D01*
X144239999Y-94331701D01*
X144269003Y-94355504D01*
X147976023Y-98062524D01*
X147974600Y-98076968D01*
X147974600Y-98076978D01*
X147970924Y-98114300D01*
X147974600Y-98151623D01*
X147974601Y-101397268D01*
X147970924Y-101434600D01*
X147985598Y-101583585D01*
X148029054Y-101726846D01*
X148099626Y-101858876D01*
X148152589Y-101923411D01*
X148194600Y-101974601D01*
X148223598Y-101998399D01*
X148461312Y-102236113D01*
X148425000Y-102418665D01*
X148425000Y-102701335D01*
X148480147Y-102978574D01*
X148588320Y-103239727D01*
X148745363Y-103474759D01*
X148945241Y-103674637D01*
X149100001Y-103778044D01*
X149100000Y-107581928D01*
X147860000Y-107581928D01*
X147735518Y-107594188D01*
X147615820Y-107630498D01*
X147505506Y-107689463D01*
X147408815Y-107768815D01*
X147329463Y-107865506D01*
X147270498Y-107975820D01*
X147234188Y-108095518D01*
X147221928Y-108220000D01*
X147221928Y-108525425D01*
X147110423Y-108585026D01*
X147026783Y-108653668D01*
X146994699Y-108679999D01*
X146970901Y-108708997D01*
X139381899Y-116298000D01*
X136236801Y-116298000D01*
X136621730Y-115913072D01*
X137760000Y-115913072D01*
X137933254Y-115896008D01*
X138099850Y-115845472D01*
X138253386Y-115763405D01*
X138387962Y-115652962D01*
X138498405Y-115518386D01*
X138580472Y-115364850D01*
X138631008Y-115198254D01*
X138648072Y-115025000D01*
X138648072Y-113575000D01*
X138631008Y-113401746D01*
X138580472Y-113235150D01*
X138498405Y-113081614D01*
X138387962Y-112947038D01*
X138253386Y-112836595D01*
X138099850Y-112754528D01*
X137933254Y-112703992D01*
X137760000Y-112686928D01*
X136560000Y-112686928D01*
X136386746Y-112703992D01*
X136220150Y-112754528D01*
X136066614Y-112836595D01*
X135932038Y-112947038D01*
X135821595Y-113081614D01*
X135767223Y-113183337D01*
X135715134Y-113119866D01*
X135489014Y-112934294D01*
X135231034Y-112796401D01*
X134951111Y-112711487D01*
X134660000Y-112682815D01*
X134380453Y-112710348D01*
X142933603Y-104157199D01*
X142962601Y-104133401D01*
X143017485Y-104066525D01*
X143057574Y-104017677D01*
X143128146Y-103885647D01*
X143144516Y-103831680D01*
X143171603Y-103742386D01*
X143182600Y-103630733D01*
X143182600Y-103630724D01*
X143186276Y-103593401D01*
X143182600Y-103556078D01*
X143182600Y-86165101D01*
X143536220Y-85811482D01*
X143665363Y-86004759D01*
G37*
X143665363Y-86004759D02*
X143865241Y-86204637D01*
X144020001Y-86308044D01*
X144020000Y-90221956D01*
X143865241Y-90325363D01*
X143665363Y-90525241D01*
X143508320Y-90760273D01*
X143400147Y-91021426D01*
X143345000Y-91298665D01*
X143345000Y-91581335D01*
X143400147Y-91858574D01*
X143508320Y-92119727D01*
X143665363Y-92354759D01*
X143865241Y-92554637D01*
X144020000Y-92658044D01*
X144020000Y-93754377D01*
X144016324Y-93791700D01*
X144020000Y-93829022D01*
X144020000Y-93829032D01*
X144030997Y-93940685D01*
X144054248Y-94017333D01*
X144074454Y-94083946D01*
X144145026Y-94215976D01*
X144184871Y-94264526D01*
X144239999Y-94331701D01*
X144269003Y-94355504D01*
X147976023Y-98062524D01*
X147974600Y-98076968D01*
X147974600Y-98076978D01*
X147970924Y-98114300D01*
X147974600Y-98151623D01*
X147974601Y-101397268D01*
X147970924Y-101434600D01*
X147985598Y-101583585D01*
X148029054Y-101726846D01*
X148099626Y-101858876D01*
X148152589Y-101923411D01*
X148194600Y-101974601D01*
X148223598Y-101998399D01*
X148461312Y-102236113D01*
X148425000Y-102418665D01*
X148425000Y-102701335D01*
X148480147Y-102978574D01*
X148588320Y-103239727D01*
X148745363Y-103474759D01*
X148945241Y-103674637D01*
X149100001Y-103778044D01*
X149100000Y-107581928D01*
X147860000Y-107581928D01*
X147735518Y-107594188D01*
X147615820Y-107630498D01*
X147505506Y-107689463D01*
X147408815Y-107768815D01*
X147329463Y-107865506D01*
X147270498Y-107975820D01*
X147234188Y-108095518D01*
X147221928Y-108220000D01*
X147221928Y-108525425D01*
X147110423Y-108585026D01*
X147026783Y-108653668D01*
X146994699Y-108679999D01*
X146970901Y-108708997D01*
X139381899Y-116298000D01*
X136236801Y-116298000D01*
X136621730Y-115913072D01*
X137760000Y-115913072D01*
X137933254Y-115896008D01*
X138099850Y-115845472D01*
X138253386Y-115763405D01*
X138387962Y-115652962D01*
X138498405Y-115518386D01*
X138580472Y-115364850D01*
X138631008Y-115198254D01*
X138648072Y-115025000D01*
X138648072Y-113575000D01*
X138631008Y-113401746D01*
X138580472Y-113235150D01*
X138498405Y-113081614D01*
X138387962Y-112947038D01*
X138253386Y-112836595D01*
X138099850Y-112754528D01*
X137933254Y-112703992D01*
X137760000Y-112686928D01*
X136560000Y-112686928D01*
X136386746Y-112703992D01*
X136220150Y-112754528D01*
X136066614Y-112836595D01*
X135932038Y-112947038D01*
X135821595Y-113081614D01*
X135767223Y-113183337D01*
X135715134Y-113119866D01*
X135489014Y-112934294D01*
X135231034Y-112796401D01*
X134951111Y-112711487D01*
X134660000Y-112682815D01*
X134380453Y-112710348D01*
X142933603Y-104157199D01*
X142962601Y-104133401D01*
X143017485Y-104066525D01*
X143057574Y-104017677D01*
X143128146Y-103885647D01*
X143144516Y-103831680D01*
X143171603Y-103742386D01*
X143182600Y-103630733D01*
X143182600Y-103630724D01*
X143186276Y-103593401D01*
X143182600Y-103556078D01*
X143182600Y-86165101D01*
X143536220Y-85811482D01*
X143665363Y-86004759D01*
G36*
X129485227Y-112700029D02*
G01*
X129368890Y-112711487D01*
X129088967Y-112796401D01*
X128830987Y-112934294D01*
X128604866Y-113119866D01*
X128419294Y-113345986D01*
X128281401Y-113603966D01*
X128262541Y-113666139D01*
X118310200Y-103713799D01*
X118310200Y-101525001D01*
X129485227Y-112700029D01*
G37*
X129485227Y-112700029D02*
X129368890Y-112711487D01*
X129088967Y-112796401D01*
X128830987Y-112934294D01*
X128604866Y-113119866D01*
X128419294Y-113345986D01*
X128281401Y-113603966D01*
X128262541Y-113666139D01*
X118310200Y-103713799D01*
X118310200Y-101525001D01*
X129485227Y-112700029D01*
G36*
X143287998Y-83910100D02*
G01*
X141911603Y-85286496D01*
X141882599Y-85310299D01*
X141835489Y-85367703D01*
X141787626Y-85426024D01*
X141752535Y-85491674D01*
X141717054Y-85558054D01*
X141673597Y-85701315D01*
X141662600Y-85812968D01*
X141662600Y-85812978D01*
X141658924Y-85850300D01*
X141662600Y-85887622D01*
X141662601Y-103278597D01*
X132899003Y-112042196D01*
X132869999Y-112065999D01*
X132814871Y-112133174D01*
X132775026Y-112181724D01*
X132731983Y-112262252D01*
X132704454Y-112313754D01*
X132660997Y-112457015D01*
X132650000Y-112568668D01*
X132650000Y-112568678D01*
X132646324Y-112606000D01*
X132650000Y-112643323D01*
X132650000Y-112771820D01*
X132451111Y-112711487D01*
X132160000Y-112682815D01*
X131868890Y-112711487D01*
X131659534Y-112774995D01*
X131619674Y-112700424D01*
X131524701Y-112584699D01*
X131495703Y-112560901D01*
X118814600Y-99879799D01*
X118814600Y-99380572D01*
X120380000Y-99380572D01*
X120504482Y-99368312D01*
X120624180Y-99332002D01*
X120734494Y-99273037D01*
X120831185Y-99193685D01*
X120910537Y-99096994D01*
X120969502Y-98986680D01*
X120995590Y-98900681D01*
X121021167Y-98903200D01*
X121021176Y-98903200D01*
X121058499Y-98906876D01*
X121095822Y-98903200D01*
X136914178Y-98903200D01*
X136951500Y-98906876D01*
X136988822Y-98903200D01*
X136988833Y-98903200D01*
X137100486Y-98892203D01*
X137243747Y-98848746D01*
X137375776Y-98778174D01*
X137491501Y-98683201D01*
X137515303Y-98654198D01*
X138660053Y-97509449D01*
X138785241Y-97634637D01*
X139020273Y-97791680D01*
X139281426Y-97899853D01*
X139558665Y-97955000D01*
X139841335Y-97955000D01*
X140118574Y-97899853D01*
X140379727Y-97791680D01*
X140614759Y-97634637D01*
X140814637Y-97434759D01*
X140971680Y-97199727D01*
X141079853Y-96938574D01*
X141135000Y-96661335D01*
X141135000Y-96378665D01*
X141079853Y-96101426D01*
X140971680Y-95840273D01*
X140814637Y-95605241D01*
X140614759Y-95405363D01*
X140382241Y-95250000D01*
X140614759Y-95094637D01*
X140814637Y-94894759D01*
X140971680Y-94659727D01*
X141079853Y-94398574D01*
X141135000Y-94121335D01*
X141135000Y-93838665D01*
X141079853Y-93561426D01*
X140971680Y-93300273D01*
X140814637Y-93065241D01*
X140614759Y-92865363D01*
X140382241Y-92710000D01*
X140614759Y-92554637D01*
X140814637Y-92354759D01*
X140971680Y-92119727D01*
X141079853Y-91858574D01*
X141135000Y-91581335D01*
X141135000Y-91298665D01*
X141079853Y-91021426D01*
X140971680Y-90760273D01*
X140814637Y-90525241D01*
X140614759Y-90325363D01*
X140382241Y-90170000D01*
X140614759Y-90014637D01*
X140814637Y-89814759D01*
X140971680Y-89579727D01*
X141079853Y-89318574D01*
X141135000Y-89041335D01*
X141135000Y-88758665D01*
X141079853Y-88481426D01*
X140971680Y-88220273D01*
X140814637Y-87985241D01*
X140614759Y-87785363D01*
X140382241Y-87630000D01*
X140614759Y-87474637D01*
X140814637Y-87274759D01*
X140971680Y-87039727D01*
X141079853Y-86778574D01*
X141135000Y-86501335D01*
X141135000Y-86218665D01*
X141079853Y-85941426D01*
X140971680Y-85680273D01*
X140814637Y-85445241D01*
X140614759Y-85245363D01*
X140382241Y-85090000D01*
X140614759Y-84934637D01*
X140814637Y-84734759D01*
X140971680Y-84499727D01*
X141079853Y-84238574D01*
X141135000Y-83961335D01*
X141135000Y-83678665D01*
X141079853Y-83401426D01*
X140971680Y-83140273D01*
X140814637Y-82905241D01*
X140614759Y-82705363D01*
X140382241Y-82550000D01*
X140614759Y-82394637D01*
X140814637Y-82194759D01*
X140971680Y-81959727D01*
X141078863Y-81700964D01*
X143287998Y-83910100D01*
G37*
X143287998Y-83910100D02*
X141911603Y-85286496D01*
X141882599Y-85310299D01*
X141835489Y-85367703D01*
X141787626Y-85426024D01*
X141752535Y-85491674D01*
X141717054Y-85558054D01*
X141673597Y-85701315D01*
X141662600Y-85812968D01*
X141662600Y-85812978D01*
X141658924Y-85850300D01*
X141662600Y-85887622D01*
X141662601Y-103278597D01*
X132899003Y-112042196D01*
X132869999Y-112065999D01*
X132814871Y-112133174D01*
X132775026Y-112181724D01*
X132731983Y-112262252D01*
X132704454Y-112313754D01*
X132660997Y-112457015D01*
X132650000Y-112568668D01*
X132650000Y-112568678D01*
X132646324Y-112606000D01*
X132650000Y-112643323D01*
X132650000Y-112771820D01*
X132451111Y-112711487D01*
X132160000Y-112682815D01*
X131868890Y-112711487D01*
X131659534Y-112774995D01*
X131619674Y-112700424D01*
X131524701Y-112584699D01*
X131495703Y-112560901D01*
X118814600Y-99879799D01*
X118814600Y-99380572D01*
X120380000Y-99380572D01*
X120504482Y-99368312D01*
X120624180Y-99332002D01*
X120734494Y-99273037D01*
X120831185Y-99193685D01*
X120910537Y-99096994D01*
X120969502Y-98986680D01*
X120995590Y-98900681D01*
X121021167Y-98903200D01*
X121021176Y-98903200D01*
X121058499Y-98906876D01*
X121095822Y-98903200D01*
X136914178Y-98903200D01*
X136951500Y-98906876D01*
X136988822Y-98903200D01*
X136988833Y-98903200D01*
X137100486Y-98892203D01*
X137243747Y-98848746D01*
X137375776Y-98778174D01*
X137491501Y-98683201D01*
X137515303Y-98654198D01*
X138660053Y-97509449D01*
X138785241Y-97634637D01*
X139020273Y-97791680D01*
X139281426Y-97899853D01*
X139558665Y-97955000D01*
X139841335Y-97955000D01*
X140118574Y-97899853D01*
X140379727Y-97791680D01*
X140614759Y-97634637D01*
X140814637Y-97434759D01*
X140971680Y-97199727D01*
X141079853Y-96938574D01*
X141135000Y-96661335D01*
X141135000Y-96378665D01*
X141079853Y-96101426D01*
X140971680Y-95840273D01*
X140814637Y-95605241D01*
X140614759Y-95405363D01*
X140382241Y-95250000D01*
X140614759Y-95094637D01*
X140814637Y-94894759D01*
X140971680Y-94659727D01*
X141079853Y-94398574D01*
X141135000Y-94121335D01*
X141135000Y-93838665D01*
X141079853Y-93561426D01*
X140971680Y-93300273D01*
X140814637Y-93065241D01*
X140614759Y-92865363D01*
X140382241Y-92710000D01*
X140614759Y-92554637D01*
X140814637Y-92354759D01*
X140971680Y-92119727D01*
X141079853Y-91858574D01*
X141135000Y-91581335D01*
X141135000Y-91298665D01*
X141079853Y-91021426D01*
X140971680Y-90760273D01*
X140814637Y-90525241D01*
X140614759Y-90325363D01*
X140382241Y-90170000D01*
X140614759Y-90014637D01*
X140814637Y-89814759D01*
X140971680Y-89579727D01*
X141079853Y-89318574D01*
X141135000Y-89041335D01*
X141135000Y-88758665D01*
X141079853Y-88481426D01*
X140971680Y-88220273D01*
X140814637Y-87985241D01*
X140614759Y-87785363D01*
X140382241Y-87630000D01*
X140614759Y-87474637D01*
X140814637Y-87274759D01*
X140971680Y-87039727D01*
X141079853Y-86778574D01*
X141135000Y-86501335D01*
X141135000Y-86218665D01*
X141079853Y-85941426D01*
X140971680Y-85680273D01*
X140814637Y-85445241D01*
X140614759Y-85245363D01*
X140382241Y-85090000D01*
X140614759Y-84934637D01*
X140814637Y-84734759D01*
X140971680Y-84499727D01*
X141079853Y-84238574D01*
X141135000Y-83961335D01*
X141135000Y-83678665D01*
X141079853Y-83401426D01*
X140971680Y-83140273D01*
X140814637Y-82905241D01*
X140614759Y-82705363D01*
X140382241Y-82550000D01*
X140614759Y-82394637D01*
X140814637Y-82194759D01*
X140971680Y-81959727D01*
X141078863Y-81700964D01*
X143287998Y-83910100D01*
G36*
X159907405Y-106965308D02*
G01*
X159931199Y-106994301D01*
X159960192Y-107018095D01*
X159960196Y-107018099D01*
X160030885Y-107076111D01*
X160046924Y-107089274D01*
X160178953Y-107159846D01*
X160322214Y-107203303D01*
X160433867Y-107214300D01*
X160433876Y-107214300D01*
X160471199Y-107217976D01*
X160508522Y-107214300D01*
X161712178Y-107214300D01*
X161749500Y-107217976D01*
X161786822Y-107214300D01*
X161786833Y-107214300D01*
X161898486Y-107203303D01*
X162041747Y-107159846D01*
X162173776Y-107089274D01*
X162205600Y-107063157D01*
X162205600Y-107229598D01*
X161656408Y-107778790D01*
X161436260Y-107735000D01*
X161143740Y-107735000D01*
X160856842Y-107792068D01*
X160586589Y-107904010D01*
X160343368Y-108066525D01*
X160136525Y-108273368D01*
X160011822Y-108460000D01*
X156789900Y-108460000D01*
X156789900Y-104141925D01*
X156793576Y-104104600D01*
X156789900Y-104067275D01*
X156789900Y-104067267D01*
X156778903Y-103955614D01*
X156735446Y-103812353D01*
X156713623Y-103771525D01*
X159907405Y-106965308D01*
G37*
X159907405Y-106965308D02*
X159931199Y-106994301D01*
X159960192Y-107018095D01*
X159960196Y-107018099D01*
X160030885Y-107076111D01*
X160046924Y-107089274D01*
X160178953Y-107159846D01*
X160322214Y-107203303D01*
X160433867Y-107214300D01*
X160433876Y-107214300D01*
X160471199Y-107217976D01*
X160508522Y-107214300D01*
X161712178Y-107214300D01*
X161749500Y-107217976D01*
X161786822Y-107214300D01*
X161786833Y-107214300D01*
X161898486Y-107203303D01*
X162041747Y-107159846D01*
X162173776Y-107089274D01*
X162205600Y-107063157D01*
X162205600Y-107229598D01*
X161656408Y-107778790D01*
X161436260Y-107735000D01*
X161143740Y-107735000D01*
X160856842Y-107792068D01*
X160586589Y-107904010D01*
X160343368Y-108066525D01*
X160136525Y-108273368D01*
X160011822Y-108460000D01*
X156789900Y-108460000D01*
X156789900Y-104141925D01*
X156793576Y-104104600D01*
X156789900Y-104067275D01*
X156789900Y-104067267D01*
X156778903Y-103955614D01*
X156735446Y-103812353D01*
X156713623Y-103771525D01*
X159907405Y-106965308D01*
G36*
X161023846Y-103758849D02*
G01*
X160923592Y-103778790D01*
X150470201Y-93325400D01*
X150590399Y-93325400D01*
X161023846Y-103758849D01*
G37*
X161023846Y-103758849D02*
X160923592Y-103778790D01*
X150470201Y-93325400D01*
X150590399Y-93325400D01*
X161023846Y-103758849D01*
G36*
X162205601Y-102790998D02*
G01*
X161963134Y-102548531D01*
X161993411Y-102535990D01*
X162205601Y-102394210D01*
X162205601Y-102790998D01*
G37*
X162205601Y-102790998D02*
X161963134Y-102548531D01*
X161993411Y-102535990D01*
X162205601Y-102394210D01*
X162205601Y-102790998D01*
G36*
X149638665Y-86525000D02*
G01*
X149921335Y-86525000D01*
X150103887Y-86488688D01*
X162205601Y-98590403D01*
X162205601Y-100045791D01*
X161993411Y-99904010D01*
X161723158Y-99792068D01*
X161436260Y-99735000D01*
X161143740Y-99735000D01*
X161092140Y-99745264D01*
X161112168Y-99696912D01*
X161175000Y-99381033D01*
X161175000Y-99058967D01*
X161112168Y-98743088D01*
X160988918Y-98445537D01*
X160809987Y-98177748D01*
X160582252Y-97950013D01*
X160314463Y-97771082D01*
X160016912Y-97647832D01*
X159701033Y-97585000D01*
X159378967Y-97585000D01*
X159063088Y-97647832D01*
X158765537Y-97771082D01*
X158497748Y-97950013D01*
X158270013Y-98177748D01*
X158091082Y-98445537D01*
X158023440Y-98608838D01*
X151674000Y-92259399D01*
X151674000Y-90338623D01*
X151677676Y-90301300D01*
X151674000Y-90263977D01*
X151674000Y-90263967D01*
X151663003Y-90152314D01*
X151619546Y-90009053D01*
X151610390Y-89991924D01*
X151548974Y-89877023D01*
X151477799Y-89790297D01*
X151454001Y-89761299D01*
X151425003Y-89737501D01*
X149383800Y-87696299D01*
X149383800Y-86474304D01*
X149638665Y-86525000D01*
G37*
X149638665Y-86525000D02*
X149921335Y-86525000D01*
X150103887Y-86488688D01*
X162205601Y-98590403D01*
X162205601Y-100045791D01*
X161993411Y-99904010D01*
X161723158Y-99792068D01*
X161436260Y-99735000D01*
X161143740Y-99735000D01*
X161092140Y-99745264D01*
X161112168Y-99696912D01*
X161175000Y-99381033D01*
X161175000Y-99058967D01*
X161112168Y-98743088D01*
X160988918Y-98445537D01*
X160809987Y-98177748D01*
X160582252Y-97950013D01*
X160314463Y-97771082D01*
X160016912Y-97647832D01*
X159701033Y-97585000D01*
X159378967Y-97585000D01*
X159063088Y-97647832D01*
X158765537Y-97771082D01*
X158497748Y-97950013D01*
X158270013Y-98177748D01*
X158091082Y-98445537D01*
X158023440Y-98608838D01*
X151674000Y-92259399D01*
X151674000Y-90338623D01*
X151677676Y-90301300D01*
X151674000Y-90263977D01*
X151674000Y-90263967D01*
X151663003Y-90152314D01*
X151619546Y-90009053D01*
X151610390Y-89991924D01*
X151548974Y-89877023D01*
X151477799Y-89790297D01*
X151454001Y-89761299D01*
X151425003Y-89737501D01*
X149383800Y-87696299D01*
X149383800Y-86474304D01*
X149638665Y-86525000D01*
G36*
X138585363Y-84734759D02*
G01*
X138785241Y-84934637D01*
X139017759Y-85090000D01*
X138785241Y-85245363D01*
X138585363Y-85445241D01*
X138428320Y-85680273D01*
X138320147Y-85941426D01*
X138265000Y-86218665D01*
X138265000Y-86501335D01*
X138320147Y-86778574D01*
X138428320Y-87039727D01*
X138585363Y-87274759D01*
X138785241Y-87474637D01*
X139017759Y-87630000D01*
X138785241Y-87785363D01*
X138585363Y-87985241D01*
X138428320Y-88220273D01*
X138320147Y-88481426D01*
X138265000Y-88758665D01*
X138265000Y-89041335D01*
X138320147Y-89318574D01*
X138428320Y-89579727D01*
X138585363Y-89814759D01*
X138785241Y-90014637D01*
X139017759Y-90170000D01*
X138785241Y-90325363D01*
X138585363Y-90525241D01*
X138428320Y-90760273D01*
X138320147Y-91021426D01*
X138265000Y-91298665D01*
X138265000Y-91581335D01*
X138320147Y-91858574D01*
X138428320Y-92119727D01*
X138585363Y-92354759D01*
X138785241Y-92554637D01*
X139017759Y-92710000D01*
X138785241Y-92865363D01*
X138585363Y-93065241D01*
X138428320Y-93300273D01*
X138320147Y-93561426D01*
X138265000Y-93838665D01*
X138265000Y-94121335D01*
X138320147Y-94398574D01*
X138428320Y-94659727D01*
X138585363Y-94894759D01*
X138785241Y-95094637D01*
X139017759Y-95250000D01*
X138785241Y-95405363D01*
X138585363Y-95605241D01*
X138478053Y-95765842D01*
X138425714Y-95770997D01*
X138282453Y-95814454D01*
X138150424Y-95885026D01*
X138150422Y-95885027D01*
X138150423Y-95885027D01*
X138063696Y-95956201D01*
X138063692Y-95956205D01*
X138034699Y-95979999D01*
X138010905Y-96008992D01*
X136636699Y-97383200D01*
X126354301Y-97383200D01*
X138317004Y-85420498D01*
X138346001Y-85396701D01*
X138440974Y-85280976D01*
X138511546Y-85148947D01*
X138555003Y-85005686D01*
X138566000Y-84894033D01*
X138566000Y-84894023D01*
X138569676Y-84856700D01*
X138566000Y-84819377D01*
X138566000Y-84705780D01*
X138585363Y-84734759D01*
G37*
X138585363Y-84734759D02*
X138785241Y-84934637D01*
X139017759Y-85090000D01*
X138785241Y-85245363D01*
X138585363Y-85445241D01*
X138428320Y-85680273D01*
X138320147Y-85941426D01*
X138265000Y-86218665D01*
X138265000Y-86501335D01*
X138320147Y-86778574D01*
X138428320Y-87039727D01*
X138585363Y-87274759D01*
X138785241Y-87474637D01*
X139017759Y-87630000D01*
X138785241Y-87785363D01*
X138585363Y-87985241D01*
X138428320Y-88220273D01*
X138320147Y-88481426D01*
X138265000Y-88758665D01*
X138265000Y-89041335D01*
X138320147Y-89318574D01*
X138428320Y-89579727D01*
X138585363Y-89814759D01*
X138785241Y-90014637D01*
X139017759Y-90170000D01*
X138785241Y-90325363D01*
X138585363Y-90525241D01*
X138428320Y-90760273D01*
X138320147Y-91021426D01*
X138265000Y-91298665D01*
X138265000Y-91581335D01*
X138320147Y-91858574D01*
X138428320Y-92119727D01*
X138585363Y-92354759D01*
X138785241Y-92554637D01*
X139017759Y-92710000D01*
X138785241Y-92865363D01*
X138585363Y-93065241D01*
X138428320Y-93300273D01*
X138320147Y-93561426D01*
X138265000Y-93838665D01*
X138265000Y-94121335D01*
X138320147Y-94398574D01*
X138428320Y-94659727D01*
X138585363Y-94894759D01*
X138785241Y-95094637D01*
X139017759Y-95250000D01*
X138785241Y-95405363D01*
X138585363Y-95605241D01*
X138478053Y-95765842D01*
X138425714Y-95770997D01*
X138282453Y-95814454D01*
X138150424Y-95885026D01*
X138150422Y-95885027D01*
X138150423Y-95885027D01*
X138063696Y-95956201D01*
X138063692Y-95956205D01*
X138034699Y-95979999D01*
X138010905Y-96008992D01*
X136636699Y-97383200D01*
X126354301Y-97383200D01*
X138317004Y-85420498D01*
X138346001Y-85396701D01*
X138440974Y-85280976D01*
X138511546Y-85148947D01*
X138555003Y-85005686D01*
X138566000Y-84894033D01*
X138566000Y-84894023D01*
X138569676Y-84856700D01*
X138566000Y-84819377D01*
X138566000Y-84705780D01*
X138585363Y-84734759D01*
G36*
X122639398Y-97383200D02*
G01*
X121373301Y-97383200D01*
X121269104Y-97279003D01*
X121245301Y-97249999D01*
X121129576Y-97155026D01*
X121018072Y-97095425D01*
X121018072Y-96837500D01*
X121005812Y-96713018D01*
X120969502Y-96593320D01*
X120910537Y-96483006D01*
X120831185Y-96386315D01*
X120734494Y-96306963D01*
X120650554Y-96262095D01*
X120753845Y-96136235D01*
X120901255Y-95860449D01*
X120951386Y-95695188D01*
X122639398Y-97383200D01*
G37*
X122639398Y-97383200D02*
X121373301Y-97383200D01*
X121269104Y-97279003D01*
X121245301Y-97249999D01*
X121129576Y-97155026D01*
X121018072Y-97095425D01*
X121018072Y-96837500D01*
X121005812Y-96713018D01*
X120969502Y-96593320D01*
X120910537Y-96483006D01*
X120831185Y-96386315D01*
X120734494Y-96306963D01*
X120650554Y-96262095D01*
X120753845Y-96136235D01*
X120901255Y-95860449D01*
X120951386Y-95695188D01*
X122639398Y-97383200D01*
G36*
X146285499Y-91295601D02*
G01*
X146315060Y-91319861D01*
X152211464Y-97216266D01*
X152096186Y-97181297D01*
X151984533Y-97170300D01*
X151984522Y-97170300D01*
X151947200Y-97166624D01*
X151909878Y-97170300D01*
X149233402Y-97170300D01*
X145540000Y-93476899D01*
X145540000Y-92658043D01*
X145694759Y-92554637D01*
X145894637Y-92354759D01*
X146051680Y-92119727D01*
X146159853Y-91858574D01*
X146215000Y-91581335D01*
X146215000Y-91298665D01*
X146191641Y-91181235D01*
X146285499Y-91295601D01*
G37*
X146285499Y-91295601D02*
X146315060Y-91319861D01*
X152211464Y-97216266D01*
X152096186Y-97181297D01*
X151984533Y-97170300D01*
X151984522Y-97170300D01*
X151947200Y-97166624D01*
X151909878Y-97170300D01*
X149233402Y-97170300D01*
X145540000Y-93476899D01*
X145540000Y-92658043D01*
X145694759Y-92554637D01*
X145894637Y-92354759D01*
X146051680Y-92119727D01*
X146159853Y-91858574D01*
X146215000Y-91581335D01*
X146215000Y-91298665D01*
X146191641Y-91181235D01*
X146285499Y-91295601D01*
G36*
X137294998Y-60697301D02*
G01*
X137266000Y-60721099D01*
X137242202Y-60750097D01*
X137242201Y-60750098D01*
X137171026Y-60836824D01*
X137100454Y-60968854D01*
X137056998Y-61112115D01*
X137042324Y-61261100D01*
X137046001Y-61298433D01*
X137046000Y-84541898D01*
X125736350Y-95851548D01*
X125731680Y-95840273D01*
X125574637Y-95605241D01*
X125374759Y-95405363D01*
X125214158Y-95298053D01*
X125209003Y-95245714D01*
X125198833Y-95212187D01*
X125374759Y-95094637D01*
X125574637Y-94894759D01*
X125731680Y-94659727D01*
X125839853Y-94398574D01*
X125895000Y-94121335D01*
X125895000Y-93838665D01*
X125839853Y-93561426D01*
X125731680Y-93300273D01*
X125574637Y-93065241D01*
X125374759Y-92865363D01*
X125214158Y-92758053D01*
X125209003Y-92705714D01*
X125198833Y-92672187D01*
X125374759Y-92554637D01*
X125574637Y-92354759D01*
X125731680Y-92119727D01*
X125839853Y-91858574D01*
X125895000Y-91581335D01*
X125895000Y-91298665D01*
X125839853Y-91021426D01*
X125731680Y-90760273D01*
X125587023Y-90543778D01*
X126565603Y-89565199D01*
X126594601Y-89541401D01*
X126689574Y-89425676D01*
X126760146Y-89293647D01*
X126803603Y-89150386D01*
X126814600Y-89038733D01*
X126814600Y-89038725D01*
X126818276Y-89001400D01*
X126814600Y-88964075D01*
X126814600Y-68618222D01*
X126818276Y-68580899D01*
X126814600Y-68543577D01*
X126814600Y-68543567D01*
X126803603Y-68431914D01*
X126760146Y-68288653D01*
X126689575Y-68156625D01*
X126689574Y-68156623D01*
X126618399Y-68069897D01*
X126594601Y-68040899D01*
X126565604Y-68017102D01*
X125538949Y-66990447D01*
X125574637Y-66954759D01*
X125731680Y-66719727D01*
X125839853Y-66458574D01*
X125895000Y-66181335D01*
X125895000Y-65898665D01*
X125839853Y-65621426D01*
X125731680Y-65360273D01*
X125574637Y-65125241D01*
X125374759Y-64925363D01*
X125142241Y-64770000D01*
X125374759Y-64614637D01*
X125574637Y-64414759D01*
X125731680Y-64179727D01*
X125839853Y-63918574D01*
X125895000Y-63641335D01*
X125895000Y-63358665D01*
X125839853Y-63081426D01*
X125742088Y-62845400D01*
X126791678Y-62845400D01*
X126829000Y-62849076D01*
X126866322Y-62845400D01*
X126866333Y-62845400D01*
X126977986Y-62834403D01*
X127121247Y-62790946D01*
X127253276Y-62720374D01*
X127369001Y-62625401D01*
X127392804Y-62596397D01*
X129876602Y-60112600D01*
X137879699Y-60112600D01*
X137294998Y-60697301D01*
G37*
X137294998Y-60697301D02*
X137266000Y-60721099D01*
X137242202Y-60750097D01*
X137242201Y-60750098D01*
X137171026Y-60836824D01*
X137100454Y-60968854D01*
X137056998Y-61112115D01*
X137042324Y-61261100D01*
X137046001Y-61298433D01*
X137046000Y-84541898D01*
X125736350Y-95851548D01*
X125731680Y-95840273D01*
X125574637Y-95605241D01*
X125374759Y-95405363D01*
X125214158Y-95298053D01*
X125209003Y-95245714D01*
X125198833Y-95212187D01*
X125374759Y-95094637D01*
X125574637Y-94894759D01*
X125731680Y-94659727D01*
X125839853Y-94398574D01*
X125895000Y-94121335D01*
X125895000Y-93838665D01*
X125839853Y-93561426D01*
X125731680Y-93300273D01*
X125574637Y-93065241D01*
X125374759Y-92865363D01*
X125214158Y-92758053D01*
X125209003Y-92705714D01*
X125198833Y-92672187D01*
X125374759Y-92554637D01*
X125574637Y-92354759D01*
X125731680Y-92119727D01*
X125839853Y-91858574D01*
X125895000Y-91581335D01*
X125895000Y-91298665D01*
X125839853Y-91021426D01*
X125731680Y-90760273D01*
X125587023Y-90543778D01*
X126565603Y-89565199D01*
X126594601Y-89541401D01*
X126689574Y-89425676D01*
X126760146Y-89293647D01*
X126803603Y-89150386D01*
X126814600Y-89038733D01*
X126814600Y-89038725D01*
X126818276Y-89001400D01*
X126814600Y-88964075D01*
X126814600Y-68618222D01*
X126818276Y-68580899D01*
X126814600Y-68543577D01*
X126814600Y-68543567D01*
X126803603Y-68431914D01*
X126760146Y-68288653D01*
X126689575Y-68156625D01*
X126689574Y-68156623D01*
X126618399Y-68069897D01*
X126594601Y-68040899D01*
X126565604Y-68017102D01*
X125538949Y-66990447D01*
X125574637Y-66954759D01*
X125731680Y-66719727D01*
X125839853Y-66458574D01*
X125895000Y-66181335D01*
X125895000Y-65898665D01*
X125839853Y-65621426D01*
X125731680Y-65360273D01*
X125574637Y-65125241D01*
X125374759Y-64925363D01*
X125142241Y-64770000D01*
X125374759Y-64614637D01*
X125574637Y-64414759D01*
X125731680Y-64179727D01*
X125839853Y-63918574D01*
X125895000Y-63641335D01*
X125895000Y-63358665D01*
X125839853Y-63081426D01*
X125742088Y-62845400D01*
X126791678Y-62845400D01*
X126829000Y-62849076D01*
X126866322Y-62845400D01*
X126866333Y-62845400D01*
X126977986Y-62834403D01*
X127121247Y-62790946D01*
X127253276Y-62720374D01*
X127369001Y-62625401D01*
X127392804Y-62596397D01*
X129876602Y-60112600D01*
X137879699Y-60112600D01*
X137294998Y-60697301D01*
G36*
X123332937Y-95623839D02*
G01*
X123211453Y-95805652D01*
X120840296Y-93434495D01*
X120901255Y-93320449D01*
X120931114Y-93222016D01*
X123332937Y-95623839D01*
G37*
X123332937Y-95623839D02*
X123211453Y-95805652D01*
X120840296Y-93434495D01*
X120901255Y-93320449D01*
X120931114Y-93222016D01*
X123332937Y-95623839D01*
G36*
X118377609Y-93980000D02*
G01*
X118310200Y-94035321D01*
X118310200Y-93924679D01*
X118377609Y-93980000D01*
G37*
X118377609Y-93980000D02*
X118310200Y-94035321D01*
X118310200Y-93924679D01*
X118377609Y-93980000D01*
G36*
X117928815Y-76333685D02*
G01*
X118025506Y-76413037D01*
X118135820Y-76472002D01*
X118255518Y-76508312D01*
X118380000Y-76520572D01*
X118685425Y-76520572D01*
X118745026Y-76632076D01*
X118809800Y-76711002D01*
X118840000Y-76747801D01*
X118868998Y-76771599D01*
X122574700Y-80477303D01*
X122574701Y-91973468D01*
X122571024Y-92010800D01*
X122574701Y-92048133D01*
X122585698Y-92159786D01*
X122594561Y-92189003D01*
X122629154Y-92303046D01*
X122699726Y-92435076D01*
X122760394Y-92508999D01*
X122794700Y-92550801D01*
X122823698Y-92574599D01*
X123332937Y-93083838D01*
X123188320Y-93300273D01*
X123179725Y-93321023D01*
X120140000Y-90281299D01*
X120140000Y-87950572D01*
X120380000Y-87950572D01*
X120504482Y-87938312D01*
X120624180Y-87902002D01*
X120734494Y-87843037D01*
X120831185Y-87763685D01*
X120910537Y-87666994D01*
X120969502Y-87556680D01*
X121005812Y-87436982D01*
X121018072Y-87312500D01*
X121018072Y-85407500D01*
X121005812Y-85283018D01*
X120969502Y-85163320D01*
X120910537Y-85053006D01*
X120831185Y-84956315D01*
X120734494Y-84876963D01*
X120650554Y-84832095D01*
X120753845Y-84706235D01*
X120901255Y-84430449D01*
X120992030Y-84131204D01*
X121022681Y-83820000D01*
X120992030Y-83508796D01*
X120939424Y-83335378D01*
X121258703Y-83016099D01*
X121287701Y-82992301D01*
X121335740Y-82933765D01*
X121382674Y-82876577D01*
X121453246Y-82744547D01*
X121478937Y-82659853D01*
X121496703Y-82601286D01*
X121507700Y-82489633D01*
X121507700Y-82489623D01*
X121511376Y-82452300D01*
X121507700Y-82414977D01*
X121507700Y-80815722D01*
X121511376Y-80778399D01*
X121507700Y-80741076D01*
X121507700Y-80741067D01*
X121496703Y-80629414D01*
X121453246Y-80486153D01*
X121417899Y-80420024D01*
X121382674Y-80354123D01*
X121311499Y-80267397D01*
X121287701Y-80238399D01*
X121258704Y-80214602D01*
X120529003Y-79484902D01*
X120505201Y-79455899D01*
X120389476Y-79360926D01*
X120257447Y-79290354D01*
X120114186Y-79246897D01*
X120002533Y-79235900D01*
X120002522Y-79235900D01*
X119965200Y-79232224D01*
X119927878Y-79235900D01*
X118788922Y-79235900D01*
X118751599Y-79232224D01*
X118714276Y-79235900D01*
X118714267Y-79235900D01*
X118602614Y-79246897D01*
X118459353Y-79290354D01*
X118327324Y-79360926D01*
X118211599Y-79455899D01*
X118187801Y-79484897D01*
X117859800Y-79812898D01*
X117859800Y-76249590D01*
X117928815Y-76333685D01*
G37*
X117928815Y-76333685D02*
X118025506Y-76413037D01*
X118135820Y-76472002D01*
X118255518Y-76508312D01*
X118380000Y-76520572D01*
X118685425Y-76520572D01*
X118745026Y-76632076D01*
X118809800Y-76711002D01*
X118840000Y-76747801D01*
X118868998Y-76771599D01*
X122574700Y-80477303D01*
X122574701Y-91973468D01*
X122571024Y-92010800D01*
X122574701Y-92048133D01*
X122585698Y-92159786D01*
X122594561Y-92189003D01*
X122629154Y-92303046D01*
X122699726Y-92435076D01*
X122760394Y-92508999D01*
X122794700Y-92550801D01*
X122823698Y-92574599D01*
X123332937Y-93083838D01*
X123188320Y-93300273D01*
X123179725Y-93321023D01*
X120140000Y-90281299D01*
X120140000Y-87950572D01*
X120380000Y-87950572D01*
X120504482Y-87938312D01*
X120624180Y-87902002D01*
X120734494Y-87843037D01*
X120831185Y-87763685D01*
X120910537Y-87666994D01*
X120969502Y-87556680D01*
X121005812Y-87436982D01*
X121018072Y-87312500D01*
X121018072Y-85407500D01*
X121005812Y-85283018D01*
X120969502Y-85163320D01*
X120910537Y-85053006D01*
X120831185Y-84956315D01*
X120734494Y-84876963D01*
X120650554Y-84832095D01*
X120753845Y-84706235D01*
X120901255Y-84430449D01*
X120992030Y-84131204D01*
X121022681Y-83820000D01*
X120992030Y-83508796D01*
X120939424Y-83335378D01*
X121258703Y-83016099D01*
X121287701Y-82992301D01*
X121335740Y-82933765D01*
X121382674Y-82876577D01*
X121453246Y-82744547D01*
X121478937Y-82659853D01*
X121496703Y-82601286D01*
X121507700Y-82489633D01*
X121507700Y-82489623D01*
X121511376Y-82452300D01*
X121507700Y-82414977D01*
X121507700Y-80815722D01*
X121511376Y-80778399D01*
X121507700Y-80741076D01*
X121507700Y-80741067D01*
X121496703Y-80629414D01*
X121453246Y-80486153D01*
X121417899Y-80420024D01*
X121382674Y-80354123D01*
X121311499Y-80267397D01*
X121287701Y-80238399D01*
X121258704Y-80214602D01*
X120529003Y-79484902D01*
X120505201Y-79455899D01*
X120389476Y-79360926D01*
X120257447Y-79290354D01*
X120114186Y-79246897D01*
X120002533Y-79235900D01*
X120002522Y-79235900D01*
X119965200Y-79232224D01*
X119927878Y-79235900D01*
X118788922Y-79235900D01*
X118751599Y-79232224D01*
X118714276Y-79235900D01*
X118714267Y-79235900D01*
X118602614Y-79246897D01*
X118459353Y-79290354D01*
X118327324Y-79360926D01*
X118211599Y-79455899D01*
X118187801Y-79484897D01*
X117859800Y-79812898D01*
X117859800Y-76249590D01*
X117928815Y-76333685D01*
G36*
X118342122Y-91469123D02*
G01*
X118310200Y-91495321D01*
X118310200Y-91437202D01*
X118342122Y-91469123D01*
G37*
X118342122Y-91469123D02*
X118310200Y-91495321D01*
X118310200Y-91437202D01*
X118342122Y-91469123D01*
G36*
X146065500Y-85801302D02*
G01*
X146065501Y-90718257D01*
X146061823Y-90755600D01*
X146065591Y-90793857D01*
X146051680Y-90760273D01*
X145894637Y-90525241D01*
X145694759Y-90325363D01*
X145540000Y-90221957D01*
X145540000Y-86308043D01*
X145694759Y-86204637D01*
X145894637Y-86004759D01*
X146044568Y-85780370D01*
X146065500Y-85801302D01*
G37*
X146065500Y-85801302D02*
X146065501Y-90718257D01*
X146061823Y-90755600D01*
X146065591Y-90793857D01*
X146051680Y-90760273D01*
X145894637Y-90525241D01*
X145694759Y-90325363D01*
X145540000Y-90221957D01*
X145540000Y-86308043D01*
X145694759Y-86204637D01*
X145894637Y-86004759D01*
X146044568Y-85780370D01*
X146065500Y-85801302D01*
G36*
X149558787Y-90020889D02*
G01*
X149456114Y-90041312D01*
X148933500Y-89518699D01*
X148933500Y-89395601D01*
X149558787Y-90020889D01*
G37*
X149558787Y-90020889D02*
X149456114Y-90041312D01*
X148933500Y-89518699D01*
X148933500Y-89395601D01*
X149558787Y-90020889D01*
G36*
X125294601Y-87731803D02*
G01*
X125142241Y-87630000D01*
X125294601Y-87528197D01*
X125294601Y-87731803D01*
G37*
X125294601Y-87731803D02*
X125142241Y-87630000D01*
X125294601Y-87528197D01*
X125294601Y-87731803D01*
G36*
X125294601Y-85191803D02*
G01*
X125142241Y-85090000D01*
X125294601Y-84988197D01*
X125294601Y-85191803D01*
G37*
X125294601Y-85191803D02*
X125142241Y-85090000D01*
X125294601Y-84988197D01*
X125294601Y-85191803D01*
G36*
X142894600Y-63613202D02*
G01*
X142894601Y-79839767D01*
X142890924Y-79877100D01*
X142894601Y-79914433D01*
X142905598Y-80026086D01*
X142914409Y-80055133D01*
X142949054Y-80169346D01*
X143019626Y-80301376D01*
X143078079Y-80372600D01*
X143114600Y-80417101D01*
X143143598Y-80440899D01*
X146963100Y-84260402D01*
X146963100Y-84549298D01*
X145812904Y-83399103D01*
X145789101Y-83370099D01*
X145673376Y-83275126D01*
X145541347Y-83204554D01*
X145398086Y-83161097D01*
X145286433Y-83150100D01*
X145286422Y-83150100D01*
X145249100Y-83146424D01*
X145211778Y-83150100D01*
X144677603Y-83150100D01*
X141585300Y-80057799D01*
X141585300Y-62966523D01*
X141588976Y-62929200D01*
X141585300Y-62891877D01*
X141585300Y-62891867D01*
X141574303Y-62780214D01*
X141530846Y-62636953D01*
X141460274Y-62504924D01*
X141365301Y-62389199D01*
X141336303Y-62365401D01*
X140827063Y-61856162D01*
X140951431Y-61670032D01*
X142894600Y-63613202D01*
G37*
X142894600Y-63613202D02*
X142894601Y-79839767D01*
X142890924Y-79877100D01*
X142894601Y-79914433D01*
X142905598Y-80026086D01*
X142914409Y-80055133D01*
X142949054Y-80169346D01*
X143019626Y-80301376D01*
X143078079Y-80372600D01*
X143114600Y-80417101D01*
X143143598Y-80440899D01*
X146963100Y-84260402D01*
X146963100Y-84549298D01*
X145812904Y-83399103D01*
X145789101Y-83370099D01*
X145673376Y-83275126D01*
X145541347Y-83204554D01*
X145398086Y-83161097D01*
X145286433Y-83150100D01*
X145286422Y-83150100D01*
X145249100Y-83146424D01*
X145211778Y-83150100D01*
X144677603Y-83150100D01*
X141585300Y-80057799D01*
X141585300Y-62966523D01*
X141588976Y-62929200D01*
X141585300Y-62891877D01*
X141585300Y-62891867D01*
X141574303Y-62780214D01*
X141530846Y-62636953D01*
X141460274Y-62504924D01*
X141365301Y-62389199D01*
X141336303Y-62365401D01*
X140827063Y-61856162D01*
X140951431Y-61670032D01*
X142894600Y-63613202D01*
G36*
X150055000Y-83681588D02*
G01*
X149921335Y-83655000D01*
X149638665Y-83655000D01*
X149383800Y-83705696D01*
X149383800Y-81992501D01*
X150055000Y-81321302D01*
X150055000Y-83681588D01*
G37*
X150055000Y-83681588D02*
X149921335Y-83655000D01*
X149638665Y-83655000D01*
X149383800Y-83705696D01*
X149383800Y-81992501D01*
X150055000Y-81321302D01*
X150055000Y-83681588D01*
G36*
X138585363Y-82194759D02*
G01*
X138785241Y-82394637D01*
X139017759Y-82550000D01*
X138785241Y-82705363D01*
X138585363Y-82905241D01*
X138566000Y-82934220D01*
X138566000Y-82165780D01*
X138585363Y-82194759D01*
G37*
X138585363Y-82194759D02*
X138785241Y-82394637D01*
X139017759Y-82550000D01*
X138785241Y-82705363D01*
X138585363Y-82905241D01*
X138566000Y-82934220D01*
X138566000Y-82165780D01*
X138585363Y-82194759D01*
G36*
X125294601Y-82651803D02*
G01*
X125142241Y-82550000D01*
X125294601Y-82448197D01*
X125294601Y-82651803D01*
G37*
X125294601Y-82651803D02*
X125142241Y-82550000D01*
X125294601Y-82448197D01*
X125294601Y-82651803D01*
G36*
X147440576Y-78255378D02*
G01*
X147387970Y-78428796D01*
X147357319Y-78740000D01*
X147387970Y-79051204D01*
X147478745Y-79350449D01*
X147626155Y-79626235D01*
X147824537Y-79867963D01*
X147962122Y-79980877D01*
X147662498Y-80280501D01*
X147633500Y-80304299D01*
X147609702Y-80333297D01*
X147609701Y-80333298D01*
X147538526Y-80420024D01*
X147467954Y-80552054D01*
X147444488Y-80629414D01*
X147424498Y-80695314D01*
X147423894Y-80701446D01*
X147409824Y-80844300D01*
X147413501Y-80881632D01*
X147413501Y-82561199D01*
X144414600Y-79562299D01*
X144414600Y-75229401D01*
X147440576Y-78255378D01*
G37*
X147440576Y-78255378D02*
X147387970Y-78428796D01*
X147357319Y-78740000D01*
X147387970Y-79051204D01*
X147478745Y-79350449D01*
X147626155Y-79626235D01*
X147824537Y-79867963D01*
X147962122Y-79980877D01*
X147662498Y-80280501D01*
X147633500Y-80304299D01*
X147609702Y-80333297D01*
X147609701Y-80333298D01*
X147538526Y-80420024D01*
X147467954Y-80552054D01*
X147444488Y-80629414D01*
X147424498Y-80695314D01*
X147423894Y-80701446D01*
X147409824Y-80844300D01*
X147413501Y-80881632D01*
X147413501Y-82561199D01*
X144414600Y-79562299D01*
X144414600Y-75229401D01*
X147440576Y-78255378D01*
G36*
X138585363Y-79654759D02*
G01*
X138785241Y-79854637D01*
X139017759Y-80010000D01*
X138785241Y-80165363D01*
X138585363Y-80365241D01*
X138566000Y-80394220D01*
X138566000Y-79625780D01*
X138585363Y-79654759D01*
G37*
X138585363Y-79654759D02*
X138785241Y-79854637D01*
X139017759Y-80010000D01*
X138785241Y-80165363D01*
X138585363Y-80365241D01*
X138566000Y-80394220D01*
X138566000Y-79625780D01*
X138585363Y-79654759D01*
G36*
X125294601Y-80111803D02*
G01*
X125142241Y-80010000D01*
X125294601Y-79908197D01*
X125294601Y-80111803D01*
G37*
X125294601Y-80111803D02*
X125142241Y-80010000D01*
X125294601Y-79908197D01*
X125294601Y-80111803D01*
G36*
X123374301Y-75256303D02*
G01*
X123345363Y-75285241D01*
X123188320Y-75520273D01*
X123080147Y-75781426D01*
X123025000Y-76058665D01*
X123025000Y-76341335D01*
X123080147Y-76618574D01*
X123188320Y-76879727D01*
X123345363Y-77114759D01*
X123545241Y-77314637D01*
X123777759Y-77470000D01*
X123545241Y-77625363D01*
X123345363Y-77825241D01*
X123188320Y-78060273D01*
X123080147Y-78321426D01*
X123025000Y-78598665D01*
X123025000Y-78777997D01*
X120685974Y-76438972D01*
X120734494Y-76413037D01*
X120831185Y-76333685D01*
X120910537Y-76236994D01*
X120969502Y-76126680D01*
X121005812Y-76006982D01*
X121018072Y-75882500D01*
X121018072Y-73977500D01*
X121005812Y-73853018D01*
X120969502Y-73733320D01*
X120910537Y-73623006D01*
X120831185Y-73526315D01*
X120734494Y-73446963D01*
X120650554Y-73402095D01*
X120753845Y-73276235D01*
X120901255Y-73000449D01*
X120951805Y-72833807D01*
X123374301Y-75256303D01*
G37*
X123374301Y-75256303D02*
X123345363Y-75285241D01*
X123188320Y-75520273D01*
X123080147Y-75781426D01*
X123025000Y-76058665D01*
X123025000Y-76341335D01*
X123080147Y-76618574D01*
X123188320Y-76879727D01*
X123345363Y-77114759D01*
X123545241Y-77314637D01*
X123777759Y-77470000D01*
X123545241Y-77625363D01*
X123345363Y-77825241D01*
X123188320Y-78060273D01*
X123080147Y-78321426D01*
X123025000Y-78598665D01*
X123025000Y-78777997D01*
X120685974Y-76438972D01*
X120734494Y-76413037D01*
X120831185Y-76333685D01*
X120910537Y-76236994D01*
X120969502Y-76126680D01*
X121005812Y-76006982D01*
X121018072Y-75882500D01*
X121018072Y-73977500D01*
X121005812Y-73853018D01*
X120969502Y-73733320D01*
X120910537Y-73623006D01*
X120831185Y-73526315D01*
X120734494Y-73446963D01*
X120650554Y-73402095D01*
X120753845Y-73276235D01*
X120901255Y-73000449D01*
X120951805Y-72833807D01*
X123374301Y-75256303D01*
G36*
X138585363Y-77114759D02*
G01*
X138785241Y-77314637D01*
X139017759Y-77470000D01*
X138785241Y-77625363D01*
X138585363Y-77825241D01*
X138566000Y-77854220D01*
X138566000Y-77085780D01*
X138585363Y-77114759D01*
G37*
X138585363Y-77114759D02*
X138785241Y-77314637D01*
X139017759Y-77470000D01*
X138785241Y-77625363D01*
X138585363Y-77825241D01*
X138566000Y-77854220D01*
X138566000Y-77085780D01*
X138585363Y-77114759D01*
G36*
X125294600Y-77571803D02*
G01*
X125142241Y-77470000D01*
X125294600Y-77368197D01*
X125294600Y-77571803D01*
G37*
X125294600Y-77571803D02*
X125142241Y-77470000D01*
X125294600Y-77368197D01*
X125294600Y-77571803D01*
G36*
X146365241Y-65884637D02*
G01*
X146520001Y-65988044D01*
X146520000Y-74442678D01*
X146516324Y-74480000D01*
X146520000Y-74517322D01*
X146520000Y-74517332D01*
X146530997Y-74628985D01*
X146555974Y-74711323D01*
X146574454Y-74772246D01*
X146645026Y-74904276D01*
X146664759Y-74928320D01*
X146739999Y-75020001D01*
X146769003Y-75043804D01*
X147440576Y-75715377D01*
X147387970Y-75888796D01*
X147373232Y-76038431D01*
X145540000Y-74205199D01*
X145540000Y-66208072D01*
X145580000Y-66208072D01*
X145704482Y-66195812D01*
X145824180Y-66159502D01*
X145934494Y-66100537D01*
X146031185Y-66021185D01*
X146110537Y-65924494D01*
X146169502Y-65814180D01*
X146198661Y-65718057D01*
X146365241Y-65884637D01*
G37*
X146365241Y-65884637D02*
X146520001Y-65988044D01*
X146520000Y-74442678D01*
X146516324Y-74480000D01*
X146520000Y-74517322D01*
X146520000Y-74517332D01*
X146530997Y-74628985D01*
X146555974Y-74711323D01*
X146574454Y-74772246D01*
X146645026Y-74904276D01*
X146664759Y-74928320D01*
X146739999Y-75020001D01*
X146769003Y-75043804D01*
X147440576Y-75715377D01*
X147387970Y-75888796D01*
X147373232Y-76038431D01*
X145540000Y-74205199D01*
X145540000Y-66208072D01*
X145580000Y-66208072D01*
X145704482Y-66195812D01*
X145824180Y-66159502D01*
X145934494Y-66100537D01*
X146031185Y-66021185D01*
X146110537Y-65924494D01*
X146169502Y-65814180D01*
X146198661Y-65718057D01*
X146365241Y-65884637D01*
G36*
X138585363Y-74574759D02*
G01*
X138785241Y-74774637D01*
X139017759Y-74930000D01*
X138785241Y-75085363D01*
X138585363Y-75285241D01*
X138566000Y-75314220D01*
X138566000Y-74545780D01*
X138585363Y-74574759D01*
G37*
X138585363Y-74574759D02*
X138785241Y-74774637D01*
X139017759Y-74930000D01*
X138785241Y-75085363D01*
X138585363Y-75285241D01*
X138566000Y-75314220D01*
X138566000Y-74545780D01*
X138585363Y-74574759D01*
G36*
X123345073Y-72745676D02*
G01*
X123212174Y-72944573D01*
X120840923Y-70573322D01*
X120901255Y-70460449D01*
X120938166Y-70338769D01*
X123345073Y-72745676D01*
G37*
X123345073Y-72745676D02*
X123212174Y-72944573D01*
X120840923Y-70573322D01*
X120901255Y-70460449D01*
X120938166Y-70338769D01*
X123345073Y-72745676D01*
G36*
X138585363Y-72034759D02*
G01*
X138785241Y-72234637D01*
X139017759Y-72390000D01*
X138785241Y-72545363D01*
X138585363Y-72745241D01*
X138566000Y-72774220D01*
X138566000Y-72005780D01*
X138585363Y-72034759D01*
G37*
X138585363Y-72034759D02*
X138785241Y-72234637D01*
X139017759Y-72390000D01*
X138785241Y-72545363D01*
X138585363Y-72745241D01*
X138566000Y-72774220D01*
X138566000Y-72005780D01*
X138585363Y-72034759D01*
G36*
X138585363Y-69494759D02*
G01*
X138785241Y-69694637D01*
X139017759Y-69850000D01*
X138785241Y-70005363D01*
X138585363Y-70205241D01*
X138566000Y-70234220D01*
X138566000Y-69465780D01*
X138585363Y-69494759D01*
G37*
X138585363Y-69494759D02*
X138785241Y-69694637D01*
X139017759Y-69850000D01*
X138785241Y-70005363D01*
X138585363Y-70205241D01*
X138566000Y-70234220D01*
X138566000Y-69465780D01*
X138585363Y-69494759D01*
G36*
X138585363Y-66954759D02*
G01*
X138785241Y-67154637D01*
X139017759Y-67310000D01*
X138785241Y-67465363D01*
X138585363Y-67665241D01*
X138566000Y-67694220D01*
X138566000Y-66925780D01*
X138585363Y-66954759D01*
G37*
X138585363Y-66954759D02*
X138785241Y-67154637D01*
X139017759Y-67310000D01*
X138785241Y-67465363D01*
X138585363Y-67665241D01*
X138566000Y-67694220D01*
X138566000Y-66925780D01*
X138585363Y-66954759D01*
G36*
X123080147Y-63918574D02*
G01*
X123188320Y-64179727D01*
X123345363Y-64414759D01*
X123545241Y-64614637D01*
X123777759Y-64770000D01*
X123545241Y-64925363D01*
X123345363Y-65125241D01*
X123188320Y-65360273D01*
X123080147Y-65621426D01*
X123031681Y-65865079D01*
X121291101Y-64124500D01*
X122244978Y-64124500D01*
X122282300Y-64128176D01*
X122319622Y-64124500D01*
X122319633Y-64124500D01*
X122431286Y-64113503D01*
X122574547Y-64070046D01*
X122706576Y-63999474D01*
X122822301Y-63904501D01*
X122846104Y-63875497D01*
X123034169Y-63687432D01*
X123080147Y-63918574D01*
G37*
X123080147Y-63918574D02*
X123188320Y-64179727D01*
X123345363Y-64414759D01*
X123545241Y-64614637D01*
X123777759Y-64770000D01*
X123545241Y-64925363D01*
X123345363Y-65125241D01*
X123188320Y-65360273D01*
X123080147Y-65621426D01*
X123031681Y-65865079D01*
X121291101Y-64124500D01*
X122244978Y-64124500D01*
X122282300Y-64128176D01*
X122319622Y-64124500D01*
X122319633Y-64124500D01*
X122431286Y-64113503D01*
X122574547Y-64070046D01*
X122706576Y-63999474D01*
X122822301Y-63904501D01*
X122846104Y-63875497D01*
X123034169Y-63687432D01*
X123080147Y-63918574D01*
G36*
X138585363Y-64414759D02*
G01*
X138785241Y-64614637D01*
X139017759Y-64770000D01*
X138785241Y-64925363D01*
X138585363Y-65125241D01*
X138566000Y-65154220D01*
X138566000Y-64385780D01*
X138585363Y-64414759D01*
G37*
X138585363Y-64414759D02*
X138785241Y-64614637D01*
X139017759Y-64770000D01*
X138785241Y-64925363D01*
X138585363Y-65125241D01*
X138566000Y-65154220D01*
X138566000Y-64385780D01*
X138585363Y-64414759D01*
G36*
X154224700Y-56750498D02*
G01*
X147603887Y-63371312D01*
X147421335Y-63335000D01*
X147138665Y-63335000D01*
X146861426Y-63390147D01*
X146600273Y-63498320D01*
X146365241Y-63655363D01*
X146198661Y-63821943D01*
X146169502Y-63725820D01*
X146110537Y-63615506D01*
X146031185Y-63518815D01*
X145934494Y-63439463D01*
X145824180Y-63380498D01*
X145704482Y-63344188D01*
X145580000Y-63331928D01*
X145474575Y-63331928D01*
X145436699Y-63261068D01*
X145414974Y-63220423D01*
X145343799Y-63133697D01*
X145320001Y-63104699D01*
X145291003Y-63080901D01*
X141051704Y-58841603D01*
X141027901Y-58812599D01*
X140912176Y-58717626D01*
X140780147Y-58647054D01*
X140636886Y-58603597D01*
X140525233Y-58592600D01*
X140525222Y-58592600D01*
X140487900Y-58588924D01*
X140450578Y-58592600D01*
X129599123Y-58592600D01*
X129561800Y-58588924D01*
X129524477Y-58592600D01*
X129524467Y-58592600D01*
X129412814Y-58603597D01*
X129269553Y-58647054D01*
X129137524Y-58717626D01*
X129021799Y-58812599D01*
X128998001Y-58841597D01*
X126514199Y-61325400D01*
X125898072Y-61325400D01*
X125898072Y-60160000D01*
X125885812Y-60035518D01*
X125849502Y-59915820D01*
X125790537Y-59805506D01*
X125711185Y-59708815D01*
X125614494Y-59629463D01*
X125504180Y-59570498D01*
X125384482Y-59534188D01*
X125260000Y-59521928D01*
X124432874Y-59521928D01*
X127459403Y-56495400D01*
X151237278Y-56495400D01*
X151274600Y-56499076D01*
X151311922Y-56495400D01*
X151311933Y-56495400D01*
X151423586Y-56484403D01*
X151566847Y-56440946D01*
X151698876Y-56370374D01*
X151814601Y-56275401D01*
X151838404Y-56246397D01*
X153261070Y-54823731D01*
X153518816Y-54875000D01*
X153821184Y-54875000D01*
X154117743Y-54816011D01*
X154224701Y-54771707D01*
X154224700Y-56750498D01*
G37*
X154224700Y-56750498D02*
X147603887Y-63371312D01*
X147421335Y-63335000D01*
X147138665Y-63335000D01*
X146861426Y-63390147D01*
X146600273Y-63498320D01*
X146365241Y-63655363D01*
X146198661Y-63821943D01*
X146169502Y-63725820D01*
X146110537Y-63615506D01*
X146031185Y-63518815D01*
X145934494Y-63439463D01*
X145824180Y-63380498D01*
X145704482Y-63344188D01*
X145580000Y-63331928D01*
X145474575Y-63331928D01*
X145436699Y-63261068D01*
X145414974Y-63220423D01*
X145343799Y-63133697D01*
X145320001Y-63104699D01*
X145291003Y-63080901D01*
X141051704Y-58841603D01*
X141027901Y-58812599D01*
X140912176Y-58717626D01*
X140780147Y-58647054D01*
X140636886Y-58603597D01*
X140525233Y-58592600D01*
X140525222Y-58592600D01*
X140487900Y-58588924D01*
X140450578Y-58592600D01*
X129599123Y-58592600D01*
X129561800Y-58588924D01*
X129524477Y-58592600D01*
X129524467Y-58592600D01*
X129412814Y-58603597D01*
X129269553Y-58647054D01*
X129137524Y-58717626D01*
X129021799Y-58812599D01*
X128998001Y-58841597D01*
X126514199Y-61325400D01*
X125898072Y-61325400D01*
X125898072Y-60160000D01*
X125885812Y-60035518D01*
X125849502Y-59915820D01*
X125790537Y-59805506D01*
X125711185Y-59708815D01*
X125614494Y-59629463D01*
X125504180Y-59570498D01*
X125384482Y-59534188D01*
X125260000Y-59521928D01*
X124432874Y-59521928D01*
X127459403Y-56495400D01*
X151237278Y-56495400D01*
X151274600Y-56499076D01*
X151311922Y-56495400D01*
X151311933Y-56495400D01*
X151423586Y-56484403D01*
X151566847Y-56440946D01*
X151698876Y-56370374D01*
X151814601Y-56275401D01*
X151838404Y-56246397D01*
X153261070Y-54823731D01*
X153518816Y-54875000D01*
X153821184Y-54875000D01*
X154117743Y-54816011D01*
X154224701Y-54771707D01*
X154224700Y-56750498D01*
G36*
X138585363Y-61874759D02*
G01*
X138785241Y-62074637D01*
X138945842Y-62181947D01*
X138950997Y-62234286D01*
X138961167Y-62267813D01*
X138785241Y-62385363D01*
X138585363Y-62585241D01*
X138566000Y-62614220D01*
X138566000Y-61845780D01*
X138585363Y-61874759D01*
G37*
X138585363Y-61874759D02*
X138785241Y-62074637D01*
X138945842Y-62181947D01*
X138950997Y-62234286D01*
X138961167Y-62267813D01*
X138785241Y-62385363D01*
X138585363Y-62585241D01*
X138566000Y-62614220D01*
X138566000Y-61845780D01*
X138585363Y-61874759D01*
G36*
X123021928Y-61544965D02*
G01*
X123021399Y-61545399D01*
X122997601Y-61574397D01*
X122056280Y-62515719D01*
X122085000Y-62371335D01*
X122085000Y-62088665D01*
X122048688Y-61906114D01*
X123021928Y-60932874D01*
X123021928Y-61544965D01*
G37*
X123021928Y-61544965D02*
X123021399Y-61545399D01*
X122997601Y-61574397D01*
X122056280Y-62515719D01*
X122085000Y-62371335D01*
X122085000Y-62088665D01*
X122048688Y-61906114D01*
X123021928Y-60932874D01*
X123021928Y-61544965D01*
G36*
X124615363Y-55524759D02*
G01*
X124815241Y-55724637D01*
X125050273Y-55881680D01*
X125311426Y-55989853D01*
X125588665Y-56045000D01*
X125760197Y-56045000D01*
X120973886Y-60831312D01*
X120791335Y-60795000D01*
X120508665Y-60795000D01*
X120232400Y-60849953D01*
X120232400Y-59534901D01*
X124466032Y-55301269D01*
X124615363Y-55524759D01*
G37*
X124615363Y-55524759D02*
X124815241Y-55724637D01*
X125050273Y-55881680D01*
X125311426Y-55989853D01*
X125588665Y-56045000D01*
X125760197Y-56045000D01*
X120973886Y-60831312D01*
X120791335Y-60795000D01*
X120508665Y-60795000D01*
X120232400Y-60849953D01*
X120232400Y-59534901D01*
X124466032Y-55301269D01*
X124615363Y-55524759D01*
G36*
X152193989Y-52892257D02*
G01*
X152135000Y-53188816D01*
X152135000Y-53491184D01*
X152186269Y-53748930D01*
X150959799Y-54975400D01*
X144219401Y-54975400D01*
X144371070Y-54823731D01*
X144628816Y-54875000D01*
X144931184Y-54875000D01*
X145227743Y-54816011D01*
X145507095Y-54700299D01*
X145758505Y-54532312D01*
X145824944Y-54465873D01*
X145830498Y-54484180D01*
X145889463Y-54594494D01*
X145968815Y-54691185D01*
X146065506Y-54770537D01*
X146175820Y-54829502D01*
X146295518Y-54865812D01*
X146420000Y-54878072D01*
X148220000Y-54878072D01*
X148344482Y-54865812D01*
X148464180Y-54829502D01*
X148574494Y-54770537D01*
X148671185Y-54691185D01*
X148750537Y-54594494D01*
X148809502Y-54484180D01*
X148845812Y-54364482D01*
X148858072Y-54240000D01*
X148858072Y-54034575D01*
X148969576Y-53974974D01*
X149085301Y-53880001D01*
X149109104Y-53850997D01*
X150085402Y-52874700D01*
X152201261Y-52874700D01*
X152193989Y-52892257D01*
G37*
X152193989Y-52892257D02*
X152135000Y-53188816D01*
X152135000Y-53491184D01*
X152186269Y-53748930D01*
X150959799Y-54975400D01*
X144219401Y-54975400D01*
X144371070Y-54823731D01*
X144628816Y-54875000D01*
X144931184Y-54875000D01*
X145227743Y-54816011D01*
X145507095Y-54700299D01*
X145758505Y-54532312D01*
X145824944Y-54465873D01*
X145830498Y-54484180D01*
X145889463Y-54594494D01*
X145968815Y-54691185D01*
X146065506Y-54770537D01*
X146175820Y-54829502D01*
X146295518Y-54865812D01*
X146420000Y-54878072D01*
X148220000Y-54878072D01*
X148344482Y-54865812D01*
X148464180Y-54829502D01*
X148574494Y-54770537D01*
X148671185Y-54691185D01*
X148750537Y-54594494D01*
X148809502Y-54484180D01*
X148845812Y-54364482D01*
X148858072Y-54240000D01*
X148858072Y-54034575D01*
X148969576Y-53974974D01*
X149085301Y-53880001D01*
X149109104Y-53850997D01*
X150085402Y-52874700D01*
X152201261Y-52874700D01*
X152193989Y-52892257D01*
G36*
X137108977Y-52693898D02*
G01*
X137159468Y-52860344D01*
X137241460Y-53013742D01*
X137351804Y-53148196D01*
X137486258Y-53258540D01*
X137639656Y-53340532D01*
X137806102Y-53391023D01*
X137979200Y-53408072D01*
X138880800Y-53408072D01*
X139053898Y-53391023D01*
X139220344Y-53340532D01*
X139373742Y-53258540D01*
X139508196Y-53148196D01*
X139618540Y-53013742D01*
X139700532Y-52860344D01*
X139709737Y-52830000D01*
X143329777Y-52830000D01*
X143303989Y-52892257D01*
X143245000Y-53188816D01*
X143245000Y-53491184D01*
X143296269Y-53748930D01*
X143195199Y-53850000D01*
X135184801Y-53850000D01*
X135651157Y-53383645D01*
X135758514Y-53405000D01*
X136021486Y-53405000D01*
X136279405Y-53353696D01*
X136522359Y-53253061D01*
X136741013Y-53106962D01*
X136926962Y-52921013D01*
X137073061Y-52702359D01*
X137102751Y-52630682D01*
X137108977Y-52693898D01*
G37*
X137108977Y-52693898D02*
X137159468Y-52860344D01*
X137241460Y-53013742D01*
X137351804Y-53148196D01*
X137486258Y-53258540D01*
X137639656Y-53340532D01*
X137806102Y-53391023D01*
X137979200Y-53408072D01*
X138880800Y-53408072D01*
X139053898Y-53391023D01*
X139220344Y-53340532D01*
X139373742Y-53258540D01*
X139508196Y-53148196D01*
X139618540Y-53013742D01*
X139700532Y-52860344D01*
X139709737Y-52830000D01*
X143329777Y-52830000D01*
X143303989Y-52892257D01*
X143245000Y-53188816D01*
X143245000Y-53491184D01*
X143296269Y-53748930D01*
X143195199Y-53850000D01*
X135184801Y-53850000D01*
X135651157Y-53383645D01*
X135758514Y-53405000D01*
X136021486Y-53405000D01*
X136279405Y-53353696D01*
X136522359Y-53253061D01*
X136741013Y-53106962D01*
X136926962Y-52921013D01*
X137073061Y-52702359D01*
X137102751Y-52630682D01*
X137108977Y-52693898D01*
M02*
